<?xml version="1.0" encoding="utf-8"?>
<!-- Generator: Adobe Illustrator 24.3.0, SVG Export Plug-In . SVG Version: 6.00 Build 0)  -->
<svg version="1.1" id="Layer_1" xmlns="http://www.w3.org/2000/svg" xmlns:xlink="http://www.w3.org/1999/xlink" x="0px" y="0px"
	 viewBox="0 0 512 512" style="enable-background:new 0 0 512 512;" xml:space="preserve">
<style type="text/css">
	.st0{fill:#666666;}
	.st1{fill:#FFFFFF;}
	.st2{fill:#ECF0F1;}
	.st3{fill:#B6B6B8;}
	.st4{fill:#919191;}
	.st5{fill:#21D0C3;}
	.st6{fill:#FF5B62;}
	.st7{fill:#DCE3DB;}
	.st8{fill:#FAD24D;}
	.st9{fill:#EDB937;}
</style>
<path class="st0" d="M49.4,118h370.5c12.2,0,22.1,10,22.1,22.1v228.2H27.2V140.2C27.2,128,37.2,118,49.4,118z"/>
<path class="st1" d="M42.3,353.4H427V140.2c0-3.9-3.2-7.1-7.1-7.1H49.4c-3.9,0-7.1,3.2-7.1,7.1L42.3,353.4L42.3,353.4L42.3,353.4z"
	/>
<path class="st2" d="M50.2,163.5H419v85.4H50.2V163.5z"/>
<path class="st3" d="M7.1,368.4h455.1v12.8c0,7-5.8,12.8-12.8,12.8H19.9c-7,0-12.8-5.8-12.8-12.8L7.1,368.4L7.1,368.4z"/>
<path class="st4" d="M189.2,373.1H280l-9.7,6.5h-71.4L189.2,373.1L189.2,373.1z"/>
<path class="st0" d="M331.1,198.4h136.1c4.3,0,7.8,3.5,7.8,7.8v179.9c0,4.3-3.5,7.8-7.8,7.8H331.1c-4.3,0-7.8-3.5-7.8-7.8V206.2
	C323.3,201.9,326.8,198.4,331.1,198.4z"/>
<path class="st1" d="M332.8,212.2h132.7c0.5,0,0.9,0.4,0.9,0.9v161.6c0,0.5-0.4,0.9-0.9,0.9H332.8c-0.5,0-0.9-0.4-0.9-0.9V213.1
	C331.9,212.6,332.3,212.2,332.8,212.2z"/>
<circle class="st3" cx="399.2" cy="384.5" r="5.1"/>
<path class="st2" d="M339,232.5h120.4v70.9H339V232.5z"/>
<path class="st0" d="M437.9,268.4H501c2.2,0,4,1.8,4,4V390c0,2.2-1.8,4-4,4h-63.1c-2.2,0-4-1.8-4-4V272.4
	C433.9,270.2,435.7,268.4,437.9,268.4z"/>
<path class="st1" d="M440.9,280.1H498c0.2,0,0.4,0.2,0.4,0.4v101.3c0,0.2-0.2,0.4-0.4,0.4h-57.1c-0.2,0-0.4-0.2-0.4-0.4V280.5
	C440.5,280.3,440.6,280.1,440.9,280.1z"/>
<g>
	<circle class="st3" cx="469.4" cy="387.6" r="3.6"/>
	<path class="st3" d="M459.8,274.9H479c0.5,0,0.9,0.4,0.9,0.9v0c0,0.5-0.4,0.9-0.9,0.9h-19.2c-0.5,0-0.9-0.4-0.9-0.9v0
		C459,275.3,459.3,274.9,459.8,274.9z"/>
</g>
<path class="st5" d="M427,156.8H42.3v-16.7c0-3.9,3.2-7.1,7.1-7.1h370.5c3.9,0,7.1,3.2,7.1,7.1L427,156.8L427,156.8L427,156.8z"/>
<path class="st1" d="M206.4,139.9h197.1c1.5,0,2.6,1.2,2.6,2.6v4.9c0,1.5-1.2,2.6-2.6,2.6H206.4c-1.5,0-2.6-1.2-2.6-2.6v-4.9
	C203.8,141,205,139.9,206.4,139.9z"/>
<g>
	<path class="st2" d="M58.6,139.7c3.3,0,6,2.7,6,6s-2.7,6-6,6c-3.3,0-6-2.7-6-6S55.3,139.7,58.6,139.7z"/>
	<path class="st2" d="M82.2,139.7c3.3,0,6,2.7,6,6s-2.7,6-6,6c-3.3,0-6-2.7-6-6S78.9,139.7,82.2,139.7z"/>
	<path class="st2" d="M105.7,139.7c3.3,0,6,2.7,6,6s-2.7,6-6,6c-3.3,0-6-2.7-6-6S102.4,139.7,105.7,139.7z"/>
</g>
<path class="st6" d="M91.1,269.4c9.5,0,17.2,7.7,17.2,17.2c0,9.5-7.7,17.2-17.2,17.2c-9.5,0-17.2-7.7-17.2-17.2
	C73.9,277.1,81.6,269.4,91.1,269.4z"/>
<path class="st5" d="M180,269.4c9.5,0,17.2,7.7,17.2,17.2c0,9.5-7.7,17.2-17.2,17.2s-17.2-7.7-17.2-17.2
	C162.8,277.1,170.5,269.4,180,269.4z"/>
<g>
	<path class="st7" d="M66.5,311.2h49.4v2.7H66.5C66.5,313.9,66.5,311.2,66.5,311.2z M66.5,328.1h33.2v2.7H66.5
		C66.5,330.7,66.5,328.1,66.5,328.1z M66.5,319.6h49.4v2.7H66.5C66.5,322.3,66.5,319.6,66.5,319.6z"/>
	<path class="st7" d="M155.3,311.2h49.4v2.7h-49.4V311.2z M155.3,328.1h33.2v2.7h-33.2V328.1z M155.3,319.6h49.4v2.7h-49.4V319.6z"
		/>
</g>
<path class="st8" d="M274.4,269.4c9.5,0,17.2,7.7,17.2,17.2c0,9.5-7.7,17.2-17.2,17.2s-17.2-7.7-17.2-17.2
	C257.2,277.1,264.9,269.4,274.4,269.4z"/>
<path class="st7" d="M249.7,311.2h49.4v2.7h-49.4L249.7,311.2L249.7,311.2z M249.7,328.1h33.2v2.7h-33.2L249.7,328.1L249.7,328.1z
	 M249.7,319.6h49.4v2.7h-49.4L249.7,319.6L249.7,319.6z"/>
<path class="st6" d="M363,313.7c5.9,0,10.7,4.8,10.7,10.7S368.9,335,363,335c-5.9,0-10.7-4.8-10.7-10.7
	C352.3,318.4,357.1,313.7,363,313.7z"/>
<path class="st7" d="M347.6,339.6h30.6v2.2h-30.6V339.6z M347.6,353.2h20.6v2.2h-20.6V353.2z M347.6,346.4h30.6v2.2h-30.6V346.4z"/>
<path class="st5" d="M404.6,313.7c5.9,0,10.7,4.8,10.7,10.7s-4.8,10.7-10.7,10.7s-10.7-4.8-10.7-10.7
	C394,318.4,398.7,313.7,404.6,313.7z"/>
<path class="st7" d="M389.3,339.6H420v2.2h-30.6V339.6z M389.3,353.2h20.6v2.2h-20.6V353.2z M389.3,346.4H420v2.2h-30.6V346.4z"/>
<path class="st5" d="M466.4,227.8H331.9v-14.6c0-0.5,0.4-0.9,0.9-0.9h132.7c0.5,0,0.9,0.4,0.9,0.9L466.4,227.8L466.4,227.8z"/>
<g>
	<path class="st2" d="M341.9,216.7c1.9,0,3.5,1.6,3.5,3.5s-1.6,3.5-3.5,3.5c-1.9,0-3.5-1.6-3.5-3.5S339.9,216.7,341.9,216.7z"/>
	<path class="st2" d="M351.7,216.7c1.9,0,3.5,1.6,3.5,3.5s-1.6,3.5-3.5,3.5s-3.5-1.6-3.5-3.5S349.8,216.7,351.7,216.7z"/>
	<path class="st2" d="M361.6,216.7c1.9,0,3.5,1.6,3.5,3.5s-1.6,3.5-3.5,3.5c-1.9,0-3.5-1.6-3.5-3.5S359.6,216.7,361.6,216.7z"/>
</g>
<path class="st1" d="M381.2,217.4h80c0.6,0,1.1,0.6,1.1,1.4v2.6c0,0.8-0.5,1.4-1.1,1.4h-80c-0.6,0-1.1-0.6-1.1-1.4v-2.6
	C380.1,218.1,380.6,217.4,381.2,217.4z"/>
<path class="st5" d="M498.4,286.9h-57.9v-6.4c0-0.2,0.2-0.4,0.4-0.4H498c0.2,0,0.4,0.2,0.4,0.4L498.4,286.9L498.4,286.9z"/>
<path class="st1" d="M444.6,281.3c1.1,0,2,0.9,2,2c0,1.1-0.9,2-2,2c-1.1,0-2-0.9-2-2C442.6,282.2,443.5,281.3,444.6,281.3z"/>
<g>
	<path class="st2" d="M450.2,281.3c1.1,0,2,0.9,2,2c0,1.1-0.9,2-2,2s-2-0.9-2-2C448.2,282.2,449.1,281.3,450.2,281.3z"/>
	<path class="st2" d="M455.8,281.3c1.1,0,2,0.9,2,2c0,1.1-0.9,2-2,2c-1.1,0-2-0.9-2-2C453.8,282.2,454.7,281.3,455.8,281.3z"/>
</g>
<path class="st1" d="M464,281.6h32.2c0.4,0,0.8,0.4,0.8,0.8v2.1c0,0.4-0.4,0.8-0.8,0.8H464c-0.4,0-0.8-0.4-0.8-0.8v-2.1
	C463.2,281.9,463.5,281.6,464,281.6z"/>
<path class="st2" d="M443.3,289.1h52.3V320h-52.3L443.3,289.1L443.3,289.1z"/>
<path class="st8" d="M471,326.3c5.4,0,9.7,4.3,9.7,9.7c0,5.4-4.3,9.7-9.7,9.7s-9.7-4.3-9.7-9.7C461.3,330.6,465.6,326.3,471,326.3z"
	/>
<path class="st7" d="M454.1,352.8h33.7v2.4h-33.7V352.8z M454.1,367.8h22.6v2.4h-22.6V367.8z M454.1,360.3h33.7v2.4h-33.7V360.3z"/>
<path class="st9" d="M40.3,394h431.4c-1.4,2.2-2.9,4.4-4.4,6.6H44.7C43.2,398.4,41.8,396.2,40.3,394z"/>
<path class="st3" d="M382.2,204h34c0.5,0,0.9,0.4,0.9,0.9v0c0,0.5-0.4,0.9-0.9,0.9h-34c-0.5,0-0.9-0.4-0.9-0.9v0
	C381.3,204.3,381.7,204,382.2,204z"/>
</svg>
