<?xml version="1.0" encoding="utf-8"?>
<!-- Generator: Adobe Illustrator 24.3.0, SVG Export Plug-In . SVG Version: 6.00 Build 0)  -->
<svg version="1.1" id="Capa_1" xmlns="http://www.w3.org/2000/svg" xmlns:xlink="http://www.w3.org/1999/xlink" x="0px" y="0px"
	 viewBox="0 0 162 56" style="enable-background:new 0 0 162 56;" xml:space="preserve">
<style type="text/css">
	.st0{fill:#6EBE44;}
</style>
<g>
	<path class="st0" d="M1.6,42.8c3,1.4,6.2,2.1,9.5,2.1c4.7,0,6.8-2.1,6.8-4.9c0-3.4-2.3-5-7.1-7.8C2,26.9,0.6,20.9,0.6,16.9
		C0.6,7.8,6.4,0,19.1,0c3.1,0,6.2,0.7,9,2l-1.8,10.8c-2.2-1.3-4.6-1.9-7.2-1.9c-4.2,0-6.3,2.2-6.3,4.7c0,2.4,1.1,3.9,7.3,7.4
		c7.6,4.2,10.1,10,10.1,15.6c0,10.3-7.7,17.2-19.3,17.2c-4.6,0-8.9-1-10.9-2.1L1.6,42.8z"/>
	<path class="st0" d="M67.7,42.6c0,4.2,0.2,8.7,0.3,12.8H57.2l-0.7-4.2h-0.2c-2.2,3.1-5.7,5-9.5,4.9c-7.9,0-11.1-5.7-11.1-16.8v-24
		h12.6v22.5c0,4.8,1.1,7.7,3.4,7.7c1.1,0,2.1-0.6,2.5-1.6c0.5-1,0.8-2.2,0.7-3.3V15.3h12.6v27.3H67.7z"/>
	<path class="st0" d="M74.9,42.8c3,1.4,6.2,2.1,9.5,2.1c4.7,0,6.8-2.1,6.8-4.9c0-3.4-2.3-5-7.1-7.8c-8.9-5.3-10.3-11.3-10.3-15.4
		c0-9,5.9-16.8,18.6-16.8c3.1,0,6.2,0.7,9,2l-1.8,10.8c-2.2-1.3-4.7-1.9-7.2-1.9c-4.2,0-6.3,2.2-6.3,4.7c0,2.4,1.1,3.9,7.3,7.4
		c7.6,4.2,10.1,10,10.1,15.6c0,10.3-7.7,17.2-19.3,17.2c-4.7,0-9.1-1.1-11.1-2.1L74.9,42.8z"/>
	<path class="st0" d="M115.1,12.2h-9.5V0.5h31.7v11.7h-9.6v43.1h-12.6C115.1,55.3,115.1,12.2,115.1,12.2z"/>
	<path class="st0" d="M155.4,0.5v54.8h-12.6V0.5H155.4z"/>
</g>
</svg>
