<?xml version="1.0" encoding="utf-8"?>
<!-- Generator: Adobe Illustrator 24.3.0, SVG Export Plug-In . SVG Version: 6.00 Build 0)  -->
<svg version="1.1" id="Capa_1" xmlns="http://www.w3.org/2000/svg" xmlns:xlink="http://www.w3.org/1999/xlink" x="0px" y="0px"
	 viewBox="0 0 317 382" style="enable-background:new 0 0 317 382;" xml:space="preserve">
<style type="text/css">
	.st0{display:none;}
	.st1{display:inline;fill:#E0E0E0;}
	.st2{fill:#F2005D;}
	.st3{fill:#FFFFFF;}
	.st4{fill:#1E0F00;}
	.st5{fill:#FFBE56;}
	.st6{fill:none;}
</style>
<link  id="dark-mode-custom-link" rel="stylesheet" type="text/css" xmlns="http://www.w3.org/2000/svg"></link>
<link  id="dark-mode-general-link" rel="stylesheet" type="text/css" xmlns="http://www.w3.org/2000/svg"></link>
<g id="Background_Complete">
</g>
<g id="Background_Simple" class="st0">
	<path class="st1" d="M421.6,45.2l-2.5-4C399.2,8.7,363.3-11,325.2-9c-5.4,0.3-10.7,1-15.9,2.1c-35,7.4-65.4,33.5-78.1,67
		c-7.4,19.7-9.5,42.3-23.6,58c-18.3,20.3-49.5,21-76.8,20.1s-58.5-0.1-76.8,20.3c-11.4,12.8-15.1,31-14.1,48.1
		c2.4,45.3,34.4,85.9,75.1,106c40.7,20.1,88.6,22,133.1,13.1c62.4-12.4,121.7-46.5,157.3-99.2C441.1,173.8,450.1,102,421.6,45.2z"/>
</g>
<g id="Device">
	<g>
		<g>
			<g>
				<g>
					<g>
						<g>
							<path class="st2" d="M213.1,367l-116.8-0.1c-14,0-25.4-10.9-25.4-24.4l0.1-280.7c0-13.5,11.4-24.4,25.5-24.4l116.8,0.1
								c14,0,25.4,10.9,25.4,24.4l-0.1,280.7C238.5,356.1,227.1,367,213.1,367z"/>
						</g>
					</g>
				</g>
			</g>
		</g>
	</g>
	<g>
	</g>
</g>
<g id="Prototyping">
	<g>
		<g>
			<g>
				<g>
					<g>
						<g>
							<g>
								<g>
									<g>
										<g>
											<g>
												<g>
													<path class="st3" d="M211.6,52.8l-21.1,0c-2.8,0-5.1,2.4-5.1,5.3v3.8c0,2.9-2.3,5.3-5.1,5.3l-41.1,0
														c-2.8,0-5.1-2.4-5.1-5.4v-3.8c0-2.9-2.3-5.4-5.1-5.4h-7.4l-18.4,0c-9.2,0-16.6,7.4-16.6,16.6l-0.1,265.8
														c0,9.1,7.4,16.6,16.6,16.6l108.4,0.1c9.1,0,16.6-7.4,16.6-16.6l0.1-265.8C228.1,60.2,220.7,52.8,211.6,52.8z"/>
												</g>
											</g>
										</g>
										<g>
											<g>
												<g>
													<g>
														<path class="st4" d="M211.6,52.8c0,0,0.2,0,0.6,0c0.4,0,0.9,0,1.7,0.1c1.5,0.2,3.7,0.6,6.2,2.1
															c1.3,0.7,2.6,1.8,3.8,3.1c1.2,1.3,2.4,3,3.2,4.9c0.8,2,1.3,4.3,1.2,6.7c0,2.4,0,5.1,0,7.8c0,22.1,0,54,0.1,93.5
															c0,39.5,0,86.5,0,138.7c0,6.5,0,13.1,0,19.8c0,1.7,0,3.4,0,5c0,1.7-0.1,3.4-0.6,5c-0.5,1.6-1.2,3.2-2.1,4.7
															c-1,1.4-2.1,2.7-3.4,3.8c-2.7,2.2-6.1,3.5-9.6,3.7c-3.5,0.1-6.9,0-10.4,0c-7,0-14,0-21.1,0c-14.2,0-28.6,0-43.3,0
															c-7.3,0-14.7,0-22.1,0c-3.7,0-7.4,0-11.2,0c-3.8,0.2-7.7-0.8-10.8-3c-3.2-2.2-5.5-5.4-6.6-9.1
															c-0.6-1.8-0.7-3.7-0.7-5.6s0-3.7,0-5.6c0-7.4,0-14.8,0-22.2c0-14.7,0-29.1,0-43.3c0-28.4,0-55.8,0-81.9s0-50.9,0-74.1
															c0-11.6,0-22.8,0-33.6c0-1.4,0-2.7,0-4c0-0.7,0.1-1.3,0.1-2c0.1-0.7,0.2-1.3,0.3-2c0.6-2.6,1.8-5,3.5-7
															c1.7-2,3.8-3.6,6.2-4.6c2.3-1.1,4.9-1.4,7.4-1.4c4.9,0,9.8,0,14.4,0c2.3,0,4.7,0,6.9,0c1.1,0,2.3,0,3.4,0
															c1.1-0.1,2.3,0.3,3.3,0.9c0.9,0.7,1.7,1.6,2,2.7c0.4,1.1,0.3,2.2,0.3,3.3c0,0.5,0,1.1,0,1.6c0,0.5,0,1.1,0.1,1.6
															c0.1,1,0.6,2,1.2,2.8c0.7,0.8,1.6,1.3,2.5,1.6c0.5,0.1,1,0.2,1.5,0.1c0.5,0,1,0,1.5,0c2,0,4,0,6,0
															c7.8,0,15.1,0,21.9,0c3.4,0,6.6,0,9.6,0c0.8,0,1.5,0,2.3,0c0.7-0.1,1.4-0.3,2-0.7c1.2-0.8,2-2,2.3-3.3
															c0.1-0.7,0.1-1.3,0.1-2s0-1.3,0-2c0-0.6,0-1.3,0.1-1.9c0.1-0.6,0.3-1.2,0.6-1.8c0.6-1.1,1.6-1.9,2.6-2.3
															c1.1-0.5,2.2-0.3,3.3-0.4c4.2,0,7.8,0,10.8,0c2.9,0,5.1,0,6.6,0C210.8,52.8,211.6,52.8,211.6,52.8s-0.8,0-2.2,0
															s-3.7,0-6.6,0c-2.9,0-6.5,0-10.8,0c-1.1,0-2.2-0.1-3.2,0.4c-1,0.4-2,1.2-2.6,2.3c-0.3,0.5-0.5,1.1-0.6,1.7
															c-0.1,0.6-0.1,1.2-0.1,1.9c0,0.6,0,1.3,0,2c0,0.7,0,1.4-0.1,2.1c-0.3,1.4-1.1,2.7-2.4,3.5c-0.6,0.4-1.4,0.7-2.1,0.8
															c-0.8,0.1-1.5,0-2.3,0c-3.1,0-6.3,0-9.6,0c-6.7,0-14,0-21.9,0c-2,0-3.9,0-6,0c-0.5,0-1,0-1.5,0c-0.5,0-1.1,0-1.6-0.1
															c-1-0.2-2-0.8-2.7-1.7c-0.7-0.8-1.2-1.8-1.3-2.9c-0.1-0.6-0.1-1.1-0.1-1.6c0-0.5,0-1.1,0-1.6c0-1.1,0.1-2.2-0.3-3.2
															c-0.4-1-1-1.9-1.9-2.5c-0.9-0.6-2-0.9-3.1-0.9c-1.1,0-2.3,0-3.4,0c-2.3,0-4.6,0-6.9,0c-4.7,0-9.5,0-14.4,0
															c-2.4,0-4.9,0.3-7.2,1.4c-2.3,1-4.4,2.6-6,4.5c-1.6,2-2.8,4.3-3.4,6.9c-0.2,0.6-0.2,1.3-0.3,1.9c0,0.7-0.1,1.3-0.1,2
															c0,1.3,0,2.7,0,4c0,10.8,0,22,0,33.6c0,23.2,0,48,0,74.1c0,26.1,0,53.5,0,81.9c0,14.2,0,28.6,0,43.3
															c0,7.3,0,14.7,0,22.2c0,1.9,0,3.7,0,5.6c0,1.9,0.1,3.7,0.7,5.5c1.1,3.5,3.3,6.7,6.4,8.8c3.1,2.1,6.8,3.1,10.5,2.9
															c3.7,0,7.5,0,11.2,0c7.4,0,14.8,0,22.1,0c14.7,0,29.1,0,43.3,0c7.1,0,14.1,0,21.1,0c3.5,0,7,0.1,10.4,0
															c3.4-0.2,6.7-1.5,9.3-3.6c1.3-1.1,2.4-2.3,3.4-3.7c0.9-1.4,1.6-3,2.1-4.5c0.5-1.6,0.6-3.3,0.6-4.9c0-1.7,0-3.4,0-5
															c0-6.7,0-13.3,0-19.8c0-52.2,0.1-99.2,0.1-138.7c0-39.5,0.1-71.4,0.1-93.5c0-2.8,0-5.4,0-7.8c0-2.4-0.4-4.7-1.2-6.7
															c-0.8-2-1.9-3.6-3.1-4.9c-1.2-1.3-2.5-2.3-3.7-3.1c-2.5-1.5-4.7-2-6.2-2.2c-0.7-0.1-1.3-0.1-1.7-0.1
															C211.8,52.8,211.6,52.8,211.6,52.8z"/>
													</g>
												</g>
											</g>
										</g>
									</g>
								</g>
							</g>
						</g>
					</g>
				</g>
			</g>
			<g>
				<g>
					<g>
						<g>
							<path class="st4" d="M213.7,77.7c0,0.2-3.5,0.3-7.8,0.3s-7.8-0.1-7.8-0.3c0-0.2,3.5-0.3,7.8-0.3
								C210.2,77.4,213.7,77.5,213.7,77.7z"/>
						</g>
					</g>
				</g>
				<g>
					<g>
						<g>
							<path class="st4" d="M212.1,80.3c0,0.2-3.5,0.3-7.8,0.3s-7.8-0.1-7.8-0.3c0-0.2,3.5-0.3,7.8-0.3
								C208.6,79.9,212.1,80.1,212.1,80.3z"/>
						</g>
					</g>
				</g>
				<g>
					<g>
						<g>
							<path class="st4" d="M212.9,82.7c0,0.2-3.5,0.3-7.8,0.3s-7.8-0.1-7.8-0.3c0-0.2,3.5-0.3,7.8-0.3
								C209.4,82.4,212.9,82.5,212.9,82.7z"/>
						</g>
					</g>
				</g>
			</g>
			<g>
				<g>
					<g>
						<g>
							<path class="st4" d="M169.8,102.8c0,0,0.2,0.1,0.6,0.2c0.4,0.1,1,0.3,1.7,0.6c0.7,0.3,1.6,0.7,2.7,1.2c1,0.6,2.2,1.1,3.4,2
								c2.5,1.6,5.4,4,8.2,7.2c1.4,1.6,2.7,3.5,3.9,5.6c0.6,1,1.1,2.2,1.7,3.3c0.5,1.2,1,2.4,1.4,3.7c1.7,5.1,2.2,11.1,1.1,17.4
								c-1.1,6.2-3.9,12.6-8.5,18.1c-2.3,2.7-5.1,5.2-8.2,7.2c-3.1,2-6.7,3.6-10.4,4.6c-7.5,2-15.9,1.8-23.6-0.9
								c-7.8-2.8-14.3-8.1-18.6-14.5c-4.4-6.4-6.9-13.7-7.2-20.8c-0.3-7.1,1.3-14,4.5-19.4c3.2-5.5,8-9.4,12.7-11.9
								c4.8-2.5,9.5-3.8,13.7-4.4c4.2-0.6,7.9-0.6,10.9-0.5c6,0.3,9.2,1.1,9.2,1.1s-0.2,0-0.6-0.1c-0.4-0.1-1-0.1-1.8-0.2
								c-1.6-0.2-3.9-0.4-6.9-0.5c-3-0.1-6.6-0.1-10.8,0.6c-4.2,0.6-8.9,1.9-13.6,4.4c-4.6,2.5-9.3,6.3-12.5,11.7
								c-3.2,5.4-4.8,12.1-4.4,19.1c0.3,7,2.8,14.2,7.2,20.5c4.3,6.3,10.7,11.5,18.3,14.2c7.6,2.7,15.9,2.9,23.2,0.9
								c7.4-1.9,13.8-6.1,18.3-11.5c4.6-5.4,7.3-11.6,8.5-17.8c1.1-6.1,0.7-12.1-1-17.1c-0.4-1.3-0.9-2.5-1.4-3.6
								c-0.6-1.1-1.1-2.3-1.7-3.3c-1.1-2.1-2.5-3.9-3.8-5.6c-2.7-3.2-5.6-5.6-8-7.2c-1.2-0.9-2.4-1.5-3.4-2c-1-0.5-1.9-0.9-2.6-1.2
								c-0.7-0.3-1.3-0.5-1.7-0.6C170,102.9,169.8,102.8,169.8,102.8z"/>
						</g>
					</g>
				</g>
				<g>
					<g>
						<g>
							<g>
								<path class="st4" d="M179.4,153c0,0-0.1-0.2-0.3-0.6c-0.2-0.5-0.4-1.1-0.7-1.8c-0.6-1.6-1.5-3.9-2.9-6.6
									c-1.4-2.7-3.2-5.9-6.2-8.5c-1.5-1.3-3.2-2.5-5.2-3.4c-2-0.8-4.2-1.3-6.5-1.1c-4.6,0.3-8.6,2.7-11.4,5.4
									c-2.8,2.8-4.5,6.1-5.6,8.9c-1.1,2.8-1.6,5.2-2,6.9c-0.2,0.8-0.3,1.4-0.4,1.9c-0.1,0.4-0.1,0.7-0.2,0.7s0-0.2,0-0.7
									c0-0.4,0.1-1.1,0.3-1.9c0.3-1.7,0.8-4.1,1.8-7c1.1-2.9,2.7-6.2,5.6-9.1c2.9-2.9,7-5.3,11.8-5.6c2.4-0.2,4.7,0.3,6.8,1.2
									c2.1,0.9,3.8,2.1,5.3,3.5c3,2.8,4.9,6,6.2,8.8c1.3,2.8,2.1,5.1,2.7,6.7c0.2,0.8,0.4,1.4,0.6,1.9
									C179.4,152.7,179.4,153,179.4,153z"/>
							</g>
						</g>
					</g>
					<g>
						<g>
							<g>
								<path class="st4" d="M158.7,113.8c0,0,0.2,0,0.4,0c0.3,0,0.7,0.1,1.3,0.4c1.1,0.4,2.5,1.4,3.5,3.2c0.5,0.9,0.9,2,0.9,3.2
									s-0.2,2.6-1,3.7c-1.4,2.3-4.4,4.2-7.6,3.7c-3.2-0.6-5.5-3.2-6.2-5.8c-0.4-1.3-0.3-2.7,0-3.9c0.3-1.2,0.9-2.2,1.6-2.9
									c1.4-1.6,2.9-2.3,4-2.6c0.6-0.1,1-0.2,1.3-0.2c0.3,0,0.4,0,0.4,0c0,0.1-0.6,0.1-1.7,0.4c-1,0.3-2.5,1.1-3.8,2.6
									c-0.6,0.8-1.2,1.7-1.4,2.8c-0.3,1.1-0.3,2.3,0,3.6c0.7,2.4,2.8,4.9,5.7,5.3c2.9,0.4,5.7-1.2,7-3.4c0.7-1.1,1-2.3,1-3.4
									c0-1.1-0.4-2.2-0.8-3c-0.9-1.7-2.2-2.7-3.2-3.2C159.3,113.9,158.7,113.8,158.7,113.8z"/>
							</g>
						</g>
					</g>
				</g>
			</g>
			<g>
				<g>
					<g>
						<g>
							<path class="st4" d="M195.6,198.1c0,0-0.3-0.1-0.9-0.3c-0.6-0.2-1.4-0.5-2.4-0.8c-2.1-0.6-5.4-1.1-9.4-0.5
								c-2,0.3-4.1,0.8-6.2,1.8c-1.1,0.5-2.1,1.1-3.3,1.5c-1.2,0.5-2.6,0.8-4,0.5c-3-0.8-3.4-4.7-6.1-5.2c-1.3-0.3-2.5,0.7-3.5,1.7
								c-1,1-2,2.3-3.3,3.2c-0.7,0.5-1.4,0.7-2.3,0.9c-0.8,0-1.6,0-2.4-0.4c-1.5-0.6-2.6-1.5-3.8-2.4c-1.1-0.9-2.2-1.8-3.4-2.5
								c-1.1-0.7-2.4-1.1-3.7-0.9c-1.2,0.2-2.2,1-3.1,1.9c-0.8,0.9-1.5,2-2.2,2.9c-0.8,0.9-1.6,1.8-2.7,2.3c-1,0.5-2.1,0.7-3.2,0.7
								c-2.1,0-3.9-1-4.9-2.3c-1-1.3-1.4-2.7-1.5-3.8c-0.1-1.1,0.1-2,0.3-2.6c0.2-0.6,0.4-0.8,0.4-0.8c0.1,0-0.7,1.1-0.5,3.4
								c0.1,1.1,0.5,2.4,1.5,3.6c1,1.2,2.7,2,4.6,2.1c1,0,2-0.2,2.9-0.7c0.9-0.5,1.8-1.2,2.5-2.2c0.7-0.9,1.4-1.9,2.2-2.9
								c0.8-1,1.9-1.9,3.4-2.1c1.4-0.3,2.9,0.2,4.1,0.9c1.2,0.7,2.3,1.6,3.5,2.5c1.1,0.9,2.3,1.8,3.6,2.3c0.7,0.3,1.4,0.4,2.1,0.3
								c0.7-0.1,1.4-0.3,2-0.8c1.2-0.8,2.1-2,3.2-3.1c0.5-0.5,1.1-1.1,1.8-1.5c0.7-0.4,1.5-0.6,2.3-0.4c0.8,0.1,1.5,0.6,2,1.1
								c0.5,0.5,0.9,1.1,1.3,1.7c0.8,1.1,1.6,2.2,2.9,2.5c1.2,0.3,2.5,0,3.6-0.4c1.2-0.4,2.2-1,3.3-1.5c2.2-1,4.4-1.5,6.4-1.8
								c4-0.5,7.3,0.1,9.5,0.8c1.1,0.3,1.9,0.7,2.4,0.9C195.3,197.9,195.6,198,195.6,198.1z"/>
						</g>
					</g>
				</g>
				<g>
					<g>
						<g>
							<path class="st4" d="M177,209c0,0.2-7.9,0.3-17.6,0.3s-17.6-0.1-17.6-0.3s7.9-0.3,17.6-0.3C169.1,208.7,177,208.9,177,209z"
								/>
						</g>
					</g>
				</g>
			</g>
			<g>
				<g>
					<g>
						<g>
							<g>
								<path class="st4" d="M103.4,252.3c-0.2,0-0.2-5-0.1-11.1c0.1-6.1,0.3-11.1,0.5-11.1s0.2,5,0.1,11.1
									C103.8,247.3,103.5,252.3,103.4,252.3z"/>
							</g>
						</g>
					</g>
					<g>
						<g>
							<g>
								<path class="st4" d="M209.5,253.3c0,0.2-24.2-0.1-54.1-0.5c-29.9-0.5-54.1-1-54.1-1.2s24.2,0.1,54.1,0.5
									C185.3,252.6,209.5,253.1,209.5,253.3z"/>
							</g>
						</g>
					</g>
					<g>
						<g>
							<g>
								<path class="st4" d="M209,228.4c0,0.2-23.4,0.7-52.3,1.1c-28.9,0.4-52.4,0.7-52.4,0.5s23.4-0.7,52.3-1.1
									C185.6,228.4,209,228.2,209,228.4z"/>
							</g>
						</g>
					</g>
					<g>
						<g>
							<g>
								<path class="st4" d="M208.6,252.7c-0.2,0-0.3-5.5-0.3-12.2c0-6.8,0.1-12.2,0.3-12.2c0.2,0,0.3,5.5,0.3,12.2
									C208.9,247.2,208.8,252.7,208.6,252.7z"/>
							</g>
						</g>
					</g>
				</g>
				<g>
					<g>
						<g>
							<path class="st4" d="M116,238.1c0,0,0.3-0.1,0.7,0.1c0.5,0.1,1.1,0.5,1.6,1.2c0.5,0.7,0.9,1.8,0.6,3
								c-0.3,1.2-1.5,2.1-2.9,2.3c-1.3,0.2-2.8-0.4-3.4-1.5c-0.6-1.1-0.5-2.2-0.2-3c0.3-0.8,0.9-1.3,1.3-1.6
								c0.4-0.2,0.7-0.3,0.7-0.2c0.1,0.1-1.1,0.4-1.6,2c-0.2,0.7-0.3,1.7,0.2,2.6c0.5,0.9,1.6,1.3,2.8,1.2c1.2-0.1,2.1-0.9,2.4-1.8
								c0.3-1,0-1.9-0.4-2.6C117.1,238.3,116,238.2,116,238.1z"/>
						</g>
					</g>
				</g>
			</g>
			<g>
				<g>
					<g>
						<g>
							<path class="st4" d="M107,286.6c-0.2,0-0.9-4.6-1.7-10.4s-1.2-10.5-1.1-10.5c0.2,0,0.9,4.6,1.7,10.4
								C106.7,281.9,107.1,286.6,107,286.6z"/>
						</g>
					</g>
				</g>
				<g>
					<g>
						<g>
							<path class="st4" d="M204.2,266.2c0,0.2-22.1,0.3-49.4,0.3c-27.3,0-49.4-0.1-49.4-0.3s22.1-0.3,49.4-0.3
								C182.1,265.9,204.2,266,204.2,266.2z"/>
						</g>
					</g>
				</g>
				<g>
					<g>
						<g>
							<path class="st4" d="M207.7,285.2c-0.2,0-0.3-4-0.3-8.9s0.1-8.9,0.3-8.9c0.2,0,0.3,4,0.3,8.9
								C208,281.2,207.9,285.2,207.7,285.2z"/>
						</g>
					</g>
				</g>
				<g>
					<g>
						<g>
							<path class="st4" d="M208.6,286.4c0,0.2-22.4,0.3-50.1,0.3s-50.1-0.1-50.1-0.3s22.4-0.3,50.1-0.3S208.6,286.3,208.6,286.4z"
								/>
						</g>
					</g>
				</g>
				<g>
					<g>
						<g>
							<path class="st4" d="M114.7,275.4c0,0,0.2-0.2,0.6-0.3c0.5-0.1,1.2-0.1,1.9,0.4c0.3,0.2,0.7,0.6,0.9,1.1
								c0.2,0.5,0.2,1.1,0.1,1.7c-0.3,1.1-1.5,2.2-2.9,2.1c-1.4-0.1-2.5-1.1-2.9-2.2c-0.4-1.1-0.1-2.2,0.4-2.9
								c0.5-0.7,1.1-1.1,1.5-1.3c0.4-0.2,0.7-0.2,0.7-0.2c0.1,0.1-1,0.4-1.8,1.7c-0.4,0.6-0.6,1.6-0.2,2.5c0.3,0.9,1.3,1.7,2.3,1.8
								s2-0.8,2.3-1.7c0.3-0.9-0.1-1.8-0.7-2.2c-0.6-0.5-1.2-0.6-1.6-0.5C114.9,275.3,114.7,275.5,114.7,275.4z"/>
						</g>
					</g>
				</g>
			</g>
			<g>
				<g>
					<g>
						<g>
							<path class="st5" d="M130.1,329c0,0-0.1,0.1-0.4,0.1c-0.2,0-0.6,0.1-1.1,0.1c-1,0.1-2.4,0-4.1-0.6c-1.7-0.6-3.6-1.7-5.2-3.4
								c-1.6-1.7-2.9-4.1-3.2-6.8c-0.2-2.8,0.6-5.3,1.9-7.3c1.3-2,2.9-3.4,4.5-4.3c1.6-0.9,3-1.2,3.9-1.4c0.5-0.1,0.9,0,1.1-0.1
								c0.3,0,0.4,0,0.4,0c0,0.2-2.3,0-5.2,1.8c-1.5,0.9-3,2.3-4.2,4.2c-1.2,1.9-2,4.4-1.8,6.9c0.3,2.6,1.5,4.9,3,6.5
								c1.5,1.7,3.3,2.8,4.9,3.4C127.9,329.5,130.1,328.9,130.1,329z"/>
						</g>
					</g>
				</g>
				<g>
					<g>
						<g>
							<path class="st5" d="M197.5,328.5c0,0.2-13.9,0.3-31,0.3c-17.1,0-31-0.1-31-0.3s13.9-0.3,31-0.3S197.5,328.3,197.5,328.5z"/>
						</g>
					</g>
				</g>
				<g>
					<g>
						<g>
							<path class="st5" d="M198.1,326.9c0-0.1,1.4-0.3,3.4-1.8c1-0.7,2.1-1.8,3-3.3c0.9-1.5,1.5-3.5,1.4-5.7
								c-0.1-2.2-0.9-4.6-2.5-6.6c-1.7-2-4.2-3.4-7.1-4c-2.9-0.7-6-0.9-9.2-0.8c-3.2,0-6.6,0.1-10,0.1c-13.7,0.1-26.1,0.2-35.1,0.3
								c-4.4,0-8.1,0-10.6,0c-1.2,0-2.2,0-2.9,0c-0.7,0-1,0-1,0s0.4,0,1-0.1c0.7,0,1.7,0,2.9-0.1c2.6,0,6.2-0.1,10.6-0.2
								c9.1-0.1,21.4-0.3,35.1-0.5c3.4,0,6.8-0.1,10-0.1c3.2,0,6.4,0.1,9.3,0.9c2.9,0.7,5.6,2.2,7.3,4.3s2.5,4.6,2.6,6.9
								c0.1,2.3-0.6,4.4-1.6,5.9c-1,1.5-2.1,2.6-3.2,3.4s-2,1.1-2.6,1.3c-0.3,0.1-0.6,0.2-0.7,0.2
								C198.2,326.9,198.1,326.9,198.1,326.9z"/>
						</g>
					</g>
				</g>
				<g>
					<g>
						<g>
							<path class="st4" d="M194,318.4c0,0-0.2,0.1-0.7,0.1c-0.6,0-1.2,0.1-2.1,0.2c-1.9,0.1-4.5,0.3-7.7,0.5
								c-6.6,0.3-15.5,0.8-25.4,1.3c-2.8,0.1-5.8,0.3-8.4-0.7c-1.3-0.5-2.4-1.1-3.6-1.5c-1.2-0.4-2.4-0.5-3.4-0.1
								c-2.1,0.8-3.7,2.8-5.8,3.3c-2.1,0.7-4.5-1.3-3.8-3.2l0.2,0.3c-0.9,0.1-1.7,0.7-2.1,1.3c-0.4,0.7-0.5,1.4-0.4,2l-0.2,0
								c0-0.8,0-1.5,0-2c0-0.5,0-0.7,0.1-0.7s0,0.2,0.1,0.7c0,0.5,0.1,1.2,0.1,2l0,1.1l-0.3-1c-0.2-0.6-0.1-1.5,0.3-2.2
								c0.4-0.7,1.2-1.5,2.4-1.6l0.3,0l-0.1,0.3c-0.3,0.7,0.1,1.5,0.8,2.1c0.7,0.6,1.6,0.7,2.6,0.5c0.9-0.2,1.8-0.8,2.7-1.5
								c0.9-0.6,1.8-1.4,3-1.9c1.2-0.5,2.6-0.3,3.8,0.1c1.2,0.4,2.4,1,3.6,1.5c2.5,0.9,5.3,0.8,8.1,0.6c9.9-0.4,18.8-0.8,25.4-1.1
								c3.2-0.1,5.8-0.2,7.7-0.3c0.9,0,1.6,0,2.1,0C193.8,318.4,194,318.4,194,318.4z"/>
						</g>
					</g>
				</g>
			</g>
			<g>
				<g>
					<g>
						<path class="st5" d="M202.2,338.8c0,0.2-18.7,0.3-41.7,0.3c-23.1,0-41.7-0.1-41.7-0.3s18.7-0.3,41.7-0.3
							C183.5,338.5,202.2,338.6,202.2,338.8z"/>
					</g>
				</g>
			</g>
		</g>
		<g>
			<g>
				<g>
					<g>
						<path class="st4" d="M110.2,77c0.1,0,0.2,0.8,0.3,2.3c0.1,1.4,0.3,3.5,0.5,5.9l0,0.3l-0.3,0c-2,0.2-4.2,0.5-6.5,0.8
							c-1.6,0.2-3.1,0.3-4.6,0.5l-0.3,0l0-0.3c-0.1-3-0.2-5.5-0.2-7.3s0-2.9,0.1-2.9c0.1,0,0.2,1.1,0.3,2.9s0.3,4.4,0.4,7.3
							l-0.3-0.3c1.4-0.2,3-0.3,4.6-0.5c2.3-0.2,4.6-0.5,6.5-0.7l-0.2,0.3c-0.1-2.4-0.2-4.5-0.2-5.9C110.2,77.9,110.2,77,110.2,77z"
							/>
					</g>
				</g>
			</g>
			<g>
				<g>
					<g>
						<path class="st4" d="M104.6,71.3c0.1,0.1-2.3,1.9-5.1,4.3c-2.9,2.3-5.1,4.3-5.2,4.1c-0.1-0.1,1.9-2.3,4.8-4.6
							C101.9,72.8,104.5,71.2,104.6,71.3z"/>
					</g>
				</g>
			</g>
			<g>
				<g>
					<g>
						<path class="st4" d="M114.4,79.5c-0.1,0.1-2.4-1.6-5.1-3.8c-2.7-2.2-4.8-4.2-4.7-4.3s2.4,1.6,5.1,3.8
							C112.4,77.4,114.6,79.3,114.4,79.5z"/>
					</g>
				</g>
			</g>
		</g>
	</g>
	<g>
		<g>
			<g>
				
					<rect x="141.6" y="7.2" transform="matrix(9.260032e-02 -0.9957 0.9957 9.260032e-02 120.2716 169.7942)" class="st5" width="23.3" height="23.3"/>
			</g>
		</g>
		<g>
			<g>
				<g>
					<g>
						<path class="st4" d="M152.5,23.9c-0.1,0-0.1-1,0-2.5c0-0.4,0-0.8,0.1-1.3c0-0.2,0.1-0.5,0.2-0.8c0.1-0.3,0.4-0.5,0.6-0.6
							c0.5-0.3,1-0.4,1.4-0.7c0.4-0.3,0.7-0.7,0.9-1.2c0.4-1,0-2.1-0.8-2.7c-0.7-0.6-1.6-0.8-2.3-0.7c-1.5,0.2-2.1,1.1-2.1,1
							c0,0,0.1-0.3,0.4-0.6c0.3-0.3,0.9-0.7,1.7-0.9c0.8-0.2,1.9,0,2.8,0.7c0.4,0.4,0.8,0.8,1,1.4c0.2,0.6,0.2,1.3-0.1,1.9
							c-0.2,0.6-0.6,1.1-1.1,1.5c-0.5,0.4-1.1,0.5-1.5,0.7c-0.4,0.2-0.6,0.5-0.6,1c-0.1,0.4-0.1,0.8-0.1,1.3
							C152.7,22.9,152.6,23.9,152.5,23.9z"/>
					</g>
				</g>
			</g>
			<g>
				<g>
					<g>
						<path class="st4" d="M152.2,25.2c0,0.1,0,0.2,0,0.3c0.1,0.1,0,0,0.1,0c0,0,0,0,0,0c0,0,0,0,0-0.1c0-0.1-0.1-0.2-0.1-0.3
							c0-0.1,0.2-0.2,0.4,0c0.1,0.1,0.2,0.2,0.2,0.5c-0.1,0.3-0.3,0.4-0.5,0.5c-0.2,0-0.5,0-0.6-0.2c-0.1-0.2-0.1-0.4,0-0.5
							C151.9,25,152.2,25.1,152.2,25.2z"/>
					</g>
				</g>
			</g>
		</g>
	</g>
	<g>
		<g>
			
				<rect x="11.5" y="206.7" transform="matrix(9.260032e-02 -0.9957 0.9957 9.260032e-02 -196.8367 229.7378)" class="st5" width="32.3" height="32.3"/>
		</g>
	</g>
	<g>
		<g>
			<rect x="16" y="140.9" class="st2" width="32.3" height="32.3"/>
		</g>
	</g>
	<g>
		<g>
			<g>
				<path class="st4" d="M50,217.6c0,0,0.9-0.6,2.4-1.8c1.5-1.1,3.6-3,5.9-5.5c2.2-2.6,4.6-5.9,6.5-10c1.9-4.1,3.3-9,3.7-14.1
					c0.3-5.2-0.5-10.2-2.3-14.3c-1.8-4.1-4.7-7.2-7.5-9.2c-2.8-2-5.5-2.8-7.4-3.2c-1.9-0.4-3-0.3-3-0.4c0,0,0.3,0,0.8,0
					c0.5,0,1.3,0,2.2,0.2c1.9,0.3,4.7,1.1,7.6,3c2.9,1.9,5.9,5.1,7.7,9.3c1.9,4.2,2.8,9.3,2.4,14.6c-0.3,5.3-1.8,10.2-3.8,14.4
					c-2,4.1-4.4,7.5-6.7,10.1c-2.3,2.5-4.5,4.4-6.1,5.4c-0.8,0.6-1.4,1-1.9,1.2C50.3,217.5,50,217.6,50,217.6z"/>
			</g>
		</g>
	</g>
	<g>
		<g>
			<g>
				<path class="st4" d="M57.1,219.3c0,0.2-3.4,0.5-7.7,0.8h0l-0.4,0l0-0.4c0.5-4.2,1.1-7.6,1.3-7.6c0.2,0-0.1,3.5-0.6,7.7l-0.3-0.4
					h0C53.6,219.2,57,219.1,57.1,219.3z"/>
			</g>
		</g>
	</g>
	<g>
		<g>
			<g>
				<path class="st4" d="M108.2,131.3c0,0.2-12.5,0.3-27.8,0.3c-15.4,0-27.8-0.1-27.8-0.3c0-0.2,12.4-0.3,27.8-0.3
					C95.8,131,108.2,131.1,108.2,131.3z"/>
			</g>
		</g>
	</g>
	<g>
		<g>
			<g>
				<path class="st4" d="M105.5,135.3c-0.1-0.1,1.3-2.1,3.3-4.4c0.1-0.1,0.1-0.1,0.2-0.2l0.1,0.5c-2.5-1.5-4.4-2.9-4.3-3
					c0.1-0.1,2.1,0.9,4.6,2.5l0.3,0.2l-0.2,0.3c-0.1,0.1-0.1,0.1-0.2,0.2C107.3,133.6,105.7,135.4,105.5,135.3z"/>
			</g>
		</g>
	</g>
	<g>
		<g>
			<g>
				<g>
					<path class="st4" d="M235.8,277.6c0,0.2-5.2,0.3-11.6,0.3s-11.6-0.1-11.6-0.3s5.2-0.3,11.6-0.3S235.8,277.4,235.8,277.6z"/>
				</g>
			</g>
		</g>
		<g>
			<g>
				<g>
					<path class="st4" d="M234.3,283.4c-0.1,0,0-0.7,0.3-1.7c0.3-1,0.9-2.4,1.9-3.8l0,0.3c-0.1-0.2-0.2-0.4-0.3-0.5
						c-1.6-3.1-3.7-5.2-3.6-5.3c0.1-0.1,2.4,1.8,4.1,5c0.1,0.2,0.2,0.4,0.3,0.5l0.1,0.2l-0.1,0.2
						C235.1,280.9,234.5,283.5,234.3,283.4z"/>
				</g>
			</g>
		</g>
	</g>
	<g>
		<g>
			<g>
				
					<rect x="241.6" y="264.7" transform="matrix(0.9979 -6.539733e-02 6.539733e-02 0.9979 -17.7954 17.4366)" class="st5" width="31.7" height="31.7"/>
			</g>
		</g>
		<g>
			<g>
				<g>
					<g>
						<g>
							<g>
								<path class="st6" d="M264,280.9c1.9-1.8,2-4.8,0.2-6.7c-1.8-1.9-4.8-2-6.7-0.2c-1.7,1.5-2,4-0.9,5.8l0,0l-1,0.9l0.2,1.6
									l-1.5-0.4l-1.2,1.1l0.2,1.6l-1.5-0.4l-1,1l0.1,1l-0.9-0.3l-0.6,0.6l-0.1,1.5l2.2,0.6l7.2-6.7
									C260.5,282.5,262.5,282.2,264,280.9z M263.3,275c0.5,0.5,0.5,1.4-0.1,1.9c-0.5,0.5-1.4,0.5-1.9-0.1s-0.5-1.4,0.1-1.9
									C261.9,274.4,262.8,274.5,263.3,275z"/>
							</g>
						</g>
						<g>
							<g>
								<g>
									<path class="st3" d="M263.3,275c-0.1,0.1-0.4-0.3-1.1-0.2c-0.3,0-0.7,0.3-0.8,0.6c-0.2,0.4-0.1,0.9,0.2,1.2
										c0.3,0.3,0.8,0.4,1.2,0.3c0.4-0.1,0.6-0.5,0.7-0.8C263.6,275.5,263.2,275.1,263.3,275c0-0.1,0.6,0.2,0.6,1.2
										c0,0.5-0.3,1-0.9,1.3c-0.6,0.3-1.4,0.2-1.9-0.4c-0.5-0.5-0.6-1.4-0.2-1.9c0.3-0.6,0.9-0.8,1.3-0.8
										C263.1,274.4,263.3,275,263.3,275z"/>
								</g>
							</g>
						</g>
						<g>
							<g>
								<g>
									<path class="st3" d="M264,280.9c0,0-0.1,0.1-0.2,0.3c-0.2,0.2-0.5,0.4-0.9,0.6c-0.8,0.4-2.4,0.9-4.1,0.1l0.2,0
										c-1.9,1.8-4.3,4.1-7.2,6.8l-0.1,0.1l-0.1,0c-0.7-0.2-1.4-0.4-2.2-0.5l-0.2-0.1l0-0.2c0-0.5,0.1-1,0.1-1.5l0-0.1l0.1-0.1
										c0.2-0.2,0.4-0.4,0.6-0.6l0.1-0.1l0.2,0c0.3,0.1,0.6,0.2,0.9,0.2l-0.4,0.3c0-0.3-0.1-0.6-0.1-1l0-0.2l0.1-0.1
										c0.3-0.3,0.7-0.6,1-1l0.1-0.1l0.2,0c0.5,0.1,1,0.3,1.5,0.4l-0.4,0.4c-0.1-0.5-0.1-1.1-0.2-1.6l0-0.2l0.1-0.1
										c0.1-0.1,0.2-0.2,0.3-0.3c0.3-0.3,0.6-0.6,0.9-0.8l0.1-0.1l0.2,0c0.5,0.1,1,0.3,1.5,0.4l-0.4,0.4c-0.1-0.5-0.1-1.1-0.2-1.6
										l0-0.2l0.1-0.1c0.3-0.3,0.7-0.6,1-0.9l-0.1,0.4c-0.8-1.4-0.8-3.2-0.2-4.5c0.6-1.4,1.8-2.4,3.1-2.8c1.3-0.4,2.7-0.2,3.7,0.3
										c1.1,0.5,1.8,1.4,2.3,2.3c0.9,1.8,0.4,3.6-0.1,4.5C264.5,280.6,264,280.9,264,280.9c0,0,0.4-0.4,0.9-1.3
										c0.4-0.9,0.8-2.5,0-4.2c-0.4-0.8-1.1-1.6-2.1-2c-1-0.5-2.2-0.6-3.4-0.2c-1.1,0.4-2.2,1.3-2.7,2.5c-0.5,1.2-0.5,2.8,0.2,4
										l0.1,0.2l-0.2,0.2c-0.3,0.3-0.6,0.6-1,0.9l0.1-0.3c0.1,0.5,0.2,1.1,0.2,1.6l0.1,0.5l-0.5-0.1c-0.5-0.1-1-0.3-1.5-0.4
										l0.3-0.1c-0.3,0.3-0.6,0.5-0.9,0.8c-0.1,0.1-0.2,0.2-0.3,0.3l0.1-0.3c0.1,0.5,0.2,1.1,0.2,1.6l0.1,0.5l-0.5-0.1
										c-0.5-0.1-1-0.3-1.5-0.4l0.3-0.1c-0.4,0.3-0.7,0.7-1,1l0.1-0.3c0.1,0.3,0.1,0.7,0.1,1l0.1,0.5l-0.5-0.1
										c-0.3-0.1-0.6-0.2-0.9-0.3l0.3-0.1c-0.2,0.2-0.4,0.4-0.6,0.6l0.1-0.2c0,0.5-0.1,1-0.1,1.5l-0.2-0.3
										c0.8,0.2,1.5,0.4,2.2,0.6l-0.3,0.1c2.9-2.6,5.4-4.9,7.3-6.7l0.1-0.1l0.1,0c1.6,0.7,3,0.4,3.9,0
										C263.6,281.2,263.9,280.8,264,280.9z"/>
								</g>
							</g>
						</g>
					</g>
				</g>
				<g>
					<g>
						<g>
							<g>
								<g>
									<path class="st6" d="M264,280.9c1.9-1.8,2-4.8,0.2-6.7c-1.8-1.9-4.8-2-6.7-0.2c-1.7,1.5-2,4-0.9,5.8l0,0l-1,0.9l0.2,1.6
										l-1.5-0.4l-1.2,1.1l0.2,1.6l-1.5-0.4l-1,1l0.1,1l-0.9-0.3l-0.6,0.6l-0.1,1.5l2.2,0.6l7.2-6.7
										C260.5,282.5,262.5,282.2,264,280.9z M263.3,275c0.5,0.5,0.5,1.4-0.1,1.9c-0.5,0.5-1.4,0.5-1.9-0.1s-0.5-1.4,0.1-1.9
										C261.9,274.4,262.8,274.5,263.3,275z"/>
								</g>
							</g>
							<g>
								<g>
									<g>
										<path class="st3" d="M263.3,275c-0.1,0.1-0.4-0.3-1.1-0.2c-0.3,0-0.7,0.3-0.8,0.6c-0.2,0.4-0.1,0.9,0.2,1.2
											c0.3,0.3,0.8,0.4,1.2,0.3c0.4-0.1,0.6-0.5,0.7-0.8C263.6,275.5,263.2,275.1,263.3,275c0-0.1,0.6,0.2,0.6,1.2
											c0,0.5-0.3,1-0.9,1.3c-0.6,0.3-1.4,0.2-1.9-0.4c-0.5-0.5-0.6-1.4-0.2-1.9c0.3-0.6,0.9-0.8,1.3-0.8
											C263.1,274.4,263.3,275,263.3,275z"/>
									</g>
								</g>
							</g>
							<g>
								<g>
									<g>
										<path class="st3" d="M264,280.9c0,0-0.1,0.1-0.2,0.3c-0.2,0.2-0.5,0.4-0.9,0.6c-0.8,0.4-2.4,0.9-4.1,0.1l0.2,0
											c-1.9,1.8-4.3,4.1-7.2,6.8l-0.1,0.1l-0.1,0c-0.7-0.2-1.4-0.4-2.2-0.5l-0.2-0.1l0-0.2c0-0.5,0.1-1,0.1-1.5l0-0.1l0.1-0.1
											c0.2-0.2,0.4-0.4,0.6-0.6l0.1-0.1l0.2,0c0.3,0.1,0.6,0.2,0.9,0.2l-0.4,0.3c0-0.3-0.1-0.6-0.1-1l0-0.2l0.1-0.1
											c0.3-0.3,0.7-0.6,1-1l0.1-0.1l0.2,0c0.5,0.1,1,0.3,1.5,0.4l-0.4,0.4c-0.1-0.5-0.1-1.1-0.2-1.6l0-0.2l0.1-0.1
											c0.1-0.1,0.2-0.2,0.3-0.3c0.3-0.3,0.6-0.6,0.9-0.8l0.1-0.1l0.2,0c0.5,0.1,1,0.3,1.5,0.4l-0.4,0.4
											c-0.1-0.5-0.1-1.1-0.2-1.6l0-0.2l0.1-0.1c0.3-0.3,0.7-0.6,1-0.9l-0.1,0.4c-0.8-1.4-0.8-3.2-0.2-4.5
											c0.6-1.4,1.8-2.4,3.1-2.8c1.3-0.4,2.7-0.2,3.7,0.3c1.1,0.5,1.8,1.4,2.3,2.3c0.9,1.8,0.4,3.6-0.1,4.5
											C264.5,280.6,264,280.9,264,280.9c0,0,0.4-0.4,0.9-1.3c0.4-0.9,0.8-2.5,0-4.2c-0.4-0.8-1.1-1.6-2.1-2
											c-1-0.5-2.2-0.6-3.4-0.2c-1.1,0.4-2.2,1.3-2.7,2.5c-0.5,1.2-0.5,2.8,0.2,4l0.1,0.2l-0.2,0.2c-0.3,0.3-0.6,0.6-1,0.9
											l0.1-0.3c0.1,0.5,0.2,1.1,0.2,1.6l0.1,0.5l-0.5-0.1c-0.5-0.1-1-0.3-1.5-0.4l0.3-0.1c-0.3,0.3-0.6,0.5-0.9,0.8
											c-0.1,0.1-0.2,0.2-0.3,0.3l0.1-0.3c0.1,0.5,0.2,1.1,0.2,1.6l0.1,0.5l-0.5-0.1c-0.5-0.1-1-0.3-1.5-0.4l0.3-0.1
											c-0.4,0.3-0.7,0.7-1,1l0.1-0.3c0.1,0.3,0.1,0.7,0.1,1l0.1,0.5l-0.5-0.1c-0.3-0.1-0.6-0.2-0.9-0.3l0.3-0.1
											c-0.2,0.2-0.4,0.4-0.6,0.6l0.1-0.2c0,0.5-0.1,1-0.1,1.5l-0.2-0.3c0.8,0.2,1.5,0.4,2.2,0.6l-0.3,0.1
											c2.9-2.6,5.4-4.9,7.3-6.7l0.1-0.1l0.1,0c1.6,0.7,3,0.4,3.9,0C263.6,281.2,263.9,280.8,264,280.9z"/>
									</g>
								</g>
							</g>
						</g>
					</g>
				</g>
			</g>
		</g>
	</g>
	<g>
		<g>
			<g>
				<g>
					<path class="st4" d="M260.6,296.2c0,0,0,0.3,0.1,0.8c0,0.6,0.1,1.3,0.1,2.3c0.1,2,0.2,4.8,0.3,8.3c0.1,3.5,0.1,7.7,0.1,12.4
						c0,2.3,0,4.8-0.1,7.3c0,1.3,0,2.6-0.3,3.9c-0.2,1.3-0.9,2.7-2,3.6c-1.2,0.9-2.6,1.2-3.9,1.4c-1.3,0.2-2.6,0.3-3.9,0.5
						c-2.5,0.3-5,0.5-7.3,0.6c-4.7,0.2-8.9,0.2-12.4,0.1c-3.5-0.1-6.4-0.3-8.3-0.5c-1-0.1-1.7-0.2-2.2-0.2c-0.5-0.1-0.8-0.1-0.8-0.1
						c0,0,0.3,0,0.8,0c0.6,0,1.3,0.1,2.3,0.1c2,0.1,4.8,0.3,8.3,0.3c3.5,0.1,7.7,0,12.3-0.3c2.3-0.1,4.8-0.3,7.3-0.6
						c1.2-0.1,2.5-0.3,3.8-0.5c1.3-0.2,2.6-0.5,3.6-1.2c1-0.7,1.6-1.9,1.8-3.2c0.2-1.2,0.2-2.5,0.3-3.8c0-2.5,0.1-5,0.1-7.3
						c0.1-4.6,0.1-8.8,0-12.4c0-3.5-0.1-6.3-0.1-8.3c0-0.9,0-1.7,0-2.3C260.5,296.5,260.5,296.2,260.6,296.2z"/>
				</g>
			</g>
		</g>
		<g>
			<g>
				<g>
					<path class="st4" d="M227.2,343.3c-0.1,0.1-1.1-0.6-2.8-1.6c-1.7-1-4.1-2.4-6.9-3.6l-0.4-0.2l0.4-0.3c0.2-0.2,0.4-0.4,0.6-0.6
						c2.5-2.2,4.7-4.1,6.4-5.5c1.6-1.4,2.7-2.2,2.8-2.1c0.1,0.1-0.9,1-2.5,2.5c-1.6,1.5-3.8,3.5-6.2,5.7c-0.2,0.2-0.4,0.4-0.6,0.6
						l-0.1-0.5c2.8,1.3,5.2,2.7,6.9,3.8C226.3,342.4,227.2,343.2,227.2,343.3z"/>
				</g>
			</g>
		</g>
	</g>
	<g>
		<g>
			<g>
				<g>
					<path class="st5" d="M203.3,68.3c0,0,1.2-0.4,3.4,0c2.1,0.4,5.4,1.6,7.9,4.8c1.2,1.6,2.2,3.6,2.5,6c0.1,1.2,0.1,2.4-0.1,3.6
						c-0.2,1.2-0.6,2.5-1.2,3.6c-1.1,2.4-3.1,4.5-5.6,6s-5.6,2.1-8.6,1.7c-3-0.3-5.9-1.6-8.1-3.4c-2.3-1.8-3.9-4.2-4.7-6.7
						c-0.9-2.5-1.1-5.1-0.6-7.4c0.5-2.3,1.6-4.3,3-5.7c1.4-1.4,3-2.4,4.5-2.9c1.5-0.5,2.9-0.7,4-0.7c1.1,0,1.9,0.2,2.5,0.4
						c0.6,0.2,0.8,0.3,0.8,0.3c0,0.1-1.1-0.5-3.3-0.5c-1.1,0-2.4,0.2-3.8,0.8c-1.4,0.6-2.9,1.5-4.3,2.9c-1.3,1.4-2.4,3.3-2.8,5.5
						c-0.4,2.2-0.2,4.7,0.6,7.1c0.9,2.4,2.4,4.7,4.6,6.4c2.1,1.7,4.9,2.9,7.8,3.2c2.9,0.3,5.8-0.2,8.2-1.6c2.4-1.4,4.2-3.4,5.3-5.7
						c0.6-1.1,1-2.3,1.2-3.5c0.2-1.2,0.3-2.4,0.2-3.5c-0.2-2.2-1.1-4.2-2.3-5.7c-2.4-3.1-5.4-4.4-7.5-4.8
						C204.5,68.1,203.3,68.4,203.3,68.3z"/>
				</g>
			</g>
		</g>
		<g>
			<g>
				<g>
					<path class="st5" d="M234.8,52.1c0,0,0,0.5-0.1,1.3c-0.1,0.8-0.4,2-1,3.4c-1.1,2.8-3.4,6.5-7.1,9.4c-3.7,2.8-8,4-11,4.2
						c-1.5,0.1-2.7,0.1-3.6,0c-0.8-0.1-1.3-0.2-1.3-0.2c0-0.1,1.9,0.1,4.8-0.2c2.9-0.4,7-1.6,10.6-4.3s5.9-6.3,7.1-9
						C234.5,53.9,234.7,52.1,234.8,52.1z"/>
				</g>
			</g>
		</g>
		<g>
			<g>
				<g>
					<path class="st5" d="M237.1,54.2c-0.1,0.1-1.2-1.3-2.4-3.2l0.5,0.1c-0.1,0.1-0.1,0.1-0.1,0.1c-1.6,1.7-3,2.9-3.1,2.8
						s1.1-1.6,2.7-3.2c0.1-0.1,0.1-0.1,0.1-0.1l0.3-0.3l0.2,0.3C236.4,52.6,237.2,54.1,237.1,54.2z"/>
				</g>
			</g>
		</g>
	</g>
	<g>
		<g>
			<rect x="246" y="23" transform="matrix(0.9914 -0.131 0.131 0.9914 -2.729 34.5257)" class="st2" width="30.1" height="30.1"/>
		</g>
	</g>
	<g>
		<g>
			
				<rect x="206.4" y="16.8" transform="matrix(0.14 -0.9902 0.9902 0.14 158.8882 246.7065)" class="st5" width="30.1" height="30.1"/>
		</g>
	</g>
	<g>
		<g>
			<g>
				<path class="st5" d="M246.2,37.2c0,0.2-2.3,0.4-5.2,0.5s-5.2,0-5.2-0.2c0-0.2,2.3-0.4,5.2-0.5C243.8,37,246.2,37,246.2,37.2z"/>
			</g>
		</g>
	</g>
	<g>
		<g>
			<g>
				<g>
					<g>
						<path class="st5" d="M108,70.8c0,0,0.3,0,0.8,0.2c0.5,0.2,1.3,0.5,2.1,1.1c1.7,1.1,3.9,3.5,4.6,7.2c0.4,1.8,0.2,3.9-0.5,6
							c-0.7,2.1-2.1,4.1-3.9,5.7c-1.8,1.7-4.1,3-6.7,3.6c-2.6,0.6-5.5,0.7-8.2-0.2c-2.7-0.9-5.1-2.7-6.5-5c-1.4-2.3-2-4.9-1.9-7.4
							c0.1-2.5,0.8-4.8,2-6.6c1.2-1.9,2.7-3.3,4.3-4.2c3.1-2,6.2-2.5,8.2-2.5c1,0,1.8,0.1,2.3,0.2s0.8,0.1,0.8,0.2
							c0,0.1-1.1-0.2-3.2-0.1c-2,0.1-5,0.6-8,2.6c-1.5,1-2.9,2.4-4.1,4.1c-1.1,1.8-1.8,4-1.8,6.4c0,2.4,0.5,4.9,1.9,7
							c1.3,2.2,3.5,3.9,6.1,4.7c2.6,0.8,5.3,0.8,7.8,0.2c2.5-0.6,4.7-1.9,6.5-3.4c1.8-1.6,3.1-3.5,3.8-5.5c0.7-2,0.9-4,0.5-5.7
							c-0.6-3.6-2.7-5.9-4.3-7.1C109.1,71.1,107.9,70.9,108,70.8z"/>
					</g>
				</g>
			</g>
			<g>
				<g>
					<g>
						<path class="st5" d="M154.3,40.3c0,0,0.1,0.2,0.1,0.6c0,0.4,0.1,1,0.1,1.8c0,1.6-0.1,3.9-0.6,6.7s-1.5,6.1-3.2,9.5
							c-1.6,3.4-4,6.9-7.1,10c-3.1,3.1-6.6,5.5-10,7.1c-3.4,1.7-6.7,2.6-9.5,3.2c-2.8,0.5-5.1,0.7-6.7,0.6c-0.8,0-1.4-0.1-1.8-0.1
							c-0.4,0-0.6-0.1-0.6-0.1c0-0.1,0.9,0,2.5-0.1c1.6-0.1,3.9-0.2,6.7-0.8c5.5-1.1,13.1-4.2,19.2-10.3c6.1-6.1,9.2-13.7,10.3-19.2
							c0.6-2.8,0.8-5.1,0.8-6.7C154.2,41.2,154.2,40.3,154.3,40.3z"/>
					</g>
				</g>
			</g>
		</g>
		<g>
			<g>
				<g>
					<path class="st5" d="M159.6,45.1c-0.1,0.1-2.4-2.7-5.1-6.4l0.5,0c-0.1,0.1-0.2,0.3-0.2,0.4c-2.4,4.1-4.4,7.4-4.6,7.3
						s1.6-3.5,4-7.6c0.1-0.1,0.2-0.3,0.2-0.4l0.2-0.4l0.3,0.4C157.7,42.1,159.7,45,159.6,45.1z"/>
				</g>
			</g>
		</g>
	</g>
</g>
<g id="Plant">
</g>
<g id="Floor">
</g>
</svg>
