<?xml version="1.0" encoding="utf-8"?>
<!-- Generator: Adobe Illustrator 24.3.0, SVG Export Plug-In . SVG Version: 6.00 Build 0)  -->
<svg version="1.1" id="f8190e5e-7eb0-4b3f-adbf-15a0d430e3a9"
	 xmlns="http://www.w3.org/2000/svg" xmlns:xlink="http://www.w3.org/1999/xlink" x="0px" y="0px" viewBox="0 0 619 540"
	 style="enable-background:new 0 0 619 540;" xml:space="preserve">
<style type="text/css">
	.st0{fill:#2F2E41;}
	.st1{fill:#F2005D;}
	.st2{opacity:0.4;fill:#FFFFFF;enable-background:new    ;}
	.st3{fill:#FFFFFF;}
	.st4{opacity:0.75;fill:#FFFFFF;enable-background:new    ;}
	.st5{opacity:0.4;}
	.st6{opacity:0.2;enable-background:new    ;}
	.st7{fill:none;stroke:#FFFFFF;stroke-width:0.25;stroke-miterlimit:10;}
	.st8{clip-path:url(#SVGID_2_);}
	.st9{fill:#F9B499;}
	.st10{fill:#F7A48B;}
</style>
<g id="eaf174e0-ebbb-4b42-a98f-45f9edbc98ad">
	<path class="st0" d="M563.4,342.8h-18.5c-0.4,0-0.7-0.3-0.7-0.7c0-0.4,0.3-0.7,0.7-0.7h18.5c0.4,0,0.7,0.3,0.7,0.7
		C564.1,342.4,563.8,342.7,563.4,342.8z"/>
	<path class="st0" d="M536.6,342.8H7.9c-0.4,0-0.7-0.3-0.7-0.7c0-0.4,0.3-0.7,0.7-0.7h528.7c0.4,0,0.7,0.3,0.7,0.7
		C537.3,342.4,537,342.7,536.6,342.8z"/>
</g>
<g id="e6f31740-1334-4c1a-b3b9-32a2fdb0f816">
	<path class="st0" d="M510.1,224.6h-11.8l-1.5-10.3c-4.9-1-9.5-2.9-13.6-5.7l-8.3,6.2l-8.3-8.4l6.3-8.3c-2.7-4.1-4.6-8.7-5.6-13.6
		l-10.3-1.5v-11.8l10.3-1.5c1-4.9,2.9-9.5,5.7-13.6l-6.2-8.3l8.3-8.4l8.3,6.3c4.1-2.7,8.7-4.7,13.6-5.6l1.5-10.3h11.8l1.5,10.3
		c4.9,1,9.5,2.9,13.6,5.7l8.3-6.2l8.3,8.4l-6.3,8.3c2.8,4.1,4.7,8.7,5.6,13.6l10.3,1.5v11.8l-10.3,1.5c-1,4.9-2.9,9.5-5.7,13.6
		l6.2,8.3l-8.3,8.4l-8.3-6.3c-4.1,2.7-8.7,4.7-13.6,5.6L510.1,224.6z M499.4,223.2h9.5l1.4-10.1l0.5-0.1c5-0.9,9.7-2.9,13.9-5.7
		l0.4-0.3l8.2,6.1l6.7-6.7l-6.1-8.1l0.3-0.4c2.9-4.2,4.9-9,5.8-14l0.1-0.5l10.2-1.5v-9.5l-10.1-1.4l-0.1-0.5c-0.9-5-2.8-9.8-5.7-14
		l-0.3-0.4l6.1-8.1l-6.7-6.7l-8.2,6.1l-0.4-0.3c-4.2-2.9-9-4.9-14-5.8l-0.5-0.1l-1.5-10.1h-9.5l-1.4,10.1l-0.5,0.1
		c-5,0.9-9.8,2.8-14,5.7l-0.4,0.3l-8.2-6.1l-6.7,6.7l6.1,8.1l-0.3,0.4c-2.9,4.2-4.9,8.9-5.8,13.9l-0.1,0.5l-10.1,1.4v9.5l10.1,1.4
		l0.1,0.5c0.9,5,2.9,9.8,5.8,14l0.3,0.4l-6.1,8.1l6.7,6.7l8.2-6.1l0.4,0.3c4.2,2.9,8.9,4.9,14,5.8l0.5,0.1L499.4,223.2z
		 M504.3,203.6c-14.6,0-26.5-11.8-26.5-26.5c0-14.6,11.8-26.5,26.5-26.5s26.5,11.8,26.5,26.5c0,0,0,0,0,0
		C530.7,191.8,518.9,203.6,504.3,203.6L504.3,203.6z M504.3,152.1c-13.9,0-25.1,11.2-25.1,25.1c0,13.9,11.2,25.1,25.1,25.1
		c13.9,0,25.1-11.2,25.1-25.1v0l0,0C529.3,163.3,518.1,152.1,504.3,152.1L504.3,152.1z"/>
	<path class="st0" d="M551.3,276.2h-8.8l-1.1-7.4c-3.4-0.7-6.6-2.1-9.5-4l-6,4.5l-6.2-6.2l4.5-6c-1.9-2.9-3.3-6.1-3.9-9.5l-7.3-1
		v-8.8l7.4-1.1c0.7-3.4,2.1-6.6,4-9.5l-4.5-6l6.2-6.2l6,4.5c2.9-1.9,6.1-3.2,9.5-3.9l1-7.4h8.8l1.1,7.4c3.4,0.7,6.6,2.1,9.5,4l6-4.5
		l6.2,6.2l-4.5,6c1.9,2.9,3.3,6.1,3.9,9.5l7.4,1.1v8.8l-7.4,1.1c-0.7,3.4-2.1,6.6-4,9.5l4.5,6l-6.1,6.2l-6-4.5
		c-2.9,1.9-6.1,3.2-9.5,3.9L551.3,276.2z M543.7,274.9h6.4l1-7.2l0.5-0.1c3.6-0.6,6.9-2,9.9-4.1l0.4-0.3l5.8,4.4l4.5-4.5l-4.3-5.8
		l0.3-0.4c2.1-3,3.5-6.3,4.2-9.9l0.1-0.5l7.2-1v-6.4l-7.2-1l-0.1-0.5c-0.6-3.6-2-6.9-4.1-9.9l-0.3-0.4l4.4-5.8l-4.5-4.7l-5.8,4.3
		l-0.4-0.3c-3-2.1-6.3-3.5-9.9-4.1l-0.5-0.1l-1-7.2h-6.5l-1,7.2l-0.5,0.1c-3.6,0.6-6.9,2-9.9,4.1l-0.4,0.3l-5.8-4.3l-4.5,4.5
		l4.3,5.8l-0.3,0.4c-2.1,3-3.5,6.3-4.1,9.9l-0.1,0.5l-7.2,1v6.4l7.2,1l0.1,0.5c0.6,3.6,2,6.9,4.1,9.9l0.3,0.4l-4.4,5.8l4.5,4.5
		l5.8-4.4l0.4,0.3c3,2,6.4,3.4,9.9,4.1l0.5,0.1L543.7,274.9z M547,261.3c-10.6,0-19.1-8.6-19.1-19.1c0-10.6,8.6-19.1,19.1-19.1
		c10.6,0,19.1,8.6,19.1,19.1S557.6,261.3,547,261.3C547,261.3,547,261.3,547,261.3L547,261.3z M547,224.4c-9.8,0-17.8,7.9-17.8,17.8
		s7.9,17.8,17.8,17.8s17.8-7.9,17.8-17.8C564.8,232.4,556.8,224.4,547,224.4C547,224.4,547,224.4,547,224.4L547,224.4z"/>
	<path class="st0" d="M91,289H80.1l-1.4-9.4c-4.4-0.9-8.6-2.6-12.3-5.2l-7.6,5.7l-7.7-7.7l5.7-7.6c-2.5-3.8-4.2-8-5.1-12.4l-9.4-1.4
		v-10.9l9.4-1.4c0.9-4.4,2.7-8.6,5.2-12.3l-5.7-7.6l7.7-7.7l7.6,5.7c3.8-2.5,8-4.2,12.4-5.1l1.4-9.4h10.9l1.4,9.4
		c4.4,0.9,8.6,2.7,12.3,5.2l7.6-5.7l7.7,7.7l-5.7,7.6c2.5,3.7,4.2,8,5.1,12.4l9.4,1.4v10.9l-9.5,1.4c-0.9,4.4-2.6,8.6-5.1,12.4
		l5.7,7.6l-7.7,7.7l-7.6-5.7c-3.7,2.5-8,4.2-12.4,5.1L91,289z M81.3,287.7h8.6l1.4-9.2l0.5-0.1c4.6-0.8,8.9-2.6,12.7-5.2l0.4-0.3
		l7.5,5.6l6-6l-5.6-7.4l0.3-0.4c2.6-3.8,4.5-8.2,5.3-12.7l0.1-0.5l9.2-1.4v-8.5l-9.2-1.4l-0.1-0.5c-0.8-4.6-2.6-8.9-5.2-12.7
		l-0.3-0.4l5.6-7.5l-6-6l-7.5,5.5l-0.4-0.3c-3.8-2.6-8.1-4.4-12.7-5.3l-0.5-0.1l-1.4-9.2h-8.6l-1.4,9.2l-0.5,0.1
		c-4.6,0.8-8.9,2.6-12.7,5.2l-0.4,0.3L59,213l-6,6l5.6,7.4l-0.3,0.4c-2.6,3.8-4.5,8.1-5.3,12.7l-0.1,0.5l-9.2,1.4v8.5l9.2,1.4
		l0.1,0.5c0.8,4.6,2.6,8.9,5.2,12.7l0.3,0.4l-5.6,7.5l6,6l7.4-5.6l0.4,0.3c3.8,2.7,8.2,4.5,12.7,5.3l0.5,0.1L81.3,287.7z M85.7,270
		c-13.4,0-24.2-10.8-24.2-24.2c0-13.4,10.8-24.2,24.2-24.2c13.4,0,24.2,10.8,24.2,24.2c0,0,0,0,0,0l0,0
		C109.8,259.1,99,269.9,85.7,270L85.7,270z M85.7,223c-12.6,0-22.9,10.2-22.9,22.8c0,12.6,10.2,22.9,22.8,22.9s22.9-10.2,22.9-22.8
		c0,0,0,0,0,0l0,0C108.5,233.3,98.3,223,85.7,223C85.7,223,85.7,223,85.7,223L85.7,223L85.7,223z"/>
	<path class="st0" d="M287.3,120.5H278l-1.1-7.9c-3.7-0.7-7.1-2.2-10.2-4.3l-6.4,4.8l-6.6-6.6l4.8-6.4c-2.1-3.1-3.5-6.6-4.2-10.2
		l-7.9-1.1v-9.3l7.9-1.2c0.7-3.7,2.2-7.1,4.3-10.2l-4.8-6.4l6.6-6.5l6.4,4.8c3.1-2.1,6.6-3.5,10.3-4.2l1.1-7.9h9.3l1.1,7.9
		c3.7,0.7,7.1,2.2,10.2,4.3l6.4-4.9l6.6,6.6l-4.8,6.4c2.1,3.1,3.5,6.6,4.2,10.3l7.9,1.1v9.3l-7.9,1.1c-0.7,3.7-2.2,7.1-4.3,10.2
		l4.8,6.4l-6.6,6.6l-6.4-4.8c-3.1,2.1-6.6,3.5-10.3,4.2L287.3,120.5z M279.1,119.2h6.9l1.1-7.7l0.5-0.1c3.8-0.7,7.4-2.2,10.6-4.4
		l0.4-0.3l6.2,4.7l5-4.9l-4.6-6.2l0.3-0.4c2.2-3.2,3.8-6.8,4.5-10.6l0.1-0.5l7.7-1.1v-7l-7.8-1.1l-0.1-0.5
		c-0.7-3.8-2.2-7.4-4.4-10.6l-0.3-0.4l4.6-6.1L305,57l-6.2,4.7l-0.4-0.3c-3.2-2.2-6.8-3.7-10.6-4.4l-0.5-0.1l-1.1-7.7h-6.9l-1.1,7.7
		l-0.5,0.1c-3.8,0.7-7.5,2.2-10.7,4.4l-0.4,0.3l-6.2-4.7l-4.8,4.9l4.6,6.2l-0.3,0.4c-2.2,3.2-3.7,6.8-4.4,10.6l-0.1,0.5l-7.7,1.1v7
		l7.7,1.1l0.1,0.5c0.7,3.8,2.2,7.4,4.4,10.6l0.3,0.4l-4.7,6.2l4.9,4.9l6.2-4.7l0.4,0.3c3.2,2.2,6.8,3.7,10.6,4.4l0.5,0.1
		L279.1,119.2z M282.7,104.5c-11.3,0-20.4-9.1-20.4-20.4s9.1-20.4,20.4-20.4c11.3,0,20.4,9.1,20.4,20.4l0,0
		C303.1,95.4,294,104.5,282.7,104.5L282.7,104.5z M282.7,65.2c-10.5,0-19,8.5-19,19s8.5,19,19,19s19-8.5,19-19l0,0
		C301.7,73.7,293.2,65.2,282.7,65.2L282.7,65.2z"/>
</g>
<polygon class="st1" points="493.8,426.6 304.3,426.6 302.5,424.8 301.5,423.8 240.8,423.8 240.1,424.8 238.7,427.2 48.3,427.2 
	124.5,342.1 417.2,342.1 "/>
<polygon class="st2" points="493.8,426.6 304.3,426.6 302.5,424.8 301.5,423.8 240.8,423.8 240.1,424.8 238.7,427.2 48.3,427.2 
	124.5,342.1 417.2,342.1 "/>
<path class="st0" d="M48.3,427.1v5.4c0,2,1.6,3.6,3.5,3.6c0,0,0,0,0,0h436.9c2.8,0,5-2.2,5.1-5v-4.5H304.3l-2.9-2.9h-60.7l-2.1,3.4
	L48.3,427.1z"/>
<path class="st0" d="M129.2,149.9h283.6c2.6,0,4.7,2.1,4.7,4.7c0,0,0,0,0,0v187.5l0,0h-293l0,0V154.7
	C124.6,152.1,126.6,150,129.2,149.9z"/>
<path class="st3" d="M131.1,161.1h279.7c0.6,0,1.1,0.5,1.1,1.1v172.3c0,0.6-0.5,1.1-1.1,1.1H131.1c-0.6,0-1.1-0.5-1.1-1.1V162.3
	C130,161.7,130.5,161.1,131.1,161.1z"/>
<path class="st1" d="M394.2,169.7v152.5c0,1.5-1.2,2.8-2.8,2.8c0,0,0,0,0,0H150.6c-1.5,0-2.8-1.2-2.8-2.8c0,0,0,0,0,0V169.7
	c0-1.5,1.2-2.8,2.8-2.8h240.8C393,167,394.2,168.2,394.2,169.7z"/>
<path class="st2" d="M394.2,169.7v6.7H147.8v-6.7c0-1.5,1.2-2.8,2.8-2.8h240.8C393,167,394.2,168.2,394.2,169.7z"/>
<circle class="st1" cx="151.9" cy="171.3" r="1.6"/>
<circle class="st0" cx="158.3" cy="171.3" r="1.6"/>
<circle class="st3" cx="164.2" cy="171.3" r="1.6"/>
<path class="st2" d="M168.9,187h5.5c0.2,0,0.3,0.1,0.3,0.3v5.5c0,0.2-0.1,0.3-0.3,0.3h-5.5c-0.2,0-0.3-0.1-0.3-0.3v-5.5
	C168.6,187.1,168.8,187,168.9,187z"/>
<path class="st4" d="M178.6,187h8.2c0.2,0,0.3,0.1,0.3,0.3v5.5c0,0.2-0.1,0.3-0.3,0.3h-8.2c-0.2,0-0.3-0.1-0.3-0.3v-5.5
	C178.3,187.1,178.5,187,178.6,187z"/>
<path class="st3" d="M168.9,222.2h5.5c0.2,0,0.3,0.1,0.3,0.3v5.5c0,0.2-0.1,0.3-0.3,0.3h-5.5c-0.2,0-0.3-0.1-0.3-0.3v-5.5
	C168.6,222.3,168.8,222.2,168.9,222.2z"/>
<path class="st0" d="M178.6,222.2h8.2c0.2,0,0.3,0.1,0.3,0.3v5.5c0,0.2-0.1,0.3-0.3,0.3h-8.2c-0.2,0-0.3-0.1-0.3-0.3v-5.5
	C178.3,222.3,178.5,222.2,178.6,222.2z"/>
<path class="st2" d="M168.9,233.8h5.5c0.2,0,0.3,0.1,0.3,0.3v5.5c0,0.2-0.1,0.3-0.3,0.3h-5.5c-0.2,0-0.3-0.1-0.3-0.3v-5.5
	C168.6,234,168.8,233.8,168.9,233.8z"/>
<path class="st3" d="M189.8,233.8h11.7c0.2,0,0.3,0.1,0.3,0.3v5.5c0,0.2-0.1,0.3-0.3,0.3h-11.7c-0.2,0-0.3-0.1-0.3-0.3v-5.5
	C189.6,234,189.7,233.8,189.8,233.8z"/>
<path class="st3" d="M168.9,246h5.5c0.2,0,0.3,0.1,0.3,0.3v5.5c0,0.2-0.1,0.3-0.3,0.3h-5.5c-0.2,0-0.3-0.1-0.3-0.3v-5.5
	C168.6,246.1,168.8,246,168.9,246z"/>
<path class="st4" d="M183,246h11.7c0.2,0,0.3,0.1,0.3,0.3v5.5c0,0.2-0.1,0.3-0.3,0.3H183c-0.2,0-0.3-0.1-0.3-0.3v-5.5
	C182.7,246.1,182.8,246,183,246z"/>
<g class="st5">
	<path class="st3" d="M168.9,293h5.5c0.2,0,0.3,0.1,0.3,0.3v5.5c0,0.2-0.1,0.3-0.3,0.3h-5.5c-0.2,0-0.3-0.1-0.3-0.3v-5.5
		C168.6,293.1,168.8,293,168.9,293z"/>
	<path class="st3" d="M183,293h11.7c0.2,0,0.3,0.1,0.3,0.3v5.5c0,0.2-0.1,0.3-0.3,0.3H183c-0.2,0-0.3-0.1-0.3-0.3v-5.5
		C182.7,293.1,182.8,293,183,293z"/>
</g>
<g class="st5">
	<path class="st3" d="M168.9,304.7h5.5c0.2,0,0.3,0.1,0.3,0.3v5.5c0,0.2-0.1,0.3-0.3,0.3h-5.5c-0.2,0-0.3-0.1-0.3-0.3V305
		C168.6,304.8,168.8,304.7,168.9,304.7z"/>
	<path class="st3" d="M183,304.7h11.7c0.2,0,0.3,0.1,0.3,0.3v5.5c0,0.2-0.1,0.3-0.3,0.3H183c-0.2,0-0.3-0.1-0.3-0.3V305
		C182.7,304.8,182.8,304.7,183,304.7z"/>
</g>
<path class="st3" d="M168.9,317h5.5c0.2,0,0.3,0.1,0.3,0.3v5.5c0,0.2-0.1,0.3-0.3,0.3h-5.5c-0.2,0-0.3-0.1-0.3-0.3v-5.5
	C168.6,317.2,168.8,317,168.9,317z"/>
<path class="st0" d="M178.6,317h8.3c0.2,0,0.3,0.1,0.3,0.3v5.5c0,0.2-0.1,0.3-0.3,0.3h-8.3c-0.2,0-0.3-0.1-0.3-0.3v-5.5
	C178.3,317.2,178.4,317,178.6,317z"/>
<path class="st2" d="M168.9,257.5h5.5c0.2,0,0.3,0.1,0.3,0.3v5.5c0,0.2-0.1,0.3-0.3,0.3h-5.5c-0.2,0-0.3-0.1-0.3-0.3v-5.5
	C168.6,257.6,168.8,257.5,168.9,257.5z"/>
<path class="st3" d="M183,257.5h11.7c0.2,0,0.3,0.1,0.3,0.3v5.5c0,0.2-0.1,0.3-0.3,0.3H183c-0.2,0-0.3-0.1-0.3-0.3v-5.5
	C182.7,257.6,182.8,257.5,183,257.5z"/>
<path class="st4" d="M198,257.5h35.9c0.2,0,0.3,0.1,0.3,0.3v5.5c0,0.2-0.1,0.3-0.3,0.3H198c-0.2,0-0.3-0.1-0.3-0.3v-5.5
	C197.7,257.6,197.8,257.5,198,257.5z"/>
<path class="st0" d="M237.5,257.5h35.9c0.2,0,0.3,0.1,0.3,0.3v5.5c0,0.2-0.1,0.3-0.3,0.3h-35.9c-0.2,0-0.3-0.1-0.3-0.3v-5.5
	C237.2,257.6,237.3,257.5,237.5,257.5z"/>
<path class="st4" d="M277,257.5h18.6c0.2,0,0.3,0.1,0.3,0.3v5.5c0,0.2-0.1,0.3-0.3,0.3H277c-0.2,0-0.3-0.1-0.3-0.3v-5.5
	C276.7,257.6,276.8,257.5,277,257.5z"/>
<g class="st5">
	<path class="st3" d="M168.9,269.6h5.5c0.2,0,0.3,0.1,0.3,0.3v5.5c0,0.2-0.1,0.3-0.3,0.3h-5.5c-0.2,0-0.3-0.1-0.3-0.3v-5.5
		C168.6,269.7,168.8,269.6,168.9,269.6z"/>
	<path class="st3" d="M183,269.6h11.7c0.2,0,0.3,0.1,0.3,0.3v5.5c0,0.2-0.1,0.3-0.3,0.3H183c-0.2,0-0.3-0.1-0.3-0.3v-5.5
		C182.7,269.7,182.8,269.6,183,269.6z"/>
	<path class="st3" d="M198,269.6h35.9c0.2,0,0.3,0.1,0.3,0.3v5.5c0,0.2-0.1,0.3-0.3,0.3H198c-0.2,0-0.3-0.1-0.3-0.3v-5.5
		C197.7,269.7,197.8,269.6,198,269.6z"/>
	<path class="st3" d="M237.5,269.6h35.9c0.2,0,0.3,0.1,0.3,0.3v5.5c0,0.2-0.1,0.3-0.3,0.3h-35.9c-0.2,0-0.3-0.1-0.3-0.3v-5.5
		C237.2,269.7,237.3,269.6,237.5,269.6z"/>
	<path class="st3" d="M277,269.6h18.6c0.2,0,0.3,0.1,0.3,0.3v5.5c0,0.2-0.1,0.3-0.3,0.3H277c-0.2,0-0.3-0.1-0.3-0.3v-5.5
		C276.7,269.7,276.8,269.6,277,269.6z"/>
</g>
<path class="st3" d="M168.9,280.9h5.5c0.2,0,0.3,0.1,0.3,0.3v5.5c0,0.2-0.1,0.3-0.3,0.3h-5.5c-0.2,0-0.3-0.1-0.3-0.3v-5.5
	C168.6,281,168.8,280.9,168.9,280.9z"/>
<path class="st4" d="M183,280.9h11.7c0.2,0,0.3,0.1,0.3,0.3v5.5c0,0.2-0.1,0.3-0.3,0.3H183c-0.2,0-0.3-0.1-0.3-0.3v-5.5
	C182.7,281,182.8,280.9,183,280.9z"/>
<path class="st0" d="M198,280.9h35.9c0.2,0,0.3,0.1,0.3,0.3v5.5c0,0.2-0.1,0.3-0.3,0.3H198c-0.2,0-0.3-0.1-0.3-0.3v-5.5
	C197.7,281,197.8,280.9,198,280.9z"/>
<path class="st3" d="M237.5,280.9h35.9c0.2,0,0.3,0.1,0.3,0.3v5.5c0,0.2-0.1,0.3-0.3,0.3h-35.9c-0.2,0-0.3-0.1-0.3-0.3v-5.5
	C237.2,281,237.3,280.9,237.5,280.9z"/>
<path class="st0" d="M277,280.9h18.6c0.2,0,0.3,0.1,0.3,0.3v5.5c0,0.2-0.1,0.3-0.3,0.3H277c-0.2,0-0.3-0.1-0.3-0.3v-5.5
	C276.7,281,276.8,280.9,277,280.9z"/>
<path class="st0" d="M189.7,187h69.5c0.2,0,0.3,0.1,0.3,0.3v5.5c0,0.2-0.1,0.3-0.3,0.3h-69.5c-0.2,0-0.3-0.1-0.3-0.3v-5.5
	C189.4,187.1,189.5,187,189.7,187z"/>
<path class="st2" d="M168.9,198.5h5.5c0.2,0,0.3,0.1,0.3,0.3v5.5c0,0.2-0.1,0.3-0.3,0.3h-5.5c-0.2,0-0.3-0.1-0.3-0.3v-5.5
	C168.6,198.6,168.8,198.5,168.9,198.5z"/>
<path class="st4" d="M184.1,198.5H195c0.2,0,0.3,0.1,0.3,0.3v5.5c0,0.2-0.1,0.3-0.3,0.3h-10.8c-0.2,0-0.3-0.1-0.3-0.3v-5.5
	C183.9,198.6,184,198.5,184.1,198.5z"/>
<path class="st4" d="M279.7,198.5h15.9c0.2,0,0.3,0.1,0.3,0.3v5.5c0,0.2-0.1,0.3-0.3,0.3h-15.9c-0.2,0-0.3-0.1-0.3-0.3v-5.5
	C279.4,198.6,279.6,198.5,279.7,198.5z"/>
<path class="st0" d="M299.2,198.5h39.5c0.2,0,0.3,0.1,0.3,0.3v5.5c0,0.2-0.1,0.3-0.3,0.3h-39.5c-0.2,0-0.3-0.1-0.3-0.3v-5.5
	C298.9,198.6,299,198.5,299.2,198.5z"/>
<path class="st3" d="M198,198.5h78.5c0.2,0,0.3,0.1,0.3,0.3v5.5c0,0.2-0.1,0.3-0.3,0.3H198c-0.2,0-0.3-0.1-0.3-0.3v-5.5
	C197.7,198.6,197.8,198.5,198,198.5z"/>
<path class="st2" d="M168.9,210.6h5.5c0.2,0,0.3,0.1,0.3,0.3v5.5c0,0.2-0.1,0.3-0.3,0.3h-5.5c-0.2,0-0.3-0.1-0.3-0.3v-5.5
	C168.6,210.7,168.8,210.6,168.9,210.6z"/>
<path class="st4" d="M184.1,210.6H195c0.2,0,0.3,0.1,0.3,0.3v5.5c0,0.2-0.1,0.3-0.3,0.3h-10.8c-0.2,0-0.3-0.1-0.3-0.3v-5.5
	C183.9,210.7,184,210.6,184.1,210.6z"/>
<path class="st4" d="M279.7,210.6h15.9c0.2,0,0.3,0.1,0.3,0.3v5.5c0,0.2-0.1,0.3-0.3,0.3h-15.9c-0.2,0-0.3-0.1-0.3-0.3v-5.5
	C279.4,210.7,279.6,210.6,279.7,210.6z"/>
<path class="st3" d="M299.2,210.6h39.5c0.2,0,0.3,0.1,0.3,0.3v5.5c0,0.2-0.1,0.3-0.3,0.3h-39.5c-0.2,0-0.3-0.1-0.3-0.3v-5.5
	C298.9,210.7,299,210.6,299.2,210.6z"/>
<path class="st0" d="M198,210.6h78.5c0.2,0,0.3,0.1,0.3,0.3v5.5c0,0.2-0.1,0.3-0.3,0.3H198c-0.2,0-0.3-0.1-0.3-0.3v-5.5
	C197.7,210.7,197.8,210.6,198,210.6z"/>
<circle class="st6" cx="271.1" cy="156.1" r="2.9"/>
<path class="st1" d="M555.6,319.2v90.1c0,2.3-1.8,4.1-4.1,4.1h-53.6c-2.3,0-4.1-1.8-4.1-4.1c0,0,0,0,0,0v-90.1h0.5
	c2.5,1.5,15.2,2.6,30.4,2.6s27.8-1.1,30.4-2.6H555.6z"/>
<path class="st6" d="M555.6,330.6v78.7c0,2.3-1.8,4.1-4.1,4.1h-53.6c-2.3,0-4.1-1.8-4.1-4.1c0,0,0,0,0,0v-3.7
	c8.7,1.2,38.1,3.6,50.9-17.2c1-1.7,1.9-3.5,2.6-5.4C550,376,555.6,358.4,555.6,330.6z"/>
<path class="st1" d="M556.4,330.6c-0.3,0-0.6,0-0.8,0v11.5c0.3,0,0.6,0,0.8,0c10.3,0,18.7,8.7,18.7,19.5s-8.4,19.5-18.7,19.5
	c-0.3,0-0.5,0-0.8,0v11.4c0.3,0,0.5,0,0.8,0c16.4,0,29.6-13.9,29.6-31S572.8,330.6,556.4,330.6z"/>
<path class="st2" d="M555.6,330.7v11.5c0,0,5.4-0.1,8.4,1.7v-12.1C561.2,331,558.4,330.6,555.6,330.7z"/>
<path class="st2" d="M555.6,381.1v11.5c0,0,5.4,0.1,8.6-1.1l-0.7-11.9C561,380.7,558.3,381.2,555.6,381.1z"/>
<rect x="508.6" y="321.4" class="st3" width="2.2" height="31.3"/>
<path class="st2" d="M348.1,424.8h-45.7l-1-1h-60.7l-0.6,1h-46.8c-0.7,0-1.3-0.6-1.3-1.4c0-0.2,0-0.3,0.1-0.4l11.4-30.1L339,393
	l10.3,30c0.3,0.7-0.1,1.4-0.7,1.7C348.5,424.7,348.3,424.8,348.1,424.8z"/>
<path class="st0" d="M501.9,365.1v-9c0-0.9,0.4-1.7,1.1-2.3l6.2-5.1c0.3-0.3,0.8-0.3,1.1,0l6.8,5.4c0.7,0.6,1.1,1.4,1.1,2.4v8.7
	c0,0.7-0.5,1.2-1.2,1.2l0,0h-14C502.4,366.3,501.9,365.8,501.9,365.1L501.9,365.1z"/>
<line class="st7" x1="203.3" y1="352.9" x2="339.5" y2="352.9"/>
<line class="st7" x1="218.9" y1="359.8" x2="323.8" y2="359.8"/>
<line class="st7" x1="224.9" y1="366.2" x2="317.8" y2="366.2"/>
<line class="st7" x1="191.3" y1="374.7" x2="351.4" y2="374.7"/>
<line class="st7" x1="221.8" y1="383.8" x2="321.1" y2="383.8"/>
<line class="st7" x1="194.3" y1="382.5" x2="199.6" y2="367.2"/>
<line class="st7" x1="220.2" y1="352.9" x2="214.1" y2="374.8"/>
<line class="st7" x1="226.7" y1="359.8" x2="225.8" y2="366.2"/>
<line class="st7" x1="234.6" y1="352.9" x2="233.4" y2="359.8"/>
<line class="st7" x1="232.1" y1="366.2" x2="230.5" y2="374.7"/>
<line class="st7" x1="247.2" y1="374.7" x2="248" y2="366.2"/>
<line class="st7" x1="241.9" y1="359.8" x2="241.1" y2="366.2"/>
<line class="st7" x1="249.7" y1="352.9" x2="249.4" y2="359.8"/>
<line class="st7" x1="265.1" y1="353.2" x2="264.8" y2="360.1"/>
<line class="st7" x1="257.5" y1="359.8" x2="257.5" y2="366.2"/>
<line class="st7" x1="273.2" y1="359.8" x2="273.2" y2="366.2"/>
<line class="st7" x1="264.1" y1="366.2" x2="264.1" y2="374.7"/>
<line class="st7" x1="281.1" y1="366.2" x2="281.1" y2="374.7"/>
<line class="st7" x1="297" y1="366.2" x2="297" y2="374.7"/>
<line class="st7" x1="312.3" y1="366.3" x2="313.8" y2="383.8"/>
<line class="st7" x1="329.5" y1="366.6" x2="332" y2="383.8"/>
<line class="st7" x1="345.3" y1="366.4" x2="349.4" y2="383.8"/>
<line class="st7" x1="289.4" y1="366.2" x2="288.9" y2="359.8"/>
<line class="st7" x1="304.7" y1="359.8" x2="305.7" y2="366.2"/>
<line class="st7" x1="280.2" y1="352.9" x2="280.2" y2="359.8"/>
<line class="st7" x1="295.2" y1="352.9" x2="295.2" y2="359.8"/>
<line class="st7" x1="310.5" y1="352.9" x2="310.5" y2="359.8"/>
<line class="st7" x1="325.3" y1="352.9" x2="325.3" y2="359.8"/>
<path class="st1" d="M555.6,318.6c0,0.2-0.2,0.4-0.5,0.5c-2.5,1.5-15.2,2.6-30.4,2.6s-27.9-1.1-30.4-2.6c-0.3-0.2-0.5-0.4-0.5-0.5
	c0-1.7,13.8-3.1,30.9-3.1S555.6,316.9,555.6,318.6z"/>
<ellipse class="st3" cx="523.7" cy="319.3" rx="27.3" ry="2.5"/>
<path class="st0" d="M419.7,21.8c-42.9,0-77.7,34.8-77.7,77.7c0,21.2,8.7,41.5,24,56.1l-11.1,20.6l27.2-8.8
	c37.5,20.8,84.8,7.2,105.6-30.4c20.8-37.5,7.2-84.8-30.4-105.6C445.8,25.1,432.8,21.8,419.7,21.8z"/>
<path class="st3" d="M416,16.2c-42.9,0-77.7,34.8-77.7,77.7c0,21.2,8.7,41.5,24,56.1l-11,20.6l27.2-8.8
	c37.5,20.8,84.8,7.2,105.6-30.3s7.2-84.8-30.3-105.6C442.1,19.6,429.2,16.2,416,16.2z"/>
<path class="st0" d="M416,172.3c-13.2,0-26.1-3.3-37.7-9.7l-26.8,8.7c-0.3,0.1-0.6,0-0.7-0.2c-0.2-0.2-0.2-0.5-0.1-0.8l10.9-20.2
	c-31.1-30.1-31.8-79.7-1.7-110.8s79.7-31.8,110.8-1.7c31.1,30.1,31.8,79.7,1.7,110.8C457.6,163.7,437.3,172.3,416,172.3L416,172.3z
	 M378.4,161.2c0.1,0,0.2,0,0.3,0.1c37.3,20.7,84.2,7.2,104.9-30s7.2-84.2-30-104.9s-84.2-7.2-104.9,30c-17,30.7-11.2,68.9,14.1,93.2
	c0.2,0.2,0.3,0.5,0.1,0.8l-10.2,19.1l25.5-8.3L378.4,161.2z"/>
<path class="st1" d="M390,125.9l-29.9-21.1V93.7L390,72.4v11.3l-21.4,15.6l21.4,15.5V125.9z"/>
<path class="st1" d="M399.1,129.7l22.8-84.6h9.7l-22.9,84.6L399.1,129.7z"/>
<path class="st1" d="M440.6,125.9v-11.2l21.5-15.6l-21.5-15.4V72.4l30,21.2v11.2L440.6,125.9z"/>
<path class="st0" d="M393.7,121.3l-29.9-21.1V89.1l29.9-21.3V79l-21.4,15.6l21.4,15.5V121.3z"/>
<path class="st0" d="M402.8,125.1l22.8-84.5h9.7l-22.9,84.5H402.8z"/>
<path class="st0" d="M444.3,121.3v-11.2l21.5-15.6L444.3,79V67.8l30,21.2v11.2L444.3,121.3z"/>
<g>
	<defs>
		<path id="SVGID_1_" d="M600.2,255.6c-6.7,56.8-32.6,122.8-84.4,153.1c-78.2,45.8-71.7,116.3-224.4,147c-22.3,4.6-45,6.7-67.7,6.4
			c-11.1-0.2-22.2-1.1-33.2-2.7c-97-14.2-162.3-81.6-186.3-163c-31.5-107.2,31.4-177.2,73.2-219.5S149.6,3,299.5-28.3
			c22.9-4.9,46.2-7.1,69.6-6.6c53.3,1.4,111.5,18.8,151.7,55.4c3,2.7,6,5.6,8.8,8.5C585.6,86.4,609.3,178.2,600.2,255.6z"/>
	</defs>
	<clipPath id="SVGID_2_">
		<use xlink:href="#SVGID_1_"  style="overflow:visible;"/>
	</clipPath>
	<g class="st8">
		<path class="st1" d="M158.2,415.3c0.2,1.6-0.5,3.3-1.8,4.2c-6.7,5.1-29.1,27.7-52.7,113.8H-4.7c21.9-64,90.5-134.2,103.1-146.8
			c1.3-1.3,3.1-2.1,4.9-2.2c6.1-0.3,20.6-0.3,33.2,4.7C147.2,393.3,156.5,401.1,158.2,415.3z"/>
		<path class="st9" d="M226.7,390.6c0,12.3-21.5,9.4-21.5,9.4c-9.2-0.4-14.9,2.4-14.9,2.4c-13.8,4.4-33.3,7.1-33.3,7.1
			c0,0,0-0.1,0-0.1c-1.4-4.1-3.6-7.9-6.5-11.1c-0.2-0.2-0.3-0.4-0.5-0.5c-14.1-14.7-40.1-13.5-40.1-13.5l28.3-21.2
			c0,0,1.6-0.5,3.8-5.3c0,0,3.4-8.7,7.8-8.7h7.8c0,0,7.1-13.2,12.8-9.6c1.7,1.1,3.3,2.4,4.7,3.9c0,0,10.9-11.2,19.6-3
			c0,0,7.1,8.7,8.7,12.5c3-0.3,6.1,0.4,8.8,1.9c4.6,2.8,8.8,6.3,12.4,10.4c0.3,0.3,0.4,0.6,0.5,1c0.3,0.7,0.1,1.6-0.4,2.2
			c-4.9,6.2-13.4-1.9-13.4-1.9c-5.3,1.1-13.6,0.7-13.6,0.7c-3.5,7.5-13.4,12.5-13.4,12.5c11,4.8,18.6,2.6,18.6,2.6
			c17.7-3.2,22.3,3.5,23.5,6.8l0,0C226.5,389.5,226.7,390,226.7,390.6z"/>
		<path class="st10" d="M178.7,353.2l21.9-0.8c0,0-5.4-9.6-11-8.6C189.6,343.8,184.1,344.9,178.7,353.2z"/>
		<path class="st10" d="M224.6,368.4c-4.9,6.2-13.4-1.9-13.4-1.9c-5.3,1.1-13.6,0.7-13.6,0.7c-3.5,7.5-13.4,12.5-13.4,12.5
			c-2.1-0.7-4-1.8-5.5-3.4c0,0,16.3-3.6,17.4-11.8c0,0,11.2,2,14.6-2.5c0,0,2.2,7.5,8.2,6.1c2.1-0.3,4.1-0.9,6-1.8l0,0
			C225.2,366.9,225.1,367.7,224.6,368.4z"/>
		<path class="st10" d="M226.7,390.6c0,12.3-21.5,9.4-21.5,9.4c-9.2-0.4-14.9,2.4-14.9,2.4c-13.8,4.4-33.3,7.1-33.3,7.1
			c0,0,0-0.1,0-0.1c-1.3-4.1-3.5-7.9-6.5-11.1c-0.2-0.2-0.3-0.4-0.5-0.5c0.8-0.5,1.5-1,2.2-1.7c0.6-0.6,1.4-0.7,2.1-0.3
			c2.8,1.6,11,4.9,27.5,1.7c1.1-0.2,2.2-0.6,3.3-1c2.9-1.1,6-1.6,9.1-1.5c0,0,14.1,0.6,19.2-5c0.5-0.5,1.2-0.6,1.8-0.2
			c2.1,1.4,7.1,3.7,11.1-0.8l0,0C226.5,389.5,226.7,390,226.7,390.6z"/>
		<path class="st10" d="M155.3,350.7c0.2,1-0.1,2.1-0.6,2.9c-0.5,0.8-1.1,1.6-1.8,2.3c-1.4,1.3-3.1,2.2-5,2.7c0.5-0.8,1-1.6,1.7-2.3
			c0.6-0.7,1.2-1.3,1.9-1.9c0.6-0.6,1.3-1.2,2-1.7C154.1,352,154.8,351.4,155.3,350.7z"/>
		<path class="st10" d="M163,351.7c2.4-3.3,6-5.7,10-6.6C170.6,348.5,167,350.8,163,351.7L163,351.7z"/>
		<path class="st6" d="M158.2,415.3c0.2,1.6-0.5,3.3-1.8,4.2c-6.7,5.1-29.1,27.7-52.7,113.8H58.9c0,0,39.9-26.1,71-92.7
			c0,0,10.9-21.4,6.6-51.5C147.2,393.3,156.5,401.1,158.2,415.3z"/>
		<path class="st1" d="M384.5,415.3c-0.2,1.6,0.5,3.3,1.8,4.2c6.7,5.1,29.1,27.7,52.7,113.8h108.4c-21.9-64-90.5-134.2-103.1-146.8
			c-1.3-1.3-3.1-2.1-4.9-2.2c-6.1-0.3-20.6-0.3-33.2,4.7C395.5,393.3,386.2,401.1,384.5,415.3z"/>
		<path class="st9" d="M385.2,349.1h7.8c4.3,0,7.8,8.7,7.8,8.7c2.2,4.8,3.8,5.3,3.8,5.3l28.3,21.2c0,0-26-1.2-40.1,13.5
			c-0.2,0.2-0.3,0.3-0.5,0.5c-2.9,3.2-5.2,7-6.5,11.1c0,0,0,0.1,0,0.1c0,0-19.5-2.7-33.3-7.1c0,0-5.7-2.8-14.9-2.4
			c0,0-21.5,2.9-21.5-9.4c0.1-0.5,0.2-1.1,0.4-1.6l0,0c1.2-3.2,5.8-10,23.5-6.8c0,0,7.7,2.2,18.6-2.6c0,0-9.9-5-13.4-12.5
			c0,0-8.3,0.4-13.6-0.7c0,0-8.5,8.1-13.4,1.9c-0.5-0.6-0.6-1.4-0.4-2.2c0.1-0.4,0.3-0.7,0.5-1c3.6-4.1,7.7-7.6,12.4-10.4
			c2.7-1.5,5.7-2.2,8.8-1.9c0,0,6.9-15.2,28.3-9.5C367.8,343.4,375.5,339.7,385.2,349.1z"/>
		<path class="st10" d="M364,353.2l-21.9-0.8c0,0,5.4-6.5,11-5.4C353.1,347,359.4,346.7,364,353.2z"/>
		<path class="st10" d="M318.1,368.4c4.9,6.2,13.4-1.9,13.4-1.9c5.3,1.1,13.6,0.7,13.6,0.7c3.5,7.5,13.4,12.5,13.4,12.5
			c2.1-0.7,4-1.8,5.5-3.4c0,0-16.3-3.6-17.4-11.8c0,0-11.2,2-14.6-2.5c0,0-2.2,7.5-8.2,6.1c-2.1-0.3-4.1-1-5.9-1.8l0,0
			C317.5,366.9,317.7,367.7,318.1,368.4z"/>
		<path class="st10" d="M316,390.6c0,12.3,21.5,9.4,21.5,9.4c9.2-0.4,14.9,2.4,14.9,2.4c13.8,4.4,33.3,7.1,33.3,7.1c0,0,0-0.1,0-0.1
			c1.3-4.1,3.5-7.9,6.5-11.1c0.2-0.2,0.3-0.4,0.5-0.5c-0.8-0.5-1.5-1-2.2-1.7c-0.6-0.6-1.4-0.7-2.1-0.3c-2.8,1.6-11,4.9-27.5,1.7
			c-1.1-0.2-2.2-0.6-3.3-1c-2.9-1.1-6-1.6-9.1-1.5c0,0-14.1,0.6-19.2-5c-0.5-0.5-1.2-0.6-1.8-0.2c-2.1,1.4-7.1,3.7-11.1-0.8l0,0
			C316.2,389.5,316.1,390,316,390.6z"/>
		<path class="st10" d="M387.4,350.7c0.6,0.7,1.3,1.3,2,1.9c0.7,0.6,1.3,1.1,2,1.7c0.7,0.6,1.3,1.3,1.9,1.9c0.6,0.7,1.2,1.5,1.7,2.3
			c-1.9-0.4-3.6-1.3-5-2.7c-0.7-0.7-1.4-1.4-1.9-2.3C387.4,352.8,387.2,351.7,387.4,350.7z"/>
		<path class="st10" d="M379.7,351.7c-4-0.9-7.6-3.3-10-6.6C373.7,346,377.3,348.4,379.7,351.7z"/>
		<path class="st6" d="M384.5,415.3c-0.2,1.6,0.5,3.3,1.8,4.2c6.7,5.1,29.1,27.7,52.7,113.8h44.8c0,0-39.9-26.1-71-92.7
			c0,0-10.9-21.4-6.6-51.5C395.5,393.3,386.2,401.1,384.5,415.3z"/>
	</g>
</g>
</svg>
