<?xml version="1.0" encoding="utf-8"?>
<!-- Generator: Adobe Illustrator 24.3.0, SVG Export Plug-In . SVG Version: 6.00 Build 0)  -->
<svg version="1.1" id="Capa_1" xmlns="http://www.w3.org/2000/svg" xmlns:xlink="http://www.w3.org/1999/xlink" x="0px" y="0px"
	 viewBox="0 0 855.8 633" style="enable-background:new 0 0 855.8 633;" xml:space="preserve">
<style type="text/css">
	.st0{opacity:0.4;fill:#F2005D;enable-background:new    ;}
	.st1{fill-rule:evenodd;clip-rule:evenodd;fill:#FFFFFF;}
	.st2{fill:#FFFFFF;}
	.st3{opacity:0.4;fill-rule:evenodd;clip-rule:evenodd;fill:#F2005D;enable-background:new    ;}
	.st4{fill:none;stroke:#F4F4F4;stroke-linecap:round;stroke-miterlimit:10;}
	.st5{fill:#A05830;}
	.st6{fill:none;stroke:#3F4347;stroke-linecap:round;stroke-miterlimit:10;}
	.st7{fill:#EDA89F;}
	.st8{fill:#F9B499;}
	.st9{fill:#F7A48B;}
	.st10{fill-rule:evenodd;clip-rule:evenodd;fill:#5D6166;}
	.st11{fill:none;stroke:#2E3135;stroke-width:10;stroke-miterlimit:10;}
	.st12{fill:#2E3135;}
	.st13{fill:#3F4347;}
	.st14{fill:#5D6166;}
	.st15{fill:#858789;}
	.st16{fill:#F2005D;}
	.st17{opacity:0.2;enable-background:new    ;}
	.st18{fill:#2F2E41;}
	.st19{fill:#C2C4C6;}
	.st20{opacity:0.2;}
	.st21{fill:#9B604E;}
	.st22{fill:none;stroke:#E1E1E2;stroke-miterlimit:10;}
	.st23{opacity:0.3;fill:#FFFFFF;enable-background:new    ;}
	.st24{fill:none;stroke:#F4F4F4;stroke-width:2;stroke-linecap:round;stroke-miterlimit:10;}
	.st25{fill:#E1E1E2;}
	.st26{fill:#9EA0A3;}
	.st27{fill:#F4F4F4;}
	.st28{fill:none;stroke:#C2C4C6;stroke-width:0.5;stroke-miterlimit:10;}
	.st29{fill:none;stroke:#9EA0A3;stroke-miterlimit:10;}
	.st30{fill:#ECA79E;}
	.st31{fill:none;stroke:#6200A8;stroke-miterlimit:10;}
	.st32{fill:none;stroke:#FFFFFF;stroke-width:2;stroke-miterlimit:10;}
	.st33{fill:none;stroke:#FFFFFF;stroke-miterlimit:10;}
	.st34{fill-rule:evenodd;clip-rule:evenodd;fill:#9EA0A3;}
	.st35{fill-rule:evenodd;clip-rule:evenodd;fill:#C2C4C6;}
</style>
<path class="st0" d="M343.2,215.1h-82.1c-3.8,0-6.9-3.1-6.9-6.9v-84.8c0-3.8,3.1-6.9,6.9-6.9h82.1c3.8,0,6.9,3.1,6.9,6.9
	c0,0,0,0,0,0v84.7C350.2,212,347.1,215.1,343.2,215.1C343.3,215.1,343.3,215.1,343.2,215.1"/>
<polygon class="st1" points="281.6,131.9 340,131.9 340,135.3 281.6,135.3 281.6,131.9 "/>
<path class="st2" d="M275.8,133.6c0,3.1-2.5,5.7-5.7,5.7c-3.1,0-5.7-2.5-5.7-5.7c0-3.1,2.5-5.7,5.7-5.7c0,0,0,0,0,0
	C273.3,128,275.8,130.5,275.8,133.6"/>
<polygon class="st1" points="281.6,153.4 340,153.4 340,156.8 281.6,156.8 281.6,153.4 "/>
<path class="st2" d="M275.8,155.1c0,3.1-2.5,5.7-5.7,5.7c-3.1,0-5.7-2.5-5.7-5.7c0-3.1,2.5-5.7,5.7-5.7
	C273.3,149.4,275.8,152,275.8,155.1C275.8,155.1,275.8,155.1,275.8,155.1"/>
<polygon class="st1" points="281.6,174.9 340,174.9 340,178.2 281.6,178.2 281.6,174.9 "/>
<path class="st2" d="M275.8,176.5c0,3.1-2.5,5.7-5.7,5.7c-3.1,0-5.7-2.5-5.7-5.7c0-3.1,2.5-5.7,5.7-5.7c0,0,0,0,0,0
	C273.3,170.9,275.8,173.4,275.8,176.5"/>
<polygon class="st1" points="281.6,196.3 340,196.3 340,199.7 281.6,199.7 281.6,196.3 "/>
<path class="st2" d="M275.8,198c0,3.1-2.5,5.7-5.7,5.7c-3.1,0-5.7-2.5-5.7-5.7c0-3.1,2.5-5.7,5.7-5.7c0,0,0,0,0,0
	C273.3,192.3,275.8,194.9,275.8,198"/>
<path class="st0" d="M618.3,248H363.1V129.6c0-7.2,5.8-13,13-13h229.2c7.2,0,13,5.8,13,13L618.3,248L618.3,248z"/>
<polygon class="st3" points="381.5,160.8 601.1,160.8 601.1,206 381.5,206 381.5,160.8 "/>
<polygon class="st3" points="381.5,216.2 601.1,216.2 601.1,248 381.5,248 381.5,216.2 "/>
<polygon class="st1" points="416.8,130.6 470,130.6 470,137.3 416.8,137.3 416.8,130.6 "/>
<polygon class="st3" points="416.8,142.1 447.7,142.1 447.7,147 416.8,147 416.8,142.1 "/>
<path class="st2" d="M407.7,138.9c0,7.2-5.9,13.1-13.1,13.1c-7.2,0-13.1-5.9-13.1-13.1s5.9-13.1,13.1-13.1c7.2,0,13,5.7,13.1,12.9
	C407.7,138.8,407.7,138.8,407.7,138.9"/>
<path class="st0" d="M400.5,137.3c0,3.3-2.6,5.9-5.9,5.9c-3.3,0-5.9-2.6-5.9-5.9c0-3.3,2.6-5.9,5.9-5.9c0,0,0,0,0,0
	C397.8,131.4,400.5,134,400.5,137.3"/>
<path class="st0" d="M403.3,148.7c-5,4.4-12.5,4.4-17.4,0c2.3-4.8,8.1-6.8,12.9-4.5C400.7,145.1,402.3,146.7,403.3,148.7"/>
<path class="st2" d="M583.4,139.2c0,1.2-1,2.3-2.3,2.3s-2.3-1-2.3-2.3c0-1.2,1-2.3,2.3-2.3S583.4,138,583.4,139.2L583.4,139.2"/>
<path class="st2" d="M591.4,139.2c0,1.2-1,2.3-2.3,2.3s-2.3-1-2.3-2.3c0-1.2,1-2.3,2.3-2.3S591.4,138,591.4,139.2L591.4,139.2"/>
<path class="st2" d="M599.5,139.2c0,1.2-1,2.3-2.3,2.3s-2.3-1-2.3-2.3c0-1.2,1-2.3,2.3-2.3S599.5,138,599.5,139.2L599.5,139.2"/>
<line class="st4" x1="328.3" y1="264.1" x2="325.6" y2="262.6"/>
<path class="st5" d="M331.4,265.4c0,0.3-0.3,0.6-0.6,0.6s-0.6-0.3-0.6-0.6s0.3-0.6,0.6-0.6h0C331.1,264.8,331.4,265.1,331.4,265.4"
	/>
<line class="st6" x1="239" y1="325.6" x2="289" y2="325.6"/>
<polygon class="st7" points="205.6,317.5 206.1,334.2 201.5,334.2 205.6,317.5 "/>
<path class="st8" d="M274.6,213.1c0,0,0.5,8.6-5,12.3c0,0-9.7,0.1-10.8-4.3s0.4-13,0.4-13S272.6,209.8,274.6,213.1"/>
<path class="st8" d="M251.1,240.3l5.4-18c0,0,1.6-2.2,7.1-1.1c5.5,1.1,5.9,4.2,5.9,4.2l-2.1,17.2L251.1,240.3L251.1,240.3z"/>
<path class="st8" d="M256.5,222.3c0,0-3.1-4.6-3.7-7.9c-0.6-2.9-0.2-5.9,0.9-8.5c1-2.5,11.2-2.4,12.5-0.8s0.2,3.6-1.7,4.5
	c-1.8,0.6-3.7,0.9-5.7,0.9c0,0,3.9,1.5,4.2,3.4s-1,8.4-1,8.4H256.5z"/>
<path class="st8" d="M256.8,205.3c0,0,2.8-16.2,3.5-18.8s2.4-2.2,3.1-2s1.5,1.8,1.2,3.7s-1.1,12.8-1.1,12.8s13.2,1.9,13,6
	c-0.2,4-0.4,7-4.1,7.5c-1.2,0.2-9.3-0.6-9.3-0.6S254.8,214.3,256.8,205.3"/>
<path class="st9" d="M260.9,222.1l-0.4-0.3c1.1-1.8,1.7-3.8,1.8-5.9c-0.2-2-1.2-3.9-2.8-5.1c-0.1,0-0.2-0.1-0.2-0.2
	c0-0.3,0-0.4,3.1-1.1c2-0.4,3.5-2.1,3.8-4.2c0-0.3-0.1-0.7-0.5-0.8c-1.5-0.3-8.7,0-8.8,0V204c0.3,0,7.3-0.3,8.9,0
	c0.6,0.1,0.9,0.7,0.9,1.2c-0.2,2.3-1.9,4.2-4.2,4.7c-1.4,0.3-2.1,0.5-2.5,0.6c1.6,1.3,2.6,3.2,2.7,5.3
	C262.8,218.1,262.1,220.3,260.9,222.1z"/>
<path class="st9" d="M272.2,214.1L272.2,214.1c-3,0-10.4-0.9-10.5-0.9c-0.1,0-0.3-0.1-0.3-0.2c0-0.1,0.1-0.3,0.2-0.3
	c0,0,0.1,0,0.1,0c0.1,0,7.5,0.9,10.5,0.9l0,0c2.6,0,2.9-1.2,2.9-1.2c0-0.1,0.2-0.2,0.3-0.2c0.1,0,0.2,0.2,0.2,0.3
	C275.6,212.5,275.3,214.1,272.2,214.1z"/>
<polygon class="st10" points="184.1,436.5 167.4,436.5 167.4,521.8 184.1,521.8 184.1,436.5 "/>
<path class="st11" d="M119.8,533.1c0-6.2,7.2-11.2,16.1-11.2h72.6c8.9,0,16.1,5,16.1,11.2"/>
<path class="st12" d="M93.8,255.4h57.8l21.7,144.9h-60.8c-6.9-0.2-12.7-5.3-13.8-12L81,270.5C79.8,262.2,85.5,255.4,93.8,255.4"/>
<path class="st13" d="M104.9,255.4h69.1c8.1,0,15,6,16.2,14l17.6,117.8c0.9,6.2-3.3,12-9.6,12.9c-0.6,0.1-1.1,0.1-1.7,0.1h-73.1
	c-6.9-0.2-12.7-5.3-13.8-12L92.1,270.5C90.8,262.2,96.6,255.4,104.9,255.4"/>
<path class="st14" d="M112.3,400.3h112.1c1.3,0,2.3,1,2.3,2.3c0,0,0,0,0,0v14.8c0,1.3-1,2.3-2.3,2.3c0,0,0,0,0,0h-94.9
	c-9.5,0-17.1-7.7-17.1-17.1C112.3,402.6,112.3,400.3,112.3,400.3z"/>
<path class="st13" d="M148.4,436.5h54.7c3.4,0,6.2-2.8,6.2-6.2v-10.6h-67.1v10.6C142.2,433.7,145,436.5,148.4,436.5"/>
<path class="st14" d="M213.1,533.1c0,6.6,5.4,12,12,12s12-5.4,12-12s-5.4-12-12-12S213.1,526.5,213.1,533.1"/>
<path class="st15" d="M218.7,533.1c0,3.5,2.8,6.3,6.3,6.3s6.3-2.8,6.3-6.3c0-3.5-2.8-6.3-6.3-6.3
	C221.6,526.8,218.8,529.6,218.7,533.1C218.7,533.1,218.7,533.1,218.7,533.1"/>
<polygon class="st12" points="184.1,436.5 167.4,436.5 167.4,447.2 184.1,441.5 184.1,436.5 "/>
<path class="st9" d="M217.2,301.8c1.3,1,2.6,2.1,3.7,3.3c1,1.4,0.8,3.5-1.2,3.9s-5.3-1.4-6.9-2.5c-1.1-0.8-2.1-1.8-2.8-2.9
	L217.2,301.8L217.2,301.8z"/>
<path class="st16" d="M206,232.8c6.6-2.7,6-3.6,9,0.1s22.9,40.9,22.9,40.9l11.9-34.9l19.2,2.9c0,0-13.8,72.9-17.7,76
	s-12.9,5.4-17.5,0s-33.4-49.4-37.8-57.5S199.2,235.5,206,232.8"/>
<path class="st16" d="M206,232.8c6.6-2.7,6-3.6,9,0.1s22.9,40.9,22.9,40.9l11.9-34.9l19.2,2.9c0,0-13.8,72.9-17.7,76
	s-12.9,5.4-17.5,0s-33.4-49.4-37.8-57.5S199.2,235.5,206,232.8"/>
<path class="st17" d="M206,232.8c6.6-2.7,6-3.6,9,0.1s22.9,40.9,22.9,40.9l11.9-34.9l19.2,2.9c0,0-13.8,72.9-17.7,76
	s-12.9,5.4-17.5,0s-33.4-49.4-37.8-57.5S199.2,235.5,206,232.8"/>
<path class="st18" d="M203.9,340.1c0,0,59.9,14.6,65.9,17.7c6.1,3.2,10.8,8.6,13.3,15c2.6,6.6,37.7,146.8,37.7,146.8l-18.9,8.4
	l-50.5-122.6c0,0-86-14.9-101.6-31.8s1.9-55.9,1.9-55.9l46.2,6.3L203.9,340.1L203.9,340.1z"/>
<path class="st17" d="M203.9,340.1c0,0,59.9,14.6,65.9,17.7c6.1,3.2,10.8,8.6,13.3,15c2.6,6.6,37.7,146.8,37.7,146.8l-18.9,8.4
	l-50.5-122.6c0,0-86-14.9-101.6-31.8s1.9-55.9,1.9-55.9l46.2,6.3L203.9,340.1L203.9,340.1z"/>
<path class="st18" d="M131.9,315.2c0,0-6.1,21.5-10.4,33s-7.5,43.3,19.3,52.1h84.1l-30.3,123.8h20.3c0,0,46.1-109.8,48.6-130
	c0.6-4.8,5.5-20.2-14.7-28.5c-21.3-8.7-65.9-21.5-65.9-21.5l2.4-21.9L131.9,315.2L131.9,315.2z"/>
<path class="st19" d="M129,325.1c0,0,3.6,3.8,21.3,7.9c11,2.5,22.3,3.1,33.6,2l1.4-12.8l-52.5-9.7L129,325.1z"/>
<g class="st20">
	<path d="M204,527.6l-1-0.3c0.3-0.8,28.5-83.6,37.6-117.4c2.4-8.7,0.1-13.7-7-15.9c-1.5-0.5-7.3-1.5-15.2-3
		c-18.4-3.4-49.2-9.2-67.9-14.9c-5.4-1.7-10.3-7.4-9-16.5c1.8-12.8,12.1-37.1,12.2-37.4l0.9,0.4c-0.1,0.2-10.3,24.5-12.1,37.1
		c-1.2,8.5,3.3,13.9,8.3,15.4c18.6,5.7,49.4,11.4,67.7,14.9c8,1.5,13.8,2.6,15.3,3c7.6,2.3,10.1,7.9,7.6,17.1
		C232.5,443.9,204.2,526.7,204,527.6z"/>
</g>
<path class="st16" d="M163.9,216.9c0,0-28.8,7-35.1,11.5s5.2,19.9,9.4,38.5s-6.3,48.2-6.3,48.2s9.8,8.6,34.5,8.9s32.6-0.2,32.6-0.2
	s1.2-17.4,4.6-25.8s8.8-17,10.6-27.2c1.2-7.1-0.6-12.5-1.7-23.2c-1-9.8,3.8-10.4,2.5-14.8s-22.3-10.1-22.3-10.1L163.9,216.9
	L163.9,216.9z"/>
<g class="st20">
	<path class="st2" d="M183.3,235.2c-4.2,0-8.4-1-12.1-3c-6.9-3.9-11.6-13.6-11.8-14c-0.1-0.2,0-0.5,0.2-0.7c0,0,0,0,0,0
		c0.2-0.1,0.5,0,0.7,0.2c0.1,0.1,4.8,9.8,11.4,13.5s17.5,4.3,21.5-0.6c3-3.7,1.9-6.7,1.9-6.9c-0.1-0.3,0-0.5,0.3-0.6c0,0,0,0,0,0
		c0.3-0.1,0.5,0,0.6,0.3c0.1,0.1,1.4,3.6-2.1,7.8C191.8,234,187.7,235.2,183.3,235.2z"/>
</g>
<path class="st8" d="M168.9,195.8c0,0,0.1,15-5,21.1c0,0,4.9,14.8,21,13.8c8.4-0.5,7.8-6.1,7.8-6.1s-0.5-3.6,1.3-14.4L168.9,195.8
	L168.9,195.8z"/>
<path class="st9" d="M168.3,196l0.4,6.8c3.1,7.3,10.4,18.6,19.7,17.2c4.8-0.8,5.7-9.8,5.7-9.8L168.3,196z"/>
<path class="st13" d="M281.7,312.5h-84c-1.9,0-3.5,1.5-3.5,3.5v3.6h87.4L281.7,312.5L281.7,312.5z"/>
<path class="st14" d="M296.6,240.6h-3.9c-0.7,0-1.4,0.5-1.5,1.2l-16.6,77.8h7.1l16.5-77.1c0.2-0.8-0.4-1.7-1.2-1.9
	C296.9,240.6,296.7,240.6,296.6,240.6"/>
<path class="st18" d="M175.3,139.1c0,0-1.4-11.4-11.4-10.1c-7.6,0.9-7.4,7.2-7.4,7.2s-8.1-7.3-16.2,0.4c-6.4,6.1,0.1,13.9,0.1,13.9
	s-8.9,0.3-9.9,8.5c-1,8.8,7.9,11.2,7.9,11.2s-5,4.5-0.3,11.4s11.2,3.2,11.2,3.2S178.8,152.7,175.3,139.1"/>
<path class="st18" d="M196.6,159.8c0,0,2.8,0.2,3.5,4.4c0.4,2.5-2,4.9-2,4.9S195.6,164.5,196.6,159.8"/>
<path class="st8" d="M160.1,176c-1.5-8.4,6.1-17.2,20.4-19.9c11-2.1,16,3.4,16.5,6.1c0,0,1.7,11.3,2.5,13.7s2.8,11.2,2.5,16.8
	s-4.6,15.1-6.1,16.4s-6.4,3.1-10.4,2.6s-13.6-5.6-14.8-7.1C169,202.5,161.6,184.5,160.1,176"/>
<path class="st18" d="M162.6,187c1.3-1,1.7-2.8,1.1-4.4c-0.6-1.7-1.4-3.2-2.5-4.7c0,0,2.5-1.1,2.6-5s-0.5-2.2-0.5-2.2
	s3.9-0.3,5.9-2.6s2.9-6.1,2.9-6.1s3.5,1.7,9.1,0.1s7.1-4.7,7.1-4.7s6,5.6,8.8,4.7s1.4-5.6,1.1-7.4s-2.8-11.1-16.8-12.6
	s-28.5,5.1-33.2,17.1s-2.8,28.5,14.6,39.7l6.2,5.7c0,0,0.8-0.5,0.5-2.5c-0.2-1.2-0.7-2.3-1.5-3.3L162.6,187L162.6,187z"/>
<path class="st16" d="M162.9,199.3c0,0-18.3-20-4.5-41c9.3-14.1,21.3-15.1,29-14.8c-6.2-3-13.3-3.4-19.9-1.4
	c-13.3,4.1-21.4,15.6-21.6,31.9c0,4.3,2.1,11.9,7.3,17.8C156,194.9,159.2,197.4,162.9,199.3"/>
<path class="st8" d="M167.8,199c-1.5,0-3-0.4-4.4-1c-0.4-0.2-0.8-0.4-1.1-0.6c-1.4-0.9-2.3-2.3-2.6-3.9c-1.1-4.8,3.5-7,3.5-7l4,10.7
	c-0.3-0.2-0.7-0.3-1-0.4l-0.2,1c0.7,0.2,1.3,0.5,1.9,0.9l0,0L167.8,199L167.8,199z"/>
<path class="st21" d="M167.7,198.8c-0.6-0.4-1.2-0.8-1.9-0.9l0.2-1c0.3,0.1,0.7,0.2,1,0.4L167.7,198.8L167.7,198.8z"/>
<path class="st22" d="M188.4,184.7c-1-4.2-4.4-6.9-7.7-6.2s-5.2,4.8-4.3,8.9s4.4,6.9,7.7,6.2S189.3,188.9,188.4,184.7L188.4,184.7z
	 M202.8,181.4c-0.9-4.2-4.1-7-7-6.4s-4.4,4.6-3.5,8.7s4.1,7,7,6.4S203.7,185.6,202.8,181.4L202.8,181.4z M192.3,183.8l-3.9,0.9"/>
<path class="st16" d="M171.5,203c0.9,4.2-1,8.2-4.3,8.9s-6.8-2-7.7-6.2c-0.8-3.5,0.4-6.9,2.8-8.3c0.3,0.2,0.7,0.4,1.1,0.6
	c-2.4,1-3.6,4.2-2.9,7.5c0.8,3.6,3.7,6,6.5,5.4s4.3-4.1,3.5-7.7c-0.4-1.7-1.3-3.3-2.7-4.4l0,0c-0.6-0.4-1.2-0.8-1.9-0.9l0.2-1
	c0.3,0.1,0.7,0.2,1,0.4C169.4,198.4,171,200.5,171.5,203"/>
<path class="st23" d="M171.5,203c0.9,4.2-1,8.2-4.3,8.9s-6.8-2-7.7-6.2c-0.8-3.5,0.4-6.9,2.8-8.3c0.3,0.2,0.7,0.4,1.1,0.6
	c-2.4,1-3.6,4.2-2.9,7.5c0.8,3.6,3.7,6,6.5,5.4s4.3-4.1,3.5-7.7c-0.4-1.7-1.3-3.3-2.7-4.4l0,0c-0.6-0.4-1.2-0.8-1.9-0.9l0.2-1
	c0.3,0.1,0.7,0.2,1,0.4C169.4,198.4,171,200.5,171.5,203"/>
<path class="st16" d="M134.1,226.5c-7.3,0.9-10.7,6.2-11.2,21.1s5.4,58.9,6.3,63.9s3.8,7.3,10,7.3c6.2,0,55-8.2,55-8.2v-16.8
	l-40.6-0.7c0,0-4.4-31.3-6.7-46S141.1,225.6,134.1,226.5"/>
<path class="st8" d="M194.2,295.5l14.9-2.1c1.2,2.2,1.9,4.7,2,7.3c-0.1,2.3-1.3,4.5-3.2,5.8l-13.9,3.1L194.2,295.5L194.2,295.5z"/>
<path class="st16" d="M140.3,319.4c-0.7,0-1.5,0-2.2-0.1l0.1-1c8.9,1.2,55.4-8.1,55.9-8.2l0.2,1
	C192.5,311.4,152.8,319.4,140.3,319.4z M194.2,294.3l-41-0.7l-5.6-38.8l1-0.1l5.5,38l40.1,0.7L194.2,294.3z"/>
<g class="st20">
	<path d="M140.3,319.4c-0.7,0-1.5,0-2.2-0.1l0.1-1c8.9,1.2,55.4-8.1,55.9-8.2l0.2,1C192.5,311.4,152.8,319.4,140.3,319.4z
		 M194.2,294.3l-41-0.7l-5.6-38.8l1-0.1l5.5,38l40.1,0.7L194.2,294.3z"/>
</g>
<path class="st9" d="M219.2,303.3c0,0,8.3,1.6,10,2.2s4.6,3.8,6,4.9c1.7,1.3,3.7,2,5.8,2.1c2.3,0-0.6-3.9-0.6-3.9s-0.2-7.9-1.7-9.3
	s-13.4-5.3-13.4-5.3l-4.7,7L219.2,303.3L219.2,303.3z"/>
<path class="st8" d="M208,306.5c-3.3,0,0.6-10.7,1.1-13.1c0,0,10.8,0.1,13.5-0.1c3.4-0.4,14,6.9,15.3,8.4c2.1,2.4,3.7,5.2,4.6,8.2
	c0.3,1,1.3,2.7-1.5,2.7s-7.3-7.4-8.2-8.2s-7.8-2.6-9.5-2.7S218.2,306.6,208,306.5"/>
<g class="st20">
	<rect x="229.7" y="279.8" transform="matrix(0.2324 -0.9726 0.9726 0.2324 -91.1561 445.0515)" width="13.4" height="1"/>
</g>
<path class="st16" d="M210.9,519.7l0.8-2.5c1.1-3.7,5-5.7,8.7-4.6c0.8,0.2,1.5,0.6,2.2,1.1l-3.5,11.2L210.9,519.7z"/>
<path class="st17" d="M210.9,519.7l0.8-2.5c1.1-3.7,5-5.7,8.7-4.6c0.8,0.2,1.5,0.6,2.2,1.1l-3.5,11.2L210.9,519.7z"/>
<path class="st16" d="M194,519.8c0,0-0.1,8.2-0.7,13.1s-1.7,14.5-1.6,17.7h71.1c0,0,1.7-5.8-4.6-8.5c-4.2-1.8-12.1-1.2-24.2-7.2
	s-13.3-14.8-15.6-15S194,519.8,194,519.8"/>
<path class="st24" d="M217,528.4l5.2-3.8 M220.8,533.1l4.6-4.5 M225.7,536.8l3.8-4.7"/>
<path class="st17" d="M209.1,533.1c0,3.1-2.5,5.5-5.5,5.5c-3.1,0-5.5-2.5-5.5-5.5c0-3.1,2.5-5.5,5.5-5.5c0,0,0,0,0,0
	C206.6,527.6,209.1,530.1,209.1,533.1C209.1,533.1,209.1,533.1,209.1,533.1"/>
<path class="st25" d="M250.8,540.3v9.7h12c1.2-2.3,0.8-5.1-1.1-7C258.6,539.4,250.9,540.3,250.8,540.3"/>
<path class="st19" d="M262,550h-70.3c-0.8,0-1.5,0.7-1.5,1.5v2.8c0,0.8,0.7,1.5,1.5,1.5H262c0.8,0,1.5-0.6,1.5-1.5c0,0,0,0,0,0v-2.8
	C263.4,550.6,262.8,550,262,550"/>
<path class="st16" d="M313,515.3v-2.7c0-3.8,3.2-6.9,7-6.9c0.8,0,1.7,0.2,2.4,0.5l-0.2,11.8L313,515.3L313,515.3z"/>
<path class="st17" d="M313,515.3v-2.7c0-3.8,3.2-6.9,7-6.9c0.8,0,1.7,0.2,2.4,0.5l-0.2,11.8L313,515.3L313,515.3z"/>
<path class="st16" d="M296.7,520.2c0,0,2.2,7.9,3,12.8s2.5,14.4,3.5,17.4l44.1-13.1l24.1-7.1c0,0,0-6.1-6.8-6.9
	c-4.5-0.5-11.9,2.3-25.2,0s-17-10.4-19.2-10S296.7,520.2,296.7,520.2"/>
<path class="st24" d="M321.3,521.9l3.9-5.1 M326.3,525.4l3.2-5.6 M332,527.5l2.3-5.6"/>
<path class="st17" d="M315,528.7c0.9,2.9-0.8,6-3.7,6.9s-6-0.8-6.9-3.7s0.8-6,3.7-6.9c0,0,0,0,0,0
	C311.1,524.1,314.2,525.8,315,528.7"/>
<path class="st25" d="M357,523.7l2.8,9.3l11.5-3.4c0.5-2.6-0.7-5.2-3-6.4C364.2,520.6,357.1,523.7,357,523.7"/>
<path class="st19" d="M370.5,529.8l-67.4,20c-0.8,0.2-1.2,1.1-1,1.8c0,0,0,0,0,0l0.8,2.7c0.2,0.8,1.1,1.2,1.8,1l67.4-20
	c0.8-0.2,1.2-1.1,1-1.8l-0.8-2.7C372.1,530,371.3,529.6,370.5,529.8C370.5,529.8,370.5,529.8,370.5,529.8"/>
<polygon class="st9" points="251.4,239.1 268,237.7 267.6,241.5 251.4,239.1 "/>
<polygon class="st9" points="194.2,295.5 194.2,309.6 199.1,308.5 194.2,295.5 "/>
<polygon class="st26" points="151.5,556.1 166.4,556.1 216.8,356.4 201.9,356.4 151.5,556.1 "/>
<polygon class="st14" points="200,364 214.9,364 216.8,356.4 201.9,356.4 200,364 "/>
<path class="st16" d="M445.8,175.5c-8.4-9.2-20.2,5.5-25.6,11.7c-4.4,5.1-23.9,27.2-23.9,27.2l-28.6-25.6l-14.4,17
	c0,0,34.3,39.8,43.4,43.2c13.1,5,31.5-28.6,44.5-40.7S451.1,181.2,445.8,175.5"/>
<path class="st18" d="M512.1,283.5c4.6,20.6,9.2,20.8,2.2,119.4c-0.5,7.8,3.4,37.1,2.4,71.2c-0.8,26.2-3.5,35.7-3.5,35.7h-21.2
	c0,0-10.4-90.4-12.3-108.3s-5.9-82.5-5.9-82.5H470c0,0-3.2,12.5-13.1,80.7c0,0,3.2,41.6-8.9,106.9h-23.4c0,0-5.2-93.3-5.3-108
	s7.2-99.2,9.4-114.1s10-23,10-23l63.1-1.5C501.8,260,509.6,272.4,512.1,283.5"/>
<path class="st8" d="M426.4,506.6c0,0,0.6,12.8-1.5,14.9c-3.1,3-22.5,10.2-28.5,12.4c-3.1,1.1-5.1,2.8-6,5c-0.6,1.6,0.3,3.3,1.8,3.8
	c0.3,0.1,0.7,0.2,1,0.2h53.1c0,0,1.9-0.7,2.1-4.1c0.2-2.8-2.6-11.1-2.6-11.1c-0.5-1.9,0.7-21.1,0.7-21.1L426.4,506.6z"/>
<polygon class="st9" points="426.4,506.6 446.3,511.6 446.6,506.6 426.4,506.6 "/>
<path class="st16" d="M447.4,532.6c0,0-0.3,2.6-4.3,2.6h-33c0,0-7.1-1.7-2.8-5.3c0,0-7.7,1.2-12.8,4.3c-3,1.8-5.7,2.5-5.4,8.7
	l0.1,1.3h59.5C448.6,544.3,450.5,536.6,447.4,532.6"/>
<path class="st18" d="M389.1,544.3l0.2,3.1h43l6.3-3.1l0.2,3.1h8.2c1,0,1.8-0.8,1.8-1.8c0,0,0-0.1,0-0.1l-0.1-1.2L389.1,544.3z"/>
<path class="st16" d="M435.4,537.6c-0.1,0-0.2,0-0.2-0.1c-12.9-7.2-11.8-16.1-11.7-16.5c0-0.3,0.3-0.5,0.6-0.4
	c0.3,0,0.5,0.3,0.4,0.6c0,0.1-1,8.5,11.2,15.4c0.2,0.1,0.3,0.4,0.2,0.7C435.8,537.5,435.6,537.6,435.4,537.6z"/>
<path class="st8" d="M492.7,510.1c0,0,0.6,12.8-1.5,14.9c-3.1,3-22.5,10.2-28.5,12.4c-3.1,1.1-5.1,2.8-6,5c-0.6,1.6,0.3,3.3,1.8,3.8
	c0.3,0.1,0.7,0.2,1,0.2h53.1c0,0,1.9-0.7,2.1-4.1c0.2-2.8-2.6-11.1-2.6-11.1c-0.5-1.9,0.7-21.1,0.7-21.1L492.7,510.1z"/>
<polygon class="st9" points="492.7,510.1 512.6,515 512.9,510.1 492.7,510.1 "/>
<path class="st16" d="M513.7,536.1c0,0-0.3,2.6-4.3,2.6h-33c0,0-7.1-1.7-2.8-5.3c0,0-7.7,1.2-12.8,4.3c-3,1.8-5.7,2.5-5.4,8.7
	l0.1,1.3h59.4C514.8,547.7,516.8,540.1,513.7,536.1"/>
<path class="st18" d="M455.4,547.7l0.2,3.1h43l6.3-3.1l0.1,3.1h8.2c1,0,1.8-0.8,1.8-1.8c0,0,0-0.1,0-0.1l-0.1-1.2H455.4z"/>
<path class="st16" d="M501.7,541.1c-0.1,0-0.2,0-0.2-0.1c-12.9-7.2-11.8-16.1-11.7-16.5c0-0.3,0.3-0.5,0.6-0.4
	c0.3,0,0.5,0.3,0.4,0.6c0,0.1-1,8.5,11.2,15.4c0.2,0.1,0.3,0.4,0.2,0.7C502.1,541,501.9,541,501.7,541.1L501.7,541.1z"/>
<path class="st18" d="M497.7,191.2c-9,4.4-19.1,6-29,4.6c-0.6-0.1-1.1-0.2-1.7-0.3c-11.9-2.2-25.6-2.1-27.9-21.1s13.6-28.8,15-37.5
	c0.3-2.2,0.3-4.4-0.1-6.6c-0.8-5.8-2.8-11,1.6-16.2c8.6-10.3,17.4-9.8,17.4-9.8s7.7-5.7,16.9,1.2c9.9,7.3,13,17.4,11.6,28
	c-0.9,6.4-1.3,13-1.1,19.5c0.2,3.4,1,7.1,4,14.7C507.3,175.1,505.2,187.4,497.7,191.2"/>
<path class="st17" d="M468.7,195.8c-0.6-0.1-1.1-0.2-1.7-0.3c-11.9-2.2-25.6-2.1-27.9-21.1s13.6-28.8,15-37.5
	c0.3-2.2,0.3-4.4-0.1-6.6c12.7,1.9,29.5,8.9,35.5,19.9c0,0-3.2,3.9-0.3,10.6c3.2,7.6,9.8,6.9,7.3,18.4
	C495.3,184.3,482.2,188.1,468.7,195.8"/>
<path class="st8" d="M460.8,153.6c0,0,1.6,6.5-0.6,11.3s-5.1,6.3-5.1,6.3s4.9,9.1,17.4,8.9s16.4-9.6,16.4-9.6s-3.6-0.7-5.1-5.4
	s-0.5-13.2-0.5-13.2L460.8,153.6z"/>
<path class="st27" d="M437.4,176.7c0,0,1.3,9.6,1.6,21.1c0.4,14.5-7.1,62.4-7.1,61.6c0,0,8.8,5.8,33.4,7.2
	c14.7,0.9,29.3-2.1,42.5-8.6c0,0,1.4-37.6,4.4-55.2c2.6-15.6,4.9-22.8,4.9-22.8l-30.9-11.2l-14.2,10.5l-14.1-10.6L437.4,176.7
	L437.4,176.7z"/>
<path class="st9" d="M461.4,159.3c0,0-1,9.3,7.4,9.3s14.2-10.1,14.2-10.1L461.4,159.3z"/>
<path class="st8" d="M453.8,128.9c0,0,1.4,16.7,2.1,21s6.2,14.8,13.2,15.6s15.9-7.3,18.6-11.5s4.8-16.6,5.4-21.2
	s-1.2-22.2-16.9-24.2S455,119.5,453.8,128.9"/>
<path class="st16" d="M451.8,169.8c-2,7-3.3,14.2-3.9,21.4c-2.2,26.4,0.6,72.8,0.5,95s-0.7,38.7-0.7,38.7s-24-0.7-25.2-13.9
	s8.1-40,9.2-51.8c0.5-5.9,4.7-84.5,4.7-86.2C445.3,170.6,445.6,171.1,451.8,169.8"/>
<path class="st9" d="M478.8,129.5c0,0,7.2,2.7,10.6,6.2c1.5,1.4,2.3,3.3,2.4,5.3l1.6-7C493.4,134,488.9,128,478.8,129.5"/>
<path class="st18" d="M454.5,136.6c-0.4-4.4,0.6-8.9,2.9-12.8c2.2-3.7,5.8-6.2,10-7.1l5.7-12.5c0,0-13.6-2.5-20.4,7.4
	C440.8,128.6,454.5,136.5,454.5,136.6"/>
<path class="st18" d="M468.2,120c5,13.9,21.9,8.1,25,15.1c0,0,6.6-10-1.1-22.1s-19-8.9-19-8.9S464.9,110.9,468.2,120"/>
<path class="st19" d="M448.2,263.3c0,0,6.2,3.3,22,3.3s30.3-7,30.3-7l-0.4,7.6c0,0-12,6.1-29.4,6.1s-22.8-3.5-22.8-3.5L448.2,263.3
	L448.2,263.3z"/>
<path class="st16" d="M491.9,170.3c0,0,1.9,5.6,1.9,21.5c-0.1,17.8-0.6,133.3-0.6,133.3s21.2-4.6,24.6-12.7s-9.5-43.9-10-54.5
	c-0.6-11.5,13.8-64.9,14.1-76.6C521.8,180.3,491.9,170.3,491.9,170.3"/>
<path class="st19" d="M458.7,167.5l10.5,9.7l-9,6.8C460.1,184,452.4,170.6,458.7,167.5"/>
<path class="st19" d="M485.4,168l-10.9,9.4l8.3,7.4C482.8,184.7,490.8,170.6,485.4,168"/>
<path class="st28" d="M471.9,179.3c0,0-1.6,74.4-1.6,87.4"/>
<polygon class="st8" points="366.1,190.8 355,181.2 345.7,190.8 355.1,203.7 366.1,190.8 "/>
<path class="st8" d="M355.9,177.4c-0.3-1.3-5.4-14.2-7.4-17.5s-6.1-2.2-5.8,0.3s2.6,9.3,2.6,9.3s-10.6-8.2-11.6-8.9
	c-2.7-1.9-3.7-3.3-6.3-3.2c-1.1,0.1-2,0.8-2.3,1.8c-1-0.3-2.1,0.2-2.5,1.1c-0.9,1.5,1,3.2,1,3.2s-1-0.3-2.4,1.2
	c-1.7,1.9,0.6,3.8,0.6,3.8c-1.3,0.5-2.4,1.5-2.9,2.8c-0.5,1.2,0.8,2.2,8.5,8c1.5,1.1,7.1,6.6,9,8.2c8.2,7.2,11.2,6.5,11.2,6.5
	S358,185.5,355.9,177.4"/>
<path class="st9" d="M346.8,180.9c-2.7-2.3-3.8-5.9-2.8-9.3l0.9,0.3c-0.8,3,0.2,6.2,2.6,8.2L346.8,180.9z M333.8,180l-0.8-0.6
	l4.2-5.1l-14-10.4l0.6-0.8l14,10.4l2.2-2.7l-15.2-11.3l0.6-0.8l15.3,11.3l0.2-0.2l0.8,0.6L333.8,180z M334.1,178.1l-12.6-9.2
	l0.6-0.8l12.6,9.2L334.1,178.1z"/>
<path class="st16" d="M431.8,206.4c-0.3,0-0.5-0.2-0.5-0.5c-0.5-27.5,4.6-32.4,4.8-32.6c0.2-0.2,0.5-0.2,0.7,0c0,0,0,0,0,0
	c0.2,0.2,0.2,0.5,0,0.7c-0.1,0.1-4.9,5.1-4.5,31.8C432.4,206.1,432.2,206.4,431.8,206.4C431.9,206.4,431.9,206.4,431.8,206.4
	L431.8,206.4z"/>
<g class="st20">
	<path d="M431.8,206.4c-0.3,0-0.5-0.2-0.5-0.5c-0.5-27.5,4.6-32.4,4.8-32.6c0.2-0.2,0.5-0.2,0.7,0c0,0,0,0,0,0
		c0.2,0.2,0.2,0.5,0,0.7c-0.1,0.1-4.9,5.1-4.5,31.8C432.4,206.1,432.2,206.4,431.8,206.4C431.9,206.4,431.9,206.4,431.8,206.4
		L431.8,206.4z"/>
</g>
<polygon class="st13" points="417.7,206.1 421.2,203.9 420.9,206.3 417.7,206.1 "/>
<path class="st13" d="M461.8,261.1h-32.8c-1.3,0-2.4-1-2.5-2.2l-6.3-53.1c-0.1-1,0.6-1.9,1.6-2.1c0.1,0,0.1,0,0.2,0h32.9
	c1.3,0,2.4,1,2.5,2.2l6.3,53.1c0.1,1-0.6,2-1.6,2.1C461.9,261.2,461.8,261.2,461.8,261.1"/>
<path class="st14" d="M458.9,261.1h-34.1c-1.3,0-2.4-1-2.5-2.2l-5.7-50.9c-0.1-1,0.6-2,1.6-2.1c0.1,0,0.1,0,0.2,0h34.1
	c1.3,0,2.4,1,2.5,2.2l5.7,50.9c0.1,1-0.6,2-1.6,2.1C459,261.1,459,261.1,458.9,261.1"/>
<path class="st29" d="M443.1,233.5c0-2.4-2-4.4-4.4-4.4s-4.4,2-4.4,4.4s2,4.4,4.4,4.4c0,0,0,0,0,0
	C441.1,237.9,443.1,236,443.1,233.5z"/>
<path class="st13" d="M422.1,210.2c0,0.7-0.6,1.3-1.3,1.3s-1.3-0.6-1.3-1.3c0-0.7,0.6-1.3,1.3-1.3l0,0
	C421.5,208.9,422.1,209.5,422.1,210.2"/>
<path class="st8" d="M468.5,261.3c-1.8,0.3-3.7,0-5.5-0.6c-2.3-1.1-2.3-2.4-4.4-2.9c-1.9-0.5-5.4,0.2-6.8,0
	c-1.4-0.1-2.5-1.3-2.5-2.7c0-0.1,0-0.2,0-0.3c-1-0.6-1.5-1.8-1.2-2.9c-0.6,0-1.8-1-0.9-2.8c0.2-0.5-0.6-0.3-0.7-1.6
	c-0.1-1.9,3.6-3.7,3.6-3.7c-2.2,0.4-3.1-1.6-2.6-2.4c1.7-1.6,3.7-3,5.8-4c0.6,0,4.1,0,5.4,0.6s4.9,4,4.9,4l10.5,7.7
	C474.2,249.7,474.2,258.7,468.5,261.3"/>
<path class="st9" d="M449.4,255.1c-0.1,0-0.2,0-0.2-0.1c-0.1-0.1,0-0.3,0.1-0.3c0,0,0,0,0,0c2.6-1.3,7.8-1.2,8-1.2
	c0.1,0,0.2,0.1,0.2,0.3c0,0,0,0,0,0c0,0.1-0.1,0.2-0.2,0.2l0,0c0,0-5.3-0.2-7.8,1.1C449.5,255,449.4,255.1,449.4,255.1z
	 M448.1,252.1c-0.1,0-0.1,0-0.2-0.1c-0.1-0.1-0.1-0.3,0-0.4c0,0,0,0,0,0c2.4-2.4,8.4-2,8.6-2c0.1,0,0.2,0.1,0.2,0.3c0,0,0,0,0,0
	c0,0.1-0.1,0.2-0.2,0.2c0,0,0,0,0,0c-0.1,0-6-0.4-8.2,1.9C448.3,252.1,448.2,252.1,448.1,252.1z M447,249.7c0,0-0.1,0-0.1,0
	c-0.1-0.1-0.2-0.2-0.1-0.4c1.9-3.3,8.8-3.7,9.1-3.7c0.1,0,0.2,0.1,0.2,0.2s-0.1,0.2-0.2,0.2c-0.1,0-6.9,0.4-8.7,3.5
	C447.1,249.7,447.1,249.7,447,249.7L447,249.7z M450.2,244c-0.1,0-0.2,0-0.2-0.1c-0.1-0.1,0-0.3,0.1-0.4c0.9-0.6,3-1.9,3.2-2
	c0.9,0,1.9,0,2.8,0.2c0.1,0,0.2,0.1,0.2,0.3c0,0,0,0,0,0c0,0.1-0.1,0.2-0.3,0.2c0,0,0,0,0,0c-0.9-0.1-1.8-0.2-2.6-0.2
	c-0.3,0.1-1.8,1-3.1,1.9C450.3,244,450.2,244,450.2,244L450.2,244z"/>
<path class="st8" d="M474.2,249.7l9.5,2.9l-6.1,13.5l-8.7-5C468.8,261.1,466.3,251.7,474.2,249.7"/>
<path class="st16" d="M516.6,180.5c14.9,0.1,13.3,16.2,13.5,23s2.5,67.8-10.8,74.8s-42.1-10.8-42.1-10.8l4.5-16.4l19.6,1.8
	c0,0,1.4-37.3,2.4-47.9S507,180.4,516.6,180.5"/>
<polygon class="st30" points="479.3,251.3 477.6,266.2 481.6,252 479.3,251.3 "/>
<path class="st16" d="M512.8,280.3c-17.2-0.3-35.6-12.4-35.8-12.5l0.6-0.8c0.2,0.1,18.3,12,35.2,12.3L512.8,280.3z M511.5,255.3
	l-29.7-3.7l0.1-1l21.4,2.6c0.4-5.4,4-58.7,6.5-65.3c2.7-7.1,11.8-7.1,11.9-7.1l0,0v1l0,0c-0.1,0-8.5,0.1-11,6.5
	c-2.5,6.4-6.1,60.6-6.4,65.1l7.3,0.9L511.5,255.3z"/>
<g class="st20">
	<path d="M512.8,280.3c-17.2-0.3-35.6-12.4-35.8-12.5l0.6-0.8c0.2,0.1,18.3,12,35.2,12.3L512.8,280.3z M511.5,255.3l-29.7-3.7l0.1-1
		l21.4,2.6c0.4-5.4,4-58.7,6.5-65.3c2.7-7.1,11.8-7.1,11.9-7.1l0,0v1l0,0c-0.1,0-8.5,0.1-11,6.5c-2.5,6.4-6.1,60.6-6.4,65.1l7.3,0.9
		L511.5,255.3z"/>
</g>
<polygon class="st10" points="692.7,416.9 710.6,416.9 710.6,527.6 692.7,527.6 692.7,416.9 "/>
<path class="st11" d="M757.6,538.8c0-6.2-7.2-11.2-16.2-11.2h-72.6c-8.9,0-16.2,5-16.2,11.2"/>
<path class="st12" d="M783.6,235.9h-57.7l-21.7,144.9H765c6.9-0.2,12.7-5.2,13.8-12L796.4,251C797.7,242.7,791.9,235.9,783.6,235.9"
	/>
<path class="st13" d="M772.5,235.9h-69.1c-8.1,0-15,6-16.2,14l-17.6,117.8c-0.9,6.2,3.3,12,9.6,12.9c0.6,0.1,1.1,0.1,1.7,0.1h73.1
	c6.9-0.2,12.7-5.2,13.8-12L785.3,251C786.6,242.6,780.8,235.9,772.5,235.9"/>
<path class="st14" d="M765.1,380.7h-119c-1.3,0-2.3,1-2.3,2.3c0,9.5,7.7,17.1,17.1,17.1c0,0,0,0,0,0h87c9.5,0,17.1-7.7,17.1-17.1
	L765.1,380.7L765.1,380.7z"/>
<path class="st13" d="M729,416.9h-54.7c-3.4,0-6.2-2.8-6.2-6.2v-10.6h67.1v10.7C735.2,414.2,732.5,417,729,416.9"/>
<path class="st14" d="M769.6,538.8c0,6.6-5.4,12-12,12s-12-5.4-12-12s5.4-12,12-12S769.6,532.2,769.6,538.8"/>
<path class="st15" d="M763.9,538.8c0,3.5-2.8,6.3-6.3,6.3c-3.5,0-6.3-2.8-6.3-6.3c0-3.5,2.8-6.3,6.3-6.3c0,0,0,0,0,0
	C761.1,532.5,763.9,535.3,763.9,538.8C763.9,538.8,763.9,538.8,763.9,538.8"/>
<path class="st14" d="M664.4,538.8c0,6.6-5.4,12-12,12s-12-5.4-12-12s5.4-12,12-12S664.4,532.2,664.4,538.8"/>
<path class="st15" d="M658.7,538.8c0,3.5-2.8,6.3-6.3,6.3c-3.5,0-6.3-2.8-6.3-6.3c0-3.5,2.8-6.3,6.3-6.3c0,0,0,0,0,0
	C655.9,532.5,658.7,535.3,658.7,538.8"/>
<polygon class="st12" points="692.7,416.9 710.6,416.9 710.6,427.7 692.7,421.9 692.7,416.9 "/>
<path class="st8" d="M575.6,494.9l-1.7,19.1c0,0,2.6,6.8,9.3,8.1c3.8,0.8,7.8,0.5,11.4-0.9l7.1-29.7L575.6,494.9L575.6,494.9z"/>
<path class="st16" d="M604.9,549.6h-73.1c-0.7,0-1.2-0.5-1.2-1.2c0,0,0,0,0,0c0-1.7,0.2-3.4,0.5-5.1c0.9-5.7,3.9-13.5,12.7-15.5
	c14.4-3.4,21-8.6,21-8.6s2.4-10.7,5.8-10.8s4.5,5.6,6.5,7s5.6,1.5,8.2,1.5c8.9,0,10.6-5.8,14.7-3.6c2.2,1.2,6.4,20,8.5,30.1
	c0.1,0.6,0.2,1.2,0.3,1.7c0.4,2.1-0.9,4.1-3,4.5C605.4,549.6,605.2,549.7,604.9,549.6"/>
<path class="st18" d="M604.9,549.6h-73.1c-0.7,0-1.2-0.5-1.2-1.2c0,0,0,0,0,0c0-1.7,0.2-3.4,0.5-5.1h77.3c0.1,0.6,0.2,1.2,0.3,1.7
	c0.4,2.1-0.9,4.1-3,4.5C605.4,549.6,605.2,549.6,604.9,549.6"/>
<path class="st2" d="M563.6,530c-0.4,0-0.8-0.2-0.9-0.6c-2.3-5.2-5.7-5.9-5.9-5.9c-0.6-0.1-0.9-0.6-0.8-1.2c0.1-0.6,0.6-0.9,1.2-0.8
	c0.2,0,4.6,0.8,7.4,7.1c0.2,0.5,0,1.1-0.5,1.3c0,0,0,0,0,0C563.8,530,563.7,530,563.6,530z M570.2,527.6c-0.4,0-0.8-0.2-0.9-0.6
	c-2.3-5.2-5.8-5.9-5.9-5.9c-0.6-0.1-0.9-0.6-0.8-1.2c0.1-0.6,0.6-0.9,1.2-0.8c0.2,0,4.6,0.8,7.4,7.1c0.2,0.5,0,1.1-0.5,1.3
	C570.5,527.6,570.3,527.6,570.2,527.6z"/>
<path class="st8" d="M664.7,501.7l6.3,18.1c0,0,5.2,5.2,11.8,3.6c3.8-0.9,7.3-2.8,10-5.5l-5.8-30L664.7,501.7L664.7,501.7z"/>
<path class="st18" d="M636.1,335.8c0,0-45.4,17-49.5,19.4s-10,8.7-11.3,22.3s-4.1,118.9-4.1,118.9l33.7,6.9l20.2-110l83-57.5H636.1z
	"/>
<path class="st17" d="M636.1,335.8c0,0-45.4,17-49.5,19.4s-10,8.7-11.3,22.3s-4.1,118.9-4.1,118.9l33.7,6.9l20.2-110l83-57.5H636.1z
	"/>
<path class="st18" d="M723.4,310c0,0-68.6,43.8-77,52.1c-6.3,6.2-13,14.2-9.1,30.6s23.1,110.5,23.1,110.5l32.9-7.1l-11.5-107.7
	l44.7-9.5c12.6-4.1,21.2-11.8,21.2-25v-18.2L723.4,310L723.4,310z"/>
<path class="st16" d="M641.8,213.8c0,0-5.9,3.8-8.7,9.1c-7.2,13.8-10.8,59.6-10.8,59.6l-5,27.5l27.4,4.5l8.8-69.2L641.8,213.8z"/>
<path class="st16" d="M663.9,205.5c0,0-18.8,3.4-25.3,11.1c-10.7,12.5,6,76.2,6,76.2l-0.7,40.8c0,0,10.8,9.2,31,7.7
	c17.3-1.2,25.3-6.9,44.6-11s28.2,5.5,28.2,5.5l-4.7-17.8c0,0-0.1-94-2.7-99.8s-28.7-10.1-28.7-10.1L663.9,205.5L663.9,205.5z"/>
<path class="st8" d="M697.8,175.3c0,0,0.2,19.6,1.7,27.4l-18.9,16.9l-7.3-16.3c0,0,0.2-3.9-0.8-6.3
	C671.6,195,697.8,175.3,697.8,175.3"/>
<path class="st9" d="M697.7,177.2c0,0-0.5,19-9.7,23.7s-15.1-3.8-15.1-3.8L697.7,177.2z"/>
<path class="st18" d="M650.8,151.6c0,0-3.1,4-1.1,8.2s6.8,5,6.8,5l0.7-13.7L650.8,151.6L650.8,151.6z"/>
<path class="st8" d="M655.4,156.8c0.1,3.9,1.1,9.5,2.2,15c0.9,5,1.7,10.1,2.8,13.1c2.3,6.5,10.6,12.1,15.1,13.3
	c6.8,1.8,19.7-9.3,21.1-14.4c0.9-3.2,1.3-6.5,1.1-9.9v-23.5c0,0-9.5-9.1-21.8-9.3C663.9,140.9,655.2,149.3,655.4,156.8"/>
<path class="st9" d="M669.7,152.8c0,0-7.3,4.3-14.2,5.9c-0.2-1.8-0.1-3.7,0.3-5.5C657.1,149.4,669.7,152.8,669.7,152.8"/>
<polygon class="st18" points="697.8,155.9 697.8,167.1 702.3,168.2 704.5,152.2 697.8,155.9 "/>
<path class="st18" d="M697.8,156.5c-2.2,0.4-10.6,0.1-12.8-4.8c0,0-7.8,5.8-15.3,1.1c0,0-21.2,7.9-25.7-7.8
	c-3.1-10.9,3.7-20.7,14.1-20.7c4.8,0,8.5,4.4,8.5,4.4c4.4-2.7,9.8-3.4,14.8-2c8.5,2.4,10.4,7.5,10.4,7.5s12.8,2.6,14.5,11.8
	C707.6,153.3,700.5,156,697.8,156.5"/>
<path class="st18" d="M657.9,180c-1.4-0.2-2.4-1.2-2.6-2.5l-1.1-4.8c-0.3-1.1-0.1-2.3,0.6-3.2c0.4-0.6,1-0.9,1.7-1l10.6-0.9
	c0.7,0,1.3,0.2,1.8,0.7c0.8,0.8,1.2,1.9,1.1,3v0.2c0.7-0.8,1.6-1.3,2.6-1.4c1.1-0.1,2.2,0.3,3.1,1l-0.1-0.4
	c-0.3-1.1-0.1-2.3,0.6-3.2c0.4-0.6,1-0.9,1.6-1l10.6-0.9c0.7,0,1.3,0.2,1.8,0.7c0.4,0.4,0.7,0.8,0.8,1.3l11.5-4.4l0.3,0.9l-11.7,4.4
	c0,0.3,0,0.5,0,0.8l-0.2,4.9c0.1,1.4-0.9,2.7-2.3,3l-9.2,0.8c-1.3,0.1-2.4-1-2.8-2.5l-0.6-2.6c-0.3-0.4-1.7-2-3.5-1.9
	s-2.6,2-2.8,2.4l-0.1,2.7c0.1,1.4-0.9,2.7-2.3,3l-9.2,0.8L657.9,180z M667.2,168.5L667.2,168.5l-10.7,0.9c-0.4,0-0.7,0.3-0.9,0.6
	c-0.5,0.7-0.6,1.6-0.4,2.4l1.1,4.8c0.2,1.1,1,1.8,1.7,1.8l9.2-0.8c0.8-0.1,1.3-0.9,1.4-2l0.2-4.9c0.1-0.8-0.2-1.7-0.8-2.3
	C667.9,168.7,667.5,168.5,667.2,168.5L667.2,168.5z M688.5,166.6L688.5,166.6l-10.7,0.9c-0.4,0.1-0.7,0.3-0.9,0.6
	c-0.4,0.7-0.6,1.6-0.4,2.4l1.1,4.8c0.2,1.1,1,1.8,1.7,1.8l9.2-0.8c0.8-0.1,1.3-0.9,1.4-2l0.2-4.9c0.1-0.8-0.2-1.7-0.8-2.3
	C689.2,166.8,688.8,166.7,688.5,166.6L688.5,166.6z"/>
<path class="st16" d="M680.6,219.6c0,0,16-24.1,23.9-23.1s9.6,9.1,9.5,11.6S714,212,680.6,219.6"/>
<path class="st16" d="M680.6,219.6c0,0-20.6-13.3-17.1-18.5c1.8-3.1,5.9-4.2,9-2.4C674.1,201.3,680.5,216.7,680.6,219.6"/>
<path class="st8" d="M697.8,162.8c0,0,6.9,0.5,7.2,6.1c0.4,8.2-7.3,8.2-7.3,8.2L697.8,162.8z"/>
<path class="st7" d="M667.3,308.7c0,0-6.6-6.7-18-2.3l5.4-8.3l13.1-1.2l3.5,9.5L667.3,308.7L667.3,308.7z"/>
<path class="st7" d="M675.4,306.5c0.1-1.9-0.3-3.8-1.3-5.4c-1.6-2.1-5,2.9-7.5,3.2s-8.1,0.2-8.4,3.7s3.8,5.2,10,2.9
	S674.9,308.4,675.4,306.5"/>
<path class="st8" d="M675.6,311.1l20.6,6.9v-15.1c0,0-20.9-4.4-23.9-5.3s-7.6-2.9-9.4-3.3s-4.5,1-5.5,0.9s-5.3-1.8-7.7-0.3
	s-11.4,10.1-10,14s5.8,1.2,5.8,1.2c0,4.1,3,5.2,5.1,3.7c1.3-0.9,1.1-1,1.6-4.2s4.5-5.2,5.1-5.5c1.4-0.7,3.1-0.8,4.6-0.1
	c1.9,0.6,3.1,1.3,5.4,4.9C668.2,310.3,673.9,311.6,675.6,311.1"/>
<path class="st16" d="M729,214.8c9.7-3.3,15,7.9,17.8,15.4s15.8,76.4,13.8,84.3c-0.8,3-5.3,8.1-10.2,9.6
	c-10.5,3.2-43.6-0.1-57.8-2.7c-2.2-0.3-4.2-1.5-5.3-3.4l4.8-17.2c0.8-2.3,3-3.7,5.4-3.6l31.2,1.6c0,0-7.6-51.1-9.5-62.1
	S720.8,217.6,729,214.8"/>
<rect x="607.6" y="275" transform="matrix(0.1056 -0.9944 0.9944 0.1056 299.4538 883.8871)" class="st16" width="66.9" height="1"/>
<g class="st20">
	<rect x="607.6" y="275" transform="matrix(0.1056 -0.9944 0.9944 0.1056 299.4538 883.8871)" width="66.9" height="1"/>
</g>
<polygon class="st16" points="692.6,299.8 682.8,297.4 679.6,314.8 691,317.5 692.6,299.8 "/>
<polygon class="st17" points="692.6,299.8 682.8,297.4 679.6,314.8 691,317.5 692.6,299.8 "/>
<path class="st16" d="M693,300.1l-0.8-0.6c0.1-0.2,3.2-3.9,7.1-3.9c3.4,0,24.7,2.3,28.8,2.7l-8.5-56l1-0.1l8.7,57.3l-0.7-0.1
	c-0.2,0-25.7-2.8-29.3-2.8C695.9,296.5,693,300.1,693,300.1z"/>
<g class="st20">
	<path d="M693,300.1l-0.8-0.6c0.1-0.2,3.2-3.9,7.1-3.9c3.4,0,24.7,2.3,28.8,2.7l-8.5-56l1-0.1l8.7,57.3l-0.7-0.1
		c-0.2,0-25.7-2.8-29.3-2.8C695.9,296.5,693,300.1,693,300.1z"/>
</g>
<path class="st31" d="M686.6,317.5c0,0,3.9,4.5,6,5.4s32.3,3.5,52.2,2.2"/>
<path class="st12" d="M629,255.5h-80.5c-1.9,0-3.5,1.5-3.5,3.4c0,0.3,0,0.7,0.1,1l16.5,54.4c0.9,2.9,3.6,4.9,6.6,4.9h84.3
	l-18.1-59.7C633.7,257.2,631.5,255.5,629,255.5"/>
<path class="st12" d="M688.7,313H612v6.3h76.6c1.3,0,2.3-1,2.3-2.3v-1.7C691,314,689.9,313,688.7,313"/>
<path class="st14" d="M625,255.5h-80.5c-1.9,0-3.4,1.5-3.4,3.5c0,0.3,0.1,0.7,0.1,1l16.5,54.4c0.9,2.9,3.6,4.9,6.6,4.9h84.3
	l-18.1-59.7C629.7,257.2,627.5,255.5,625,255.5"/>
<polygon class="st18" points="573.2,273.6 548.4,273.6 544.8,260.9 569.6,260.9 573.2,273.6 "/>
<path class="st29" d="M585.6,290c-0.7-2.5,0.8-5.2,3.4-5.8c0.5-0.1,1-0.2,1.4-0.2c3.5,0.1,6.4,2.6,7.2,6c0.7,2.5-0.8,5.2-3.4,5.8
	c-0.5,0.1-0.9,0.2-1.4,0.2C589.3,295.9,586.4,293.4,585.6,290z"/>
<path class="st32" d="M553.2,262.9l-3.4,4.4l3.4,4.4 M563.6,271.7l3.4-4.4l-3.4-4.4 M555.9,270.9l5-7.2"/>
<polygon class="st18" points="628.4,304.6 638,304.6 640.9,313.6 637.6,315.6 632.7,313.4 628.4,304.6 "/>
<path class="st2" d="M633,313.1l4.6,2l2.8-1.7l-2.7-8.4h-8.6L633,313.1L633,313.1z M637.7,316.1l-5.3-2.4l-4.6-9.6h10.6l3.1,9.6
	L637.7,316.1L637.7,316.1z"/>
<polygon class="st16" points="622.8,288.8 632.4,288.8 635.3,297.8 632,299.9 627,297.7 622.8,288.8 "/>
<path class="st2" d="M627.4,297.3l4.6,2l2.8-1.7l-2.7-8.4h-8.6L627.4,297.3L627.4,297.3z M632,300.3l-5.3-2.4l-4.6-9.6h10.6l3.1,9.6
	L632,300.3L632,300.3z"/>
<path class="st16" d="M699.4,550.8h-73.1c-0.7,0-1.2-0.5-1.2-1.2c0,0,0,0,0,0c0-1.7,0.2-3.4,0.5-5.1c1-5.7,3.9-13.5,12.8-15.5
	c14.4-3.4,21-8.6,21-8.6s2.4-10.7,5.8-10.8s4.5,5.6,6.5,7s5.6,1.5,8.2,1.5c8.9,0,10.6-5.8,14.7-3.6c2.2,1.2,6.4,20,8.5,30.1
	c0.1,0.6,0.2,1.2,0.3,1.7c0.4,2.1-0.9,4.1-3,4.5C700,550.8,699.7,550.8,699.4,550.8"/>
<path class="st18" d="M699.4,550.8h-73.1c-0.7,0-1.2-0.5-1.2-1.2c0,0,0,0,0,0c0-1.7,0.2-3.4,0.5-5.1h77.2c0.1,0.6,0.2,1.2,0.3,1.7
	c0.4,2.1-0.9,4.1-3,4.5C699.9,550.8,699.7,550.8,699.4,550.8"/>
<path class="st2" d="M658,531.2c-0.4,0-0.8-0.2-0.9-0.6c-2.3-5.2-5.8-5.9-5.9-5.9c-0.6-0.1-0.9-0.6-0.8-1.2c0.1-0.6,0.6-0.9,1.2-0.8
	c0.2,0,4.6,0.8,7.4,7.1c0.2,0.5,0,1.1-0.5,1.3c0,0,0,0,0,0C658.3,531.1,658.2,531.2,658,531.2z M664.7,528.8c-0.4,0-0.8-0.2-0.9-0.6
	c-2.3-5.2-5.8-5.9-5.9-5.9c-0.6-0.1-0.9-0.6-0.8-1.2c0.1-0.6,0.6-0.9,1.2-0.8c0.2,0,4.6,0.8,7.4,7.1c0.2,0.5,0,1.1-0.5,1.3
	C665,528.7,664.8,528.7,664.7,528.8z"/>
<polygon class="st9" points="664.9,502.3 688.8,497.1 690,503.3 664.9,502.3 "/>
<polygon class="st9" points="575.4,497.2 597.7,508.4 599.2,502.1 575.4,497.2 "/>
<g class="st20">
	<path d="M681.8,498.6C681,494.2,662,390.3,664,380.9c1.1-5.4,20.7-12.1,38-18c13.4-4.6,26-8.9,26.8-11.5c1.9-6-0.3-15.5-0.3-15.6
		l0.5-0.1c0.1,0.4,2.2,9.7,0.3,15.9c-0.9,2.8-13,7-27.1,11.8c-17.1,5.9-36.6,12.5-37.6,17.6c-1.9,9.2,17.6,116.4,17.8,117.4
		L681.8,498.6z"/>
</g>
<g class="st20">
	<path d="M585.8,498.6l-0.5,0c0.5-4.5,11.3-111.1,16.2-118.2s53.7-38.6,55.8-39.9l0.3,0.4c-0.5,0.3-50.9,32.8-55.7,39.8
		S585.9,497.4,585.8,498.6z"/>
</g>
<path class="st16" d="M680,220.2l-0.2-0.1c-0.5-0.3-13.4-6.7-16.4-14.4l0.9-0.4c2.7,7,14.3,13.1,15.8,13.8
	c9.7-2.2,28.4-6.8,30.8-8.1c2.5-1.5,2.1-2.7,2.1-2.7l0.9-0.4c0,0.1,0.8,2-2.6,3.9c-3,1.8-30,8-31.2,8.3L680,220.2z"/>
<g class="st20">
	<path d="M680,220.2l-0.2-0.1c-0.5-0.3-13.4-6.7-16.4-14.4l0.9-0.4c2.7,7,14.3,13.1,15.8,13.8c9.7-2.2,28.4-6.8,30.8-8.1
		c2.5-1.5,2.1-2.7,2.1-2.7l0.9-0.4c0,0.1,0.8,2-2.6,3.9c-3,1.8-30,8-31.2,8.3L680,220.2z"/>
</g>
<path class="st33" d="M687.3,216c5.1,12.6,8.2,25.9,9.2,39.5 M675,214.3c0,0-3.6,8.4-6.3,41.3"/>
<path class="st2" d="M698.7,255.5c0,1.2-1,2.2-2.2,2.2c-1.2,0-2.2-1-2.2-2.2s1-2.2,2.2-2.2S698.7,254.3,698.7,255.5L698.7,255.5"/>
<path class="st2" d="M671,255.5c0,1.2-1,2.2-2.2,2.2c-1.2,0-2.2-1-2.2-2.2c0-1.2,1-2.2,2.2-2.2c0,0,0,0,0,0
	C670,253.3,671,254.3,671,255.5L671,255.5"/>
<polygon class="st18" points="660.3,503.3 658.7,494.7 692.3,487.7 693.2,496.1 660.3,503.3 "/>
<polygon class="st18" points="571.3,496.3 571.6,486.2 606.7,493.8 605,503.3 571.3,496.3 "/>
<polygon class="st26" points="739,555.9 724.2,555.9 673.8,356.2 688.7,356.2 739,555.9 "/>
<polygon class="st14" points="690.6,363.8 675.7,363.8 673.8,356.2 688.7,356.2 690.6,363.8 "/>
<path class="st25" d="M161.6,319.4h609.7c1,0,1.7,1.1,1.7,2.5v17c0,1.4-0.8,2.5-1.7,2.5H161.6c-0.9,0-1.7-1.1-1.7-2.5v-17
	C159.9,320.5,160.7,319.4,161.6,319.4"/>
<path class="st19" d="M175.2,341.4h582.6v14.9H179.5c-2.4,0-4.3-2.8-4.3-6.3V341.4z"/>
<polygon class="st34" points="175.2,341.4 757.7,341.4 757.7,346.4 175.2,346.4 175.2,341.4 "/>
<path class="st16" d="M371.4,294c0,0-16.2-5.9-10.4-25c0,0,17.7,0,15.1,24.5L371.4,294z"/>
<path class="st17" d="M365.4,290.1c5.1-1.3,8.8-5.6,9.5-10.8l1.2,3.3l0.3,7.4L365.4,290.1z"/>
<path class="st16" d="M380.6,293.9c0,0,18.6-6.7,12-28.8c0,0-20.4,0-17.3,28.2L380.6,293.9L380.6,293.9z"/>
<path class="st19" d="M390.5,290.1v14.8c0,8-6.4,14.5-14.4,14.5c-7.3,0-13.5-5.4-14.4-12.7c-0.1-0.6-0.1-1.2-0.1-1.8v-14.8H390.5z"
	/>
<path class="st25" d="M389.4,290.1v10.8c0,8-6.5,14.5-14.5,14.5c-5.7,0-10.9-3.4-13.2-8.6c-0.1-0.6-0.1-1.2-0.1-1.8v-14.8H389.4z"/>
<polygon class="st35" points="367.7,316.4 384.5,316.4 384.5,319.4 367.7,319.4 367.7,316.4 "/>
</svg>
