<?xml version="1.0" encoding="utf-8"?>
<!-- Generator: Adobe Illustrator 24.3.0, SVG Export Plug-In . SVG Version: 6.00 Build 0)  -->
<svg version="1.1" id="fee04113-53a2-4b54-a786-d18eaa943129"
	 xmlns="http://www.w3.org/2000/svg" xmlns:xlink="http://www.w3.org/1999/xlink" x="0px" y="0px" viewBox="0 0 495 546"
	 style="enable-background:new 0 0 495 546;" xml:space="preserve">
<style type="text/css">
	.st0{fill:#F2005D;}
	.st1{opacity:0.7;fill:#FFFFFF;enable-background:new    ;}
	.st2{fill:#2F2E41;}
	.st3{opacity:0.3;enable-background:new    ;}
	.st4{fill:#E6E7E8;}
	.st5{fill:#BCBEC0;}
	.st6{fill:#A7A9AC;}
	.st7{opacity:0.2;enable-background:new    ;}
	.st8{fill:#F9B499;}
	.st9{fill:#F7A48B;}
	.st10{fill:#D1D3D4;}
	.st11{fill:#FFFFFF;}
	.st12{fill:#F79984;}
	.st13{opacity:0.3;fill:#FFFFFF;enable-background:new    ;}
	.st14{opacity:0.4;fill:#FFFFFF;enable-background:new    ;}
	.st15{opacity:0.5;}
	.st16{opacity:0.7;}
	.st17{opacity:0.2;}
	.st18{fill:#F5F5F5;}
</style>
<ellipse class="st0" cx="246.9" cy="469.3" rx="107.4" ry="33.4"/>
<ellipse class="st1" cx="246.9" cy="469.3" rx="107.4" ry="33.4"/>
<polygon class="st2" points="253.7,187 268.2,269.1 317.5,276 312.4,185.3 308,175.7 "/>
<polygon class="st3" points="253.7,187 268.2,269.1 317.5,276 312.4,185.3 308,175.7 "/>
<path class="st0" d="M203.6,155.9c0,0,7.2-17.9,14.3-34.5c0,0,13.8-35.5,27.2-37.2l44.7-0.2c0,0,18.1-3.4,33.8,32.1l-16.4,57
	L272.9,192l-24.8-13l-8.9-33.2c0,0-11.3,16-16.6,19.8L203.6,155.9z"/>
<path class="st4" d="M256.4,152.1l5.6,12.2l22.9,37.9l18.3-4.4l3.5-17.5c0,0-11.5-25.3-11.5-33.5
	C295.1,146.8,260.9,152.1,256.4,152.1z"/>
<ellipse class="st5" cx="346" cy="418.5" rx="32.5" ry="12.3"/>
<rect x="341" y="372" class="st6" width="7.8" height="43.2"/>
<path class="st5" d="M331,349.9h27.1l0,0v27.3c0,1.1-0.9,2-2,2H333c-1.1,0-2-0.9-2-2V349.9L331,349.9z"/>
<path class="st6" d="M331,358.1c0,0,61.3-6.1,70.3-46c0,0,3.8-11.7,4.9-37c0,0,1.1-12.2,6.8-28.7c0,0,21.2-54-5.8-72.9
	c0,0-23.1-18-47.6-4.7l-45,158.6L331,358.1z"/>
<path class="st7" d="M361.8,199.8c0,0,29.3,0.4,28.3,33.2l-6.6,64.6c0,0-0.3,33.5-29.7,45.8L338,267.5l6-56.6l12.6-10.1L361.8,199.8
	z"/>
<path class="st0" d="M362.6,292.2l2.8,11.9l-11.1-6.1C357.3,296.3,360.1,294.4,362.6,292.2z"/>
<path class="st7" d="M362.6,292.2l2.8,11.9l-11.1-6.1C357.3,296.3,360.1,294.4,362.6,292.2z"/>
<path class="st2" d="M358.3,331.5c0,0,3.8,14.7-33.9,31.4l-22.9,13.5c-1.1,0.7-2.6,0.5-3.5-0.4l-7.8-7.2L358.3,331.5z"/>
<path class="st0" d="M257.7,460.7c0,0-14,11.5-2.8,14c0,0,5.6,2.8,24.8-10.5c0,0,17.1-9.4,9.8-22.7L257.7,460.7z"/>
<path class="st8" d="M289.5,441.5c0,0,4.5-43.3,3.5-51.4l-25.1,45.8l-1,14c0,0-9.1,8.8-9.5,13.5c-0.1,1.1,0.7,2.1,1.7,2.2
	c0.1,0,0.3,0,0.4,0C262.9,465.4,273.3,462.7,289.5,441.5z"/>
<path class="st0" d="M227.5,462.6c0,0-37.2,32.7-26.1,37.5c0,0,9.1,5.6,26.2-6.6c0,0,22.4-17.8,18.9-29.7L227.5,462.6z"/>
<path class="st8" d="M298.2,376.5c0,0-20.8,58.5-48.9,85.2c-2.1,1.9-4,4.1-5.6,6.4c-3.3,4.6-9.2,12.6-14.2,17.1
	c-2.4,2.2-5.4,3.3-8.6,3.3c-3.1,0-7.2-0.4-9.2-2.2l0,0c-1.1-1.1-1.1-2.8-0.2-4c2.8-3.5,11.3-14,17.2-21c1.4-1.7,3-3.3,4.5-4.9
	s4.5-5.2,8.7-14.5c0,0,26.9-60.8,33.5-68.5l14.7-4.5l3.3,3.1L298.2,376.5z"/>
<path class="st9" d="M298.2,376.5c0,0-20.8,58.5-48.9,85.2c-2.1,1.9-4,4.1-5.6,6.4c-3.2,4.5-9,12.3-13.9,16.8
	c-2.5,2.3-5.9,3.6-9.3,3.6c-3.1,0-6.9-0.5-8.8-2.2c2.5,0.3,15.8,0.7,26.8-18.2l17.8-22.3c0,0,32.3-60.6,37.1-73.7L298.2,376.5z"/>
<polygon class="st5" points="31.5,241.4 31.5,405.4 39.1,410.1 39.9,245.3 "/>
<polygon class="st10" points="39.1,410.1 117.2,364.4 120.6,295.2 40,247.8 "/>
<polygon class="st2" points="70.8,287.9 121.3,309.7 120.6,419.9 70.6,390.9 "/>
<polygon class="st7" points="76,319 95.6,329.1 94.4,390.9 75.2,382.1 "/>
<polygon class="st7" points="76.7,308.2 76.9,314.9 91.2,321 91.7,314.1 "/>
<polygon class="st7" points="99,331.1 99,324.4 117.4,331.1 117.2,338.2 "/>
<polygon class="st7" points="99,334.7 98.3,360.7 116.4,367.6 117.9,342.8 "/>
<polygon class="st2" points="120.6,419.9 219.4,365.2 216,310 133.5,303.4 121.3,309.7 "/>
<polygon class="st7" points="120.6,419.9 219.4,365.2 216,310 133.5,303.4 121.3,309.7 "/>
<polygon class="st2" points="70.8,287.9 121.3,309.7 133.5,303.4 93.4,278.9 "/>
<polygon class="st3" points="70.8,287.9 121.3,309.7 133.5,303.4 93.4,278.9 "/>
<path class="st0" d="M274.5,253.6l-2.4-1.3V224c0,0,13.6-17.2,25.4-20.6v29.5c-0.5,1.7-1.2,3.3-2.2,4.8c-3.1,2.2-5.3,5.4-6.5,9
	L274.5,253.6z"/>
<path class="st7" d="M274.5,253.6l-2.4-1.3V224c0,0,13.6-17.2,25.4-20.6v29.5c-0.5,1.7-1.2,3.3-2.2,4.8c-3.1,2.2-5.3,5.4-6.5,9
	L274.5,253.6z"/>
<polygon class="st11" points="255.6,166.4 275,211.5 300.9,201.3 288.8,155.2 "/>
<path class="st9" d="M300,168.6c0,0-7.5-2.8-17.4,5.6c0,0-8.2,5.6-5.2,8c0,0,1.1,1.5,6.5-3.2c0,0,6.3-4.9,10.6-3.9
	c0,0-9.5,10.3-3.2,13.6c0,0,4.1,1.9,4.5,4.3c0,0,0.7,4.9,7.1,3.7c-0.2-4.7,0.5-9.5,2.2-13.9C302.5,178.5,300.7,173.6,300,168.6z"/>
<path class="st12" d="M291.4,188.7c0,0,4.1-6,7.1-6.7c-1.4,3.5-2.3,7.2-2.6,11C294.7,191.2,293.2,189.8,291.4,188.7z"/>
<path class="st2" d="M305.1,182.8c0,0-5.3,12.8-0.8,17.2c3.9-0.9,8-1,11.9-0.3c0,0,4.5,0.9,3.9-15.2
	C320.2,184.6,311.1,188.3,305.1,182.8z"/>
<path class="st7" d="M219.1,163.7c0,0,6.6-37.9,18.1-49.6c0,0-1.9,20.9,1.9,31.7c0,0-11.5,16.6-16.6,19.8L219.1,163.7z"/>
<polygon class="st5" points="29.7,237.6 267.2,376.4 382.4,313.4 133.9,175.7 "/>
<polygon class="st6" points="382.4,313.4 382.4,318.4 267.4,381.8 29.7,242.7 29.7,237.6 267.2,376.4 "/>
<path class="st0" d="M316.3,199.8c0,0-11.3-2.4-18.8,3.6c0,0-0.5,20.7-1.4,29.4c-0.2,1.6-0.8,3.1-1.9,4.3
	c-3.1,3.6-9.6,12.7-2.6,18.8c0.8,0.8,1.3,1.9,1.3,3l0.1,4.9l32,17.7c0,0-15.9,7.1-18.2,11.1c0,0,6.5,0.8,5.3,15.8l26.7-6.3
	c0,0,25.9-2.8,27.3-17.2c0,0,6.1-30.5,2.6-48.5c0,0-1.6-23-18.2-29.1l-2.6-10.4c0,0-12.1,6.9-12.7,7.1S325.6,210.1,316.3,199.8z"/>
<path class="st13" d="M308,199.4c0,0,4.6,14.3,18.6,13.9c8.6-1.1,16.6-5.3,22.3-11.9l-1-4.3l-12.7,7.1c0,0-9.3,6.5-18.8-4.5
	C316.3,199.8,311.1,198.9,308,199.4z"/>
<path class="st7" d="M315,276l10,5.5c0,0-14.7,6-18.2,11.1c1.3,0.2,2.4,0.9,3,2.1c0,0,29.1-19,32.6-16.6c1.2,0.8,4.2,4.2,4.4,7.8
	c0,0,1-4,0-6.4c2.9,1,5.3,2.9,6.9,5.5c0,0,0.8-6-9.5-7.9c0,0,2.3-67.6,19.8-56.8c0,0-2.5-6-6.8-8.9c0,0-15,4.2-14.5,23.9
	c0,0,0.8,24.6-7.3,29.9L315,276z"/>
<path class="st8" d="M306.7,292.7c0,0-11.2,2.1-15.8,0c0,0-2.6-2.2-7.2,2.1l-4.3,3.3c-0.7,0.5-1.1,1.3-1.2,2.1l-0.6,5.5
	c-0.1,0.8,0.5,1.5,1.2,1.5c0.1,0,0.1,0,0.2,0l0,0c0.7,0,1.3-0.5,1.4-1.2l0.7-4.7c0.1-1,0.8-1.9,1.8-2.4l2-0.9c0,0-4.1,9.8,2.6,10.3
	c1.3,1.6,3.5,2.1,5.4,1.2c0,0,1.5,2.8,6.7,0c0,0,7.5-0.5,12.7-3.5C312.2,306.2,313.3,295.3,306.7,292.7z"/>
<path class="st9" d="M287.4,308.7c-0.7-2.5-0.7-5,0-7.5C288.1,303.7,288.1,306.2,287.4,308.7z"/>
<path class="st9" d="M292.8,309.7c-0.4-1.3-0.5-2.7-0.5-4.1c0-1.4,0.1-2.8,0.5-4.1c0.4,1.3,0.5,2.7,0.5,4.1
	C293.3,307,293.1,308.4,292.8,309.7z"/>
<path class="st9" d="M305.2,293c0,0,8.4,7.3,3.7,11.1c0,0-10,3.5-9.5,5.7c0,0,10.1-1.1,12.7-3.5c0,0,1.6-10.3-5.5-13.5L305.2,293z"
	/>
<path class="st8" d="M338.1,192.6l-5,12.6c-10,3.8-16.8-5.5-16.8-5.5c1.6-0.5,2.6-2.5,3.1-5c0.5-2.5,0.8-5.1,0.8-7.7v0
	c0-1.5,0-2.5,0-2.5h0.1c2.3-0.4,4.5-1.2,6.4-2.5l0.2-0.3c3-1.7,5.9-3.8,8.5-6.1l0,0l1.6,9.2l0.2,0.9
	C339.5,191.6,338.1,192.6,338.1,192.6z"/>
<polygon class="st11" points="92.4,187 127,200.2 159,176.6 134.3,164.9 "/>
<polygon class="st4" points="92.4,224.3 92.4,187 127,200.2 127.5,244.3 "/>
<polygon class="st10" points="127.5,244.3 127,200.2 159,176.6 159.2,222.9 "/>
<path class="st13" d="M121.4,206.3c-2.2-0.5-4.5-1.1-6.7-1.7s-4.4-1.3-6.6-2s-4.4-1.4-6.5-2.2l-3.2-1.2c-1.1-0.4-2.1-0.8-3.2-1.3
	c1.1,0.2,2.2,0.5,3.4,0.8l3.3,0.9c2.2,0.6,4.4,1.3,6.6,2s4.4,1.4,6.5,2.2S119.3,205.4,121.4,206.3z"/>
<path class="st13" d="M128.5,206.3c2.1-1.9,4.3-3.7,6.5-5.5s4.4-3.5,6.6-5.3s4.5-3.4,6.8-5.1l3.4-2.5c1.2-0.8,2.3-1.6,3.5-2.4
	c-1,1-2.1,1.9-3.2,2.8l-3.3,2.7c-2.2,1.8-4.4,3.5-6.6,5.3s-4.5,3.4-6.8,5.1S130.9,204.7,128.5,206.3z"/>
<path class="st13" d="M92.2,203.4c1.2,0,2.3,0.1,3.4,0.5c1.1,0.3,2.2,0.8,3.1,1.5C96.4,205.3,94.2,204.6,92.2,203.4L92.2,203.4z"/>
<path class="st13" d="M104.1,207.7c3.9,0.8,7.6,1.8,11.4,2.9s7.4,2.4,11.1,3.9c-3.9-0.8-7.6-1.8-11.4-2.9S107.8,209.3,104.1,207.7z"
	/>
<path class="st13" d="M92.2,212.6c5.9,2.1,11.7,4.2,17.6,6.4l8.7,3.4c2.9,1.1,5.8,2.2,8.7,3.4l-0.4,0l5.6-3.9
	c1.9-1.3,3.8-2.5,5.7-3.8s3.8-2.5,5.7-3.8l5.7-3.7l-5.5,4.1c-1.8,1.4-3.7,2.7-5.5,4s-3.7,2.7-5.5,4l-5.6,3.9l-0.2,0.1l-0.2-0.1
	c-2.9-1.1-5.8-2.3-8.7-3.4l-8.7-3.5C103.7,217.5,97.9,215.1,92.2,212.6z"/>
<path class="st13" d="M105.4,221.4c-2.2-0.5-4.4-1.2-6.5-2.1c-2.1-0.8-4.2-1.8-6.1-3c2.2,0.5,4.4,1.2,6.5,2.1
	C101.3,219.2,103.4,220.2,105.4,221.4z"/>
<path class="st13" d="M134.1,232.4c4.4-3.8,9.2-7.1,14.4-9.8C144.1,226.4,139.3,229.7,134.1,232.4z"/>
<path class="st13" d="M92.7,222.4c3,1.3,6,2.6,8.9,4s5.9,2.8,8.8,4.3s5.8,3,8.7,4.5l4.3,2.3c1.4,0.8,2.9,1.6,4.3,2.4
	c-1.5-0.6-3-1.3-4.5-2l-4.4-2.1c-3-1.4-5.9-2.8-8.8-4.3s-5.8-2.9-8.7-4.5S95.5,224,92.7,222.4z"/>
<path class="st13" d="M127.5,244.3c2.5-2.3,5.1-4.5,7.7-6.6s5.3-4.3,7.9-6.4s5.3-4.2,8-6.2l4.1-3.1c1.4-1,2.8-2,4.1-3
	c-1.3,1.1-2.6,2.2-3.8,3.4l-3.9,3.3c-2.6,2.2-5.3,4.3-7.9,6.4s-5.3,4.2-8,6.2S130.3,242.3,127.5,244.3z"/>
<path class="st9" d="M337.2,184.5c0,0-0.1,0.1-0.2,0.4c-3.5,6.3-10.3,10.2-17.5,9.9c0.5-2.5,0.8-5.1,0.8-7.7v0
	c0.1-0.8,0.1-1.7,0-2.5h0.1c2.4-0.6,4.8-1.4,7-2.5c0,0,0-0.3,0-0.3c2.8-1.4,5.9-3.1,8-6l0,0L337.2,184.5z"/>
<path class="st8" d="M203.6,155.9c0,0,12.8-10.4,24-4c0,0,13.4,7.9,10.4,11.3c0,0-1.1,1.6-8.5-3.9c-1.6-1.2-3.5-2-5.5-2.3l-3.7-0.5
	c-0.1,0-0.2,0-0.2,0.1c0,0.1,0,0.1,0,0.2c1.4,1.5,6.8,7.4,6.1,10.5L203.6,155.9z"/>
<path class="st7" d="M301.9,109.9c0,0-3.6,10.4-0.9,17.2c0,0-2.1,3.8-1.9,5.3c0,0-5.1-6-3.2-17.9c0,0,1.3-9.1,4.7-7.4
	C300.6,107.1,302.1,106.5,301.9,109.9z"/>
<path class="st9" d="M263.8,99.1c0,0,7,13.7,13.6,5.1l8.3-16.4c0,0,1.2-3.7-1.8-5.8l-3.1-4.4C280.9,77.6,275.2,98.4,263.8,99.1z"/>
<path class="st0" d="M256,97.9l-0.2,13.9l12.7-6.7c0,0-3.7-3.9-4.6-6C263.8,99.1,259,99.8,256,97.9z"/>
<path class="st13" d="M256,97.9l-0.2,13.9l12.7-6.7c0,0-3.7-3.9-4.6-6C263.8,99.1,259,99.8,256,97.9z"/>
<path class="st0" d="M277.5,104.2l12.7,5.8l-0.4-26c0,0-1.7-3.1-5.8-1.9c1.7,1.4,2.4,3.7,1.9,5.8L277.5,104.2z"/>
<path class="st13" d="M277.5,104.2l12.7,5.8l-0.4-26c0,0-1.7-3.1-5.8-1.9c1.7,1.4,2.4,3.7,1.9,5.8L277.5,104.2z"/>
<path class="st8" d="M282.6,65.8c0,18.6-9.3,33.6-20.9,33.6s-20.9-15.1-20.9-33.6c0-1.5,0.1-3,0.2-4.5c1.4-16.4,10.1-29.1,20.7-29.1
	c9.1,0,16.9,9.5,19.7,22.7C282.2,58.5,282.6,62.2,282.6,65.8z"/>
<ellipse transform="matrix(0.5688 -0.8224 0.8224 0.5688 65.4337 264.5733)" class="st8" cx="285.1" cy="69.9" rx="8.9" ry="6.2"/>
<path class="st9" d="M281.4,54.9l-2.9,1.6c-3.8-3.6-8.5,1.7-8.5,1.7c-7,4.5-9.6-0.2-9.6-0.2c-6.8,7.7-14.7,4-14.7,4
	c-2.5-1.4-4-1-4.7-0.7c1.4-16.4,10.1-29.1,20.7-29.1C270.8,32.2,278.6,41.7,281.4,54.9z"/>
<path class="st2" d="M296.1,49.6L296.1,49.6c-0.7,5-2.4,9.8-4.9,14.1c-0.9-0.9-2.1-1.5-3.4-1.7c-1.1-0.2-2.2,0-3.3,0.5
	c-1.8,0.9-3.4,2.2-4.6,3.9c0,0-3-1-1.7-5.9c0,0,2.6-10.2-3.8-12.1c-2.6-0.1-5.1,1.1-6.6,3.2c-2.7,2.5-6.8,2.4-9.4-0.2
	c0,0-3.4,10.2-16.8,2.3c0,0-9.8,6.2-13.2-0.4c-0.4-1.2-0.7-2.5-0.8-3.7c-0.2-2.8,0.4-6.3,4.5-7.8c0.7-0.3,1.5-0.4,2.3-0.3
	c3.2,0.2,6.3-1.1,8.4-3.5c0,0,18.9-20.4,28.9-13l8,7.8c0.8,0.8,1.8,1.3,2.9,1.6c0.7,0.2,1.3,0.2,2,0.1c2-0.3,4.1-0.2,6,0.4l0,0
	c2.8,0.9,5.3,3,5.9,7.8C296.7,44.9,296.5,47.3,296.1,49.6z"/>
<path class="st7" d="M284.6,62.5c-1.8,0.9-3.4,2.2-4.6,3.9c0,0-3-1-1.7-5.9c0,0,2.6-10.2-3.8-12.1c-2.6-0.1-5.1,1.1-6.6,3.2
	c-2.7,2.5-6.8,2.4-9.4-0.2c0,0-3.4,10.2-16.8,2.3c0,0-9.8,6.2-13.2-0.4c-0.4-1.2-0.7-2.5-0.8-3.7c1.1,1.1,5.2,4.6,11.4,1
	c0,0,4.5-5.8,8.7-0.6c0,0,2.8,2.6,4.7-1.3c0,0,1.9-5.3,7.9-2.1c0,0,3.2,1.9,7-1.3c0,0,6.6-9.8,15.3,2.6
	C282.8,47.7,286.4,52.5,284.6,62.5z"/>
<path class="st7" d="M290.7,34.8c-1.7,0.6-3.8,4.1-4.9,6c-0.4,0.8-1.5,1.1-2.3,0.7c-0.3-0.2-0.6-0.4-0.7-0.8
	c-1.1-2.2-0.1-6.3-0.1-6.3v-0.2c0.7,0.2,1.3,0.2,2,0.1C286.7,34.1,288.8,34.3,290.7,34.8z"/>
<path class="st7" d="M296.1,49.6c-0.7,5-2.4,9.8-4.9,14.1c-0.9-0.9-2.1-1.5-3.4-1.7C288.9,60.9,294.1,55.5,296.1,49.6z"/>
<path class="st8" d="M337.4,173.3c-4.1,5.8-10.2,9.8-17.2,11.3c-24.7,9.4-21.1-27.7-19.2-40.6c0.4-2.6,0.7-4.2,0.7-4.2
	c6.1-0.6,18.8-12,18.8-12c3.6,20.4,9.7,33.5,13.5,40.2C334.9,169.8,336.1,171.6,337.4,173.3z"/>
<path class="st9" d="M333.9,167.9l-1,2.9c-5.8-5.4-14.6-37.9-14.6-37.9c-6.3,6.5-16.8,10.9-17.3,11.1c0.4-2.6,0.7-4.2,0.7-4.2
	c6.1-0.6,18.8-12,18.8-12C324.1,148.1,330.1,161.3,333.9,167.9z"/>
<path class="st2" d="M369,184.8c0.1,4.5-1.8,10.5-9.6,16.7c0,0-14.8,15.1-13.5-0.3c0,0-19,13.2-12.9,3.1l5-11.7c0,0,1.3-1.3-0.9-6.8
	c0,0-1-5.2-1.8-10.1l2-2.5c-8.9-13.7-14.7-29.3-16.9-45.5c0,0-10.8,10.1-18.8,12c-1-1.3-1.8-2.8-2.2-4.4c-1-4.1,0.2-10.5,12.3-16.5
	c0,0,25.8-10.8,37.2,9.2c0,0,14.1-2.1,14.8,15.7c0,0-1.5,26.4,3.1,33.5C368.3,179.5,369,182.1,369,184.8z"/>
<path class="st7" d="M369,184.8c0.1,4.5-1.8,10.5-9.6,16.7c0,0-14.8,15.1-13.5-0.3c0,0-19,13.2-12.9,3.1l5-11.7c0,0,1.3-1.3-0.9-6.8
	c0,0-1-5.2-1.8-10.1l2-2.5c-8.9-13.7-14.7-29.3-16.9-45.5c0,0-10.8,10.1-18.8,12c-1-1.3-1.8-2.8-2.2-4.4c1.6-0.8,9.7-4.8,13.8-10
	c0,0,8.6-10.1,12.6,0.6c0,0,3.7,21.5,11.7,29.8c0,0,12.6,8.6,5.8,27l-5.5,20.4c0,0,11.4-11.4,12-8c0,0-4,12.9,9.2,2.8
	C359.2,197.8,366.1,190.3,369,184.8z"/>
<ellipse transform="matrix(0.7071 -0.7071 0.7071 0.7071 -21.2156 288.7168)" class="st8" cx="337.9" cy="170" rx="7.1" ry="5.7"/>
<polygon class="st0" points="134,214.3 268,298.2 268.7,195.2 135.4,123.1 "/>
<polygon class="st13" points="134,214.3 268,298.2 268.7,195.2 135.4,123.1 "/>
<polygon class="st0" points="268,298.2 272.9,298.6 272.9,192 139.9,121.7 135.4,123.1 268.7,195.2 "/>
<polygon class="st14" points="268,298.2 272.9,298.6 272.9,192 139.9,121.7 135.4,123.1 268.7,195.2 "/>
<polygon class="st0" points="166.3,280.7 214.3,306.2 227.1,290.7 176.6,266.3 "/>
<polygon class="st13" points="166.3,280.7 214.3,306.2 227.1,290.7 176.6,266.3 "/>
<polygon class="st0" points="166.3,280.7 166.6,284.2 216,310 228.2,294 227.1,290.7 214.3,306.2 "/>
<polygon class="st14" points="166.3,280.7 166.6,284.2 216,310 228.2,294 227.1,290.7 214.3,306.2 "/>
<path class="st0" d="M215.7,231.9l1.1,6.5c0,0-16.8,30.1-0.5,50.2l-3.5,2.2C212.7,290.7,195.4,263.3,215.7,231.9z"/>
<path class="st14" d="M215.7,231.9l1.1,6.5c0,0-16.8,30.1-0.5,50.2l-3.5,2.2C212.7,290.7,195.4,263.3,215.7,231.9z"/>
<path class="st0" d="M180.4,212.6l35.3,19.3c0,0-19.8,29.3-3,58.9c0,0-22.3,0-38.7-13c-1-0.8-1.7-1.8-2-3
	C169.5,267,161.4,235.9,180.4,212.6z"/>
<path class="st13" d="M180.4,212.6l35.3,19.3c0,0-19.8,29.3-3,58.9c0,0-22.3,0-38.7-13c-1-0.8-1.7-1.8-2-3
	C169.5,267,161.4,235.9,180.4,212.6z"/>
<polygon class="st5" points="263.8,379.6 264.7,539 272.5,539 277.2,376.4 267.4,381.8 "/>
<polygon class="st5" points="374.9,480.8 370.9,324.8 382.4,318.4 382.4,480.8 "/>
<g id="a46a253d-2a5d-4a78-9234-617a83f021c3">
	<g id="e210bd5c-9032-4afa-befd-a14819bedf5c">
		<path class="st0" d="M407.2,489.9c9.1-9.3,14.5-47.2,5.6-54.6h-45.3c-8.9,7.4-3.5,45.3,5.6,54.6l0.2,0.3l0.3,0.3
			c0.3,0.2,0.5,0.5,0.8,0.7c0.1,0.1,0.1,0.1,0.2,0.2c0.2,0.2,0.4,0.4,0.7,0.5c0.4,0.3,0.8,0.5,1.2,0.8c7.5,4.3,19.7,4.3,27.2,0l0,0
			c0.4-0.2,0.8-0.5,1.2-0.8c0.2-0.2,0.4-0.3,0.6-0.5l0.3-0.2c0.3-0.2,0.5-0.5,0.8-0.7l0.4-0.3L407.2,489.9z"/>
		<g class="st15">
			<path class="st11" d="M407.2,489.9c9.1-9.3,14.5-47.2,5.6-54.6h-45.3c-8.9,7.4-3.5,45.3,5.6,54.6l0.2,0.3l0.3,0.3
				c0.3,0.2,0.5,0.5,0.8,0.7c0.1,0.1,0.1,0.1,0.2,0.2c0.2,0.2,0.4,0.4,0.7,0.5c0.4,0.3,0.8,0.5,1.2,0.8c7.5,4.3,19.7,4.3,27.2,0l0,0
				c0.4-0.2,0.8-0.5,1.2-0.8c0.2-0.2,0.4-0.3,0.6-0.5l0.3-0.2c0.3-0.2,0.5-0.5,0.8-0.7l0.4-0.3L407.2,489.9z"/>
		</g>
		<path class="st0" d="M371.5,432.3c-10.3,6-10.3,15.7,0,21.6s27.1,6,37.4,0s10.3-15.7,0-21.6S381.8,426.3,371.5,432.3z"/>
		<g class="st16">
			<path class="st11" d="M371.5,432.3c-10.3,6-10.3,15.7,0,21.6s27.1,6,37.4,0s10.3-15.7,0-21.6S381.8,426.3,371.5,432.3z"/>
		</g>
		<path class="st0" d="M376.5,435.2c-7.6,4.4-7.6,11.5,0,15.9s19.9,4.4,27.5,0s7.6-11.5,0-15.9S384,430.8,376.5,435.2z"/>
		<g class="st17">
			<path class="st11" d="M376.5,435.2c-7.6,4.4-7.6,11.5,0,15.9s19.9,4.4,27.5,0s7.6-11.5,0-15.9S384,430.8,376.5,435.2z"/>
		</g>
		<path class="st18" d="M403.9,442.6c-7.6-4.4-19.9-4.4-27.5,0c-1.8,1-3.4,2.4-4.5,4.2c1.1,1.7,2.7,3.2,4.5,4.2
			c7.6,4.4,19.9,4.4,27.5,0c1.8-1,3.4-2.4,4.5-4.1C407.3,445.1,405.8,443.6,403.9,442.6z"/>
		<path class="st0" d="M392.8,434.8c-0.8-0.7-1.5-1.5-2-2.4c-0.5-1.5-0.3-3.1,0.5-4.4c0.7-1.3,1.7-2.6,2.4-3.9
			c2.1-4.4,0.2-9.7-4.2-11.8c0,0,0,0,0,0h-0.1c-1.1-0.5-2.3-0.8-3.4-1.4c-2.4-1.1-3.7-3.8-3-6.4c0.7-3-0.5-6.1-3-7.8
			c-2.8-1.7-6.7-1.2-9.5-2.9c-2.4-1.4-3.6-4-5.7-5.7c-4.4-3.4-12.6-2-12.4,4.6c0.1,3,2.6,5.5,2.8,8.5c0.1,2-0.8,3.8-1.4,5.8
			c-0.9,2.7-1.1,5.8,0.7,8c1.1,1,2.2,1.9,3.5,2.7c2.7,2,3,5.1,2.4,8.2c-0.4,2.3-1,4.6-0.2,6.8c1.3,3.7,4.4,4.5,7.6,5.5
			c2.4,0.8,4.6,2.2,6.2,4.1c1.7,1.9,2.5,4.5,2.2,7l13.4-0.1c-0.7-0.8-0.8-2-0.1-2.9c0.7-0.8,1.6-1.5,2.6-1.9c1-0.4,1.8-1,2.6-1.8
			c0.9-1.2,1.1-2.7,0.6-4.1C394.7,437,393.9,435.8,392.8,434.8z"/>
		<path class="st7" d="M392.8,434.8c-0.8-0.7-1.5-1.5-2-2.4c-0.5-1.5-0.3-3.1,0.5-4.4c0.7-1.3,1.7-2.6,2.4-3.9
			c2.1-4.4,0.2-9.7-4.2-11.8c0,0,0,0,0,0h-0.1c-1.1-0.5-2.3-0.8-3.4-1.4c-2.4-1.1-3.7-3.8-3-6.4c0.7-3-0.5-6.1-3-7.8
			c-2.8-1.7-6.7-1.2-9.5-2.9c-2.4-1.4-3.6-4-5.7-5.7c-4.4-3.4-12.6-2-12.4,4.6c0.1,3,2.6,5.5,2.8,8.5c0.1,2-0.8,3.8-1.4,5.8
			c-0.9,2.7-1.1,5.8,0.7,8c1.1,1,2.2,1.9,3.5,2.7c2.7,2,3,5.1,2.4,8.2c-0.4,2.3-1,4.6-0.2,6.8c1.3,3.7,4.4,4.5,7.6,5.5
			c2.4,0.8,4.6,2.2,6.2,4.1c1.7,1.9,2.5,4.5,2.2,7l13.4-0.1c-0.7-0.8-0.8-2-0.1-2.9c0.7-0.8,1.6-1.5,2.6-1.9c1-0.4,1.8-1,2.6-1.8
			c0.9-1.2,1.1-2.7,0.6-4.1C394.7,437,393.9,435.8,392.8,434.8z"/>
		<path class="st11" d="M382.5,446.1c-0.3,0-0.6-0.3-0.6-0.6l0,0c-0.8-29-21.9-53.4-22.1-53.7c-0.2-0.3-0.2-0.7,0-0.9
			c0.3-0.2,0.7-0.2,0.9,0c0.2,0.2,21.7,25.1,22.4,54.5C383.1,445.7,382.8,446,382.5,446.1C382.4,446,382.4,446,382.5,446.1
			L382.5,446.1L382.5,446.1z"/>
		<path class="st0" d="M384.8,449.4c-1.8-2-3.4-4.3-4.6-6.7c-1-2.1-1-4.6,0-6.7c0.9-1.6,2.5-2.7,3.2-4.4c1-2.4-0.1-5.2-1.5-7.5
			s-3-4.5-3.1-7.2c0-2.4,1.1-4.6,3-6.1c2.8-2.3,9.6-1.8,11.1-5.1c0.5-1.4,0.6-2.9,0.3-4.3c-0.5-2.8-0.8-5.6-0.8-8.5
			c0-2.9,1.3-5.6,3.6-7.4c4.3-2.9,10.1,0,14.1-3.2c2.4-2,5-3.7,7.8-5.1c2.8-1.4,6.1-1.7,9.1-0.9c3.1,0.8,5.4,3.4,5.9,6.6
			c0.1,1.7-0.2,3.5-0.8,5.1c-0.7,2.2-1.4,4.5-0.7,6.6c0.7,1.4,1.4,2.7,2.3,3.9c1.5,2.8,1.5,6.1-0.1,8.8c-2.4,4-6.7,4-10.7,5.1
			c-2.1,0.7-4.2,2.4-4,4.6c0.1,1.8,1.8,3.1,2.7,4.7c1.4,2.7,0.7,6-1.7,7.9c-3.1,2.3-8.1,1.5-10.5,4.5c-2.9,3.6,2.1,6.3-0.2,9.7
			c-1,1.6-3.1,2-4.9,2.5s-3.8,1.3-4.4,3.1L384.8,449.4z"/>
		<path class="st11" d="M391.5,449.5h-0.2c-0.3,0-0.6-0.3-0.6-0.7c2.1-30,24-60.6,30.5-65.8c0.3-0.2,0.7-0.2,0.9,0.1
			c0.2,0.3,0.2,0.7-0.1,0.9c-6.9,5.6-28,36.6-30,64.8C392,449.2,391.8,449.5,391.5,449.5z"/>
	</g>
</g>
</svg>
